solid CATIA STL
  facet normal  0.000000e+000  1.000000e+000  0.000000e+000
    outer loop
      vertex  0.000000e+000  8.000000e+001  5.278427e-015
      vertex  0.000000e+000  8.000000e+001  1.600000e+000
      vertex  1.000000e+001  8.000000e+001  5.278427e-015
    endloop
  endfacet
  facet normal  0.000000e+000  1.000000e+000  -0.000000e+000
    outer loop
      vertex  1.000000e+001  8.000000e+001  5.278427e-015
      vertex  0.000000e+000  8.000000e+001  1.600000e+000
      vertex  1.000000e+001  8.000000e+001  1.600000e+000
    endloop
  endfacet
  facet normal -1.000000e+000  0.000000e+000  0.000000e+000
    outer loop
      vertex  0.000000e+000  7.190344e+001  5.278427e-015
      vertex  0.000000e+000  7.190344e+001  1.600000e+000
      vertex  0.000000e+000  8.000000e+001  5.278427e-015
    endloop
  endfacet
  facet normal -1.000000e+000  0.000000e+000  0.000000e+000
    outer loop
      vertex  0.000000e+000  8.000000e+001  5.278427e-015
      vertex  0.000000e+000  7.190344e+001  1.600000e+000
      vertex  0.000000e+000  8.000000e+001  1.600000e+000
    endloop
  endfacet
  facet normal  0.000000e+000  0.000000e+000 -1.000000e+000
    outer loop
      vertex  1.000000e+001  7.190344e+001  5.278427e-015
      vertex  0.000000e+000  7.190344e+001  5.278427e-015
      vertex  1.000000e+001  8.000000e+001  5.278427e-015
    endloop
  endfacet
  facet normal  -0.000000e+000  0.000000e+000 -1.000000e+000
    outer loop
      vertex  1.000000e+001  8.000000e+001  5.278427e-015
      vertex  0.000000e+000  7.190344e+001  5.278427e-015
      vertex  0.000000e+000  8.000000e+001  5.278427e-015
    endloop
  endfacet
  facet normal  1.000000e+000  0.000000e+000  0.000000e+000
    outer loop
      vertex  1.000000e+001  7.190344e+001  5.278427e-015
      vertex  1.000000e+001  8.000000e+001  5.278427e-015
      vertex  1.000000e+001  7.190344e+001  1.600000e+000
    endloop
  endfacet
  facet normal  1.000000e+000  -0.000000e+000  0.000000e+000
    outer loop
      vertex  1.000000e+001  7.190344e+001  1.600000e+000
      vertex  1.000000e+001  8.000000e+001  5.278427e-015
      vertex  1.000000e+001  8.000000e+001  1.600000e+000
    endloop
  endfacet
  facet normal  0.000000e+000  0.000000e+000  1.000000e+000
    outer loop
      vertex  1.000000e+001  7.190344e+001  1.600000e+000
      vertex  1.000000e+001  8.000000e+001  1.600000e+000
      vertex  0.000000e+000  7.190344e+001  1.600000e+000
    endloop
  endfacet
  facet normal  0.000000e+000  0.000000e+000  1.000000e+000
    outer loop
      vertex  0.000000e+000  7.190344e+001  1.600000e+000
      vertex  1.000000e+001  8.000000e+001  1.600000e+000
      vertex  0.000000e+000  8.000000e+001  1.600000e+000
    endloop
  endfacet
  facet normal  0.000000e+000  1.406032e-001  9.900660e-001
    outer loop
      vertex  0.000000e+000  7.033275e+001  1.748156e+000
      vertex  1.000000e+001  7.111461e+001  1.637121e+000
      vertex  0.000000e+000  7.111461e+001  1.637121e+000
    endloop
  endfacet
  facet normal  -0.000000e+000  4.700614e-002  9.988946e-001
    outer loop
      vertex  0.000000e+000  7.111461e+001  1.637121e+000
      vertex  1.000000e+001  7.111461e+001  1.637121e+000
      vertex  1.000000e+001  7.190344e+001  1.600000e+000
    endloop
  endfacet
  facet normal  0.000000e+000  4.700614e-002  9.988946e-001
    outer loop
      vertex  0.000000e+000  7.111461e+001  1.637121e+000
      vertex  1.000000e+001  7.190344e+001  1.600000e+000
      vertex  0.000000e+000  7.190344e+001  1.600000e+000
    endloop
  endfacet
  facet normal  -0.000000e+000  1.406032e-001  9.900660e-001
    outer loop
      vertex  1.000000e+001  7.111461e+001  1.637121e+000
      vertex  0.000000e+000  7.033275e+001  1.748156e+000
      vertex  1.000000e+001  7.033275e+001  1.748156e+000
    endloop
  endfacet
  facet normal  0.000000e+000  2.329585e-001  9.724867e-001
    outer loop
      vertex  1.000000e+001  7.033275e+001  1.748156e+000
      vertex  0.000000e+000  7.033275e+001  1.748156e+000
      vertex  0.000000e+000  6.956477e+001  1.932124e+000
    endloop
  endfacet
  facet normal  -0.000000e+000  2.329585e-001  9.724867e-001
    outer loop
      vertex  1.000000e+001  7.033275e+001  1.748156e+000
      vertex  0.000000e+000  6.956477e+001  1.932124e+000
      vertex  1.000000e+001  6.956477e+001  1.932124e+000
    endloop
  endfacet
  facet normal  0.000000e+000  3.232532e-001  9.463125e-001
    outer loop
      vertex  1.000000e+001  6.956477e+001  1.932124e+000
      vertex  0.000000e+000  6.956477e+001  1.932124e+000
      vertex  0.000000e+000  6.881747e+001  2.187398e+000
    endloop
  endfacet
  facet normal  -0.000000e+000  3.232532e-001  9.463125e-001
    outer loop
      vertex  1.000000e+001  6.956477e+001  1.932124e+000
      vertex  0.000000e+000  6.881747e+001  2.187398e+000
      vertex  1.000000e+001  6.881747e+001  2.187398e+000
    endloop
  endfacet
  facet normal  1.000000e+000  0.000000e+000  0.000000e+000
    outer loop
      vertex  1.000000e+001  7.190344e+001  5.278427e-015
      vertex  1.000000e+001  7.111461e+001  1.637121e+000
      vertex  1.000000e+001  7.033275e+001  1.748156e+000
    endloop
  endfacet
  facet normal  1.000000e+000  0.000000e+000  0.000000e+000
    outer loop
      vertex  1.000000e+001  7.190344e+001  5.278427e-015
      vertex  1.000000e+001  7.190344e+001  1.600000e+000
      vertex  1.000000e+001  7.111461e+001  1.637121e+000
    endloop
  endfacet
  facet normal  9.999999e-001  0.000000e+000  0.000000e+000
    outer loop
      vertex  1.000000e+001  6.822966e+001  6.992839e-001
      vertex  1.000000e+001  6.956477e+001  1.932124e+000
      vertex  1.000000e+001  6.881747e+001  2.187398e+000
    endloop
  endfacet
  facet normal  1.000000e+000  0.000000e+000  0.000000e+000
    outer loop
      vertex  1.000000e+001  7.033275e+001  1.748156e+000
      vertex  1.000000e+001  6.956477e+001  1.932124e+000
      vertex  1.000000e+001  7.190344e+001  5.278427e-015
    endloop
  endfacet
  facet normal  9.999999e-001  0.000000e+000  0.000000e+000
    outer loop
      vertex  1.000000e+001  7.190344e+001  5.278427e-015
      vertex  1.000000e+001  6.956477e+001  1.932124e+000
      vertex  1.000000e+001  6.822966e+001  6.992839e-001
    endloop
  endfacet
  facet normal  9.999999e-001  0.000000e+000  0.000000e+000
    outer loop
      vertex  1.000000e+001  7.190344e+001  5.278427e-015
      vertex  1.000000e+001  6.822966e+001  6.992839e-001
      vertex  1.000000e+001  7.115178e+001  2.829023e-002
    endloop
  endfacet
  facet normal  1.000000e+000  0.000000e+000  0.000000e+000
    outer loop
      vertex  1.000000e+001  7.115178e+001  2.829023e-002
      vertex  1.000000e+001  6.822966e+001  6.992839e-001
      vertex  1.000000e+001  7.040436e+001  1.130008e-001
    endloop
  endfacet
  facet normal  1.000000e+000  -0.000000e+000  -0.000000e+000
    outer loop
      vertex  1.000000e+001  6.822966e+001  6.992839e-001
      vertex  1.000000e+001  6.893916e+001  4.494495e-001
      vertex  1.000000e+001  7.040436e+001  1.130008e-001
    endloop
  endfacet
  facet normal  1.000000e+000  0.000000e+000  0.000000e+000
    outer loop
      vertex  1.000000e+001  7.040436e+001  1.130008e-001
      vertex  1.000000e+001  6.893916e+001  4.494495e-001
      vertex  1.000000e+001  6.966543e+001  2.536525e-001
    endloop
  endfacet
  facet normal  -0.000000e+000 -3.761021e-002 -9.992925e-001
    outer loop
      vertex  0.000000e+000  7.190344e+001  5.278427e-015
      vertex  1.000000e+001  7.190344e+001  5.278427e-015
      vertex  0.000000e+000  7.115178e+001  2.829023e-002
    endloop
  endfacet
  facet normal  0.000000e+000 -3.761021e-002 -9.992925e-001
    outer loop
      vertex  0.000000e+000  7.115178e+001  2.829023e-002
      vertex  1.000000e+001  7.190344e+001  5.278427e-015
      vertex  1.000000e+001  7.115178e+001  2.829023e-002
    endloop
  endfacet
  facet normal  -0.000000e+000 -1.126162e-001 -9.936386e-001
    outer loop
      vertex  0.000000e+000  7.115178e+001  2.829023e-002
      vertex  1.000000e+001  7.115178e+001  2.829023e-002
      vertex  0.000000e+000  7.040436e+001  1.130008e-001
    endloop
  endfacet
  facet normal  0.000000e+000 -1.126162e-001 -9.936386e-001
    outer loop
      vertex  0.000000e+000  7.040436e+001  1.130008e-001
      vertex  1.000000e+001  7.115178e+001  2.829023e-002
      vertex  1.000000e+001  7.040436e+001  1.130008e-001
    endloop
  endfacet
  facet normal  -0.000000e+000 -1.869879e-001 -9.823622e-001
    outer loop
      vertex  0.000000e+000  7.040436e+001  1.130008e-001
      vertex  1.000000e+001  7.040436e+001  1.130008e-001
      vertex  0.000000e+000  6.966543e+001  2.536525e-001
    endloop
  endfacet
  facet normal  0.000000e+000 -1.869879e-001 -9.823622e-001
    outer loop
      vertex  0.000000e+000  6.966543e+001  2.536525e-001
      vertex  1.000000e+001  7.040436e+001  1.130008e-001
      vertex  1.000000e+001  6.966543e+001  2.536525e-001
    endloop
  endfacet
  facet normal  -0.000000e+000 -2.602983e-001 -9.655282e-001
    outer loop
      vertex  0.000000e+000  6.966543e+001  2.536525e-001
      vertex  1.000000e+001  6.966543e+001  2.536525e-001
      vertex  0.000000e+000  6.893916e+001  4.494495e-001
    endloop
  endfacet
  facet normal  0.000000e+000 -2.602983e-001 -9.655282e-001
    outer loop
      vertex  0.000000e+000  6.893916e+001  4.494495e-001
      vertex  1.000000e+001  6.966543e+001  2.536525e-001
      vertex  1.000000e+001  6.893916e+001  4.494495e-001
    endloop
  endfacet
  facet normal  -0.000000e+000 -3.321393e-001 -9.432303e-001
    outer loop
      vertex  0.000000e+000  6.893916e+001  4.494495e-001
      vertex  1.000000e+001  6.893916e+001  4.494495e-001
      vertex  0.000000e+000  6.822966e+001  6.992839e-001
    endloop
  endfacet
  facet normal  0.000000e+000 -3.321393e-001 -9.432303e-001
    outer loop
      vertex  0.000000e+000  6.822966e+001  6.992839e-001
      vertex  1.000000e+001  6.893916e+001  4.494495e-001
      vertex  1.000000e+001  6.822966e+001  6.992839e-001
    endloop
  endfacet
  facet normal -1.000000e+000  -0.000000e+000  -0.000000e+000
    outer loop
      vertex  0.000000e+000  7.033275e+001  1.748156e+000
      vertex  0.000000e+000  7.111461e+001  1.637121e+000
      vertex  0.000000e+000  7.190344e+001  5.278427e-015
    endloop
  endfacet
  facet normal -1.000000e+000  -0.000000e+000  -0.000000e+000
    outer loop
      vertex  0.000000e+000  7.111461e+001  1.637121e+000
      vertex  0.000000e+000  7.190344e+001  1.600000e+000
      vertex  0.000000e+000  7.190344e+001  5.278427e-015
    endloop
  endfacet
  facet normal -9.999999e-001  -0.000000e+000  0.000000e+000
    outer loop
      vertex  0.000000e+000  6.881747e+001  2.187398e+000
      vertex  0.000000e+000  6.956477e+001  1.932124e+000
      vertex  0.000000e+000  6.822966e+001  6.992839e-001
    endloop
  endfacet
  facet normal -1.000000e+000  0.000000e+000  0.000000e+000
    outer loop
      vertex  0.000000e+000  7.033275e+001  1.748156e+000
      vertex  0.000000e+000  7.190344e+001  5.278427e-015
      vertex  0.000000e+000  6.956477e+001  1.932124e+000
    endloop
  endfacet
  facet normal -9.999999e-001  0.000000e+000  -0.000000e+000
    outer loop
      vertex  0.000000e+000  6.956477e+001  1.932124e+000
      vertex  0.000000e+000  7.190344e+001  5.278427e-015
      vertex  0.000000e+000  6.822966e+001  6.992839e-001
    endloop
  endfacet
  facet normal -1.000000e+000  0.000000e+000  0.000000e+000
    outer loop
      vertex  0.000000e+000  7.190344e+001  5.278427e-015
      vertex  0.000000e+000  7.115178e+001  2.829023e-002
      vertex  0.000000e+000  6.822966e+001  6.992839e-001
    endloop
  endfacet
  facet normal -1.000000e+000  0.000000e+000  0.000000e+000
    outer loop
      vertex  0.000000e+000  6.822966e+001  6.992839e-001
      vertex  0.000000e+000  7.115178e+001  2.829023e-002
      vertex  0.000000e+000  7.040436e+001  1.130008e-001
    endloop
  endfacet
  facet normal -1.000000e+000  0.000000e+000  0.000000e+000
    outer loop
      vertex  0.000000e+000  6.822966e+001  6.992839e-001
      vertex  0.000000e+000  7.040436e+001  1.130008e-001
      vertex  0.000000e+000  6.893916e+001  4.494495e-001
    endloop
  endfacet
  facet normal -1.000000e+000  0.000000e+000  0.000000e+000
    outer loop
      vertex  0.000000e+000  6.893916e+001  4.494495e-001
      vertex  0.000000e+000  7.040436e+001  1.130008e-001
      vertex  0.000000e+000  6.966543e+001  2.536525e-001
    endloop
  endfacet
  facet normal -1.000000e+000  0.000000e+000  -0.000000e+000
    outer loop
      vertex  0.000000e+000  5.177034e+001  7.200716e+000
      vertex  0.000000e+000  5.235814e+001  8.688830e+000
      vertex  0.000000e+000  6.822966e+001  6.992839e-001
    endloop
  endfacet
  facet normal -1.000000e+000  0.000000e+000  0.000000e+000
    outer loop
      vertex  0.000000e+000  6.822966e+001  6.992839e-001
      vertex  0.000000e+000  5.235814e+001  8.688830e+000
      vertex  0.000000e+000  6.881747e+001  2.187398e+000
    endloop
  endfacet
  facet normal  0.000000e+000 -3.673783e-001 -9.300717e-001
    outer loop
      vertex  1.000000e+001  5.177034e+001  7.200716e+000
      vertex  0.000000e+000  5.177034e+001  7.200716e+000
      vertex  1.000000e+001  6.822966e+001  6.992839e-001
    endloop
  endfacet
  facet normal  -0.000000e+000 -3.673783e-001 -9.300717e-001
    outer loop
      vertex  1.000000e+001  6.822966e+001  6.992839e-001
      vertex  0.000000e+000  5.177034e+001  7.200716e+000
      vertex  0.000000e+000  6.822966e+001  6.992839e-001
    endloop
  endfacet
  facet normal  1.000000e+000  0.000000e+000  0.000000e+000
    outer loop
      vertex  1.000000e+001  5.177034e+001  7.200716e+000
      vertex  1.000000e+001  6.822966e+001  6.992839e-001
      vertex  1.000000e+001  5.235814e+001  8.688830e+000
    endloop
  endfacet
  facet normal  1.000000e+000  0.000000e+000  0.000000e+000
    outer loop
      vertex  1.000000e+001  5.235814e+001  8.688830e+000
      vertex  1.000000e+001  6.822966e+001  6.992839e-001
      vertex  1.000000e+001  6.881747e+001  2.187398e+000
    endloop
  endfacet
  facet normal  0.000000e+000  3.673783e-001  9.300717e-001
    outer loop
      vertex  1.000000e+001  5.235814e+001  8.688830e+000
      vertex  1.000000e+001  6.881747e+001  2.187398e+000
      vertex  0.000000e+000  5.235814e+001  8.688830e+000
    endloop
  endfacet
  facet normal  0.000000e+000  3.673783e-001  9.300717e-001
    outer loop
      vertex  0.000000e+000  5.235814e+001  8.688830e+000
      vertex  1.000000e+001  6.881747e+001  2.187398e+000
      vertex  0.000000e+000  6.881747e+001  2.187398e+000
    endloop
  endfacet
  facet normal  0.000000e+000  3.761031e-002  9.992925e-001
    outer loop
      vertex  0.000000e+000  4.809656e+001  9.500000e+000
      vertex  1.000000e+001  4.809656e+001  9.500000e+000
      vertex  0.000000e+000  4.896849e+001  9.467183e+000
    endloop
  endfacet
  facet normal  -0.000000e+000  3.761031e-002  9.992925e-001
    outer loop
      vertex  0.000000e+000  4.896849e+001  9.467183e+000
      vertex  1.000000e+001  4.809656e+001  9.500000e+000
      vertex  1.000000e+001  4.896849e+001  9.467183e+000
    endloop
  endfacet
  facet normal  0.000000e+000  1.126166e-001  9.936386e-001
    outer loop
      vertex  0.000000e+000  4.896849e+001  9.467183e+000
      vertex  1.000000e+001  4.896849e+001  9.467183e+000
      vertex  0.000000e+000  4.983549e+001  9.368919e+000
    endloop
  endfacet
  facet normal  -0.000000e+000  1.126166e-001  9.936386e-001
    outer loop
      vertex  0.000000e+000  4.983549e+001  9.368919e+000
      vertex  1.000000e+001  4.896849e+001  9.467183e+000
      vertex  1.000000e+001  4.983549e+001  9.368919e+000
    endloop
  endfacet
  facet normal  0.000000e+000  1.869877e-001  9.823623e-001
    outer loop
      vertex  0.000000e+000  4.983549e+001  9.368919e+000
      vertex  1.000000e+001  4.983549e+001  9.368919e+000
      vertex  0.000000e+000  5.069265e+001  9.205763e+000
    endloop
  endfacet
  facet normal  -0.000000e+000  1.869877e-001  9.823623e-001
    outer loop
      vertex  0.000000e+000  5.069265e+001  9.205763e+000
      vertex  1.000000e+001  4.983549e+001  9.368919e+000
      vertex  1.000000e+001  5.069265e+001  9.205763e+000
    endloop
  endfacet
  facet normal  0.000000e+000  2.602992e-001  9.655280e-001
    outer loop
      vertex  0.000000e+000  5.069265e+001  9.205763e+000
      vertex  1.000000e+001  5.069265e+001  9.205763e+000
      vertex  0.000000e+000  5.153513e+001  8.978639e+000
    endloop
  endfacet
  facet normal  -0.000000e+000  2.602992e-001  9.655280e-001
    outer loop
      vertex  0.000000e+000  5.153513e+001  8.978639e+000
      vertex  1.000000e+001  5.069265e+001  9.205763e+000
      vertex  1.000000e+001  5.153513e+001  8.978639e+000
    endloop
  endfacet
  facet normal  0.000000e+000  3.321389e-001  9.432305e-001
    outer loop
      vertex  0.000000e+000  5.153513e+001  8.978639e+000
      vertex  1.000000e+001  5.153513e+001  8.978639e+000
      vertex  0.000000e+000  5.235814e+001  8.688830e+000
    endloop
  endfacet
  facet normal  -0.000000e+000  3.321389e-001  9.432305e-001
    outer loop
      vertex  0.000000e+000  5.235814e+001  8.688830e+000
      vertex  1.000000e+001  5.153513e+001  8.978639e+000
      vertex  1.000000e+001  5.235814e+001  8.688830e+000
    endloop
  endfacet
  facet normal  1.000000e+000  -0.000000e+000  0.000000e+000
    outer loop
      vertex  1.000000e+001  5.235814e+001  8.688830e+000
      vertex  1.000000e+001  5.106084e+001  7.450551e+000
      vertex  1.000000e+001  5.177034e+001  7.200716e+000
    endloop
  endfacet
  facet normal  1.000000e+000  -0.000000e+000  0.000000e+000
    outer loop
      vertex  1.000000e+001  4.809656e+001  9.500000e+000
      vertex  1.000000e+001  4.809656e+001  7.900000e+000
      vertex  1.000000e+001  4.884822e+001  7.871710e+000
    endloop
  endfacet
  facet normal  9.999999e-001  -0.000000e+000  -0.000000e+000
    outer loop
      vertex  1.000000e+001  4.809656e+001  9.500000e+000
      vertex  1.000000e+001  4.884822e+001  7.871710e+000
      vertex  1.000000e+001  4.959564e+001  7.786999e+000
    endloop
  endfacet
  facet normal  1.000000e+000  -0.000000e+000  -0.000000e+000
    outer loop
      vertex  1.000000e+001  4.809656e+001  9.500000e+000
      vertex  1.000000e+001  4.959564e+001  7.786999e+000
      vertex  1.000000e+001  5.033457e+001  7.646348e+000
    endloop
  endfacet
  facet normal  1.000000e+000  -0.000000e+000  -0.000000e+000
    outer loop
      vertex  1.000000e+001  4.809656e+001  9.500000e+000
      vertex  1.000000e+001  5.033457e+001  7.646348e+000
      vertex  1.000000e+001  5.106084e+001  7.450551e+000
    endloop
  endfacet
  facet normal  1.000000e+000  0.000000e+000  -0.000000e+000
    outer loop
      vertex  1.000000e+001  4.809656e+001  9.500000e+000
      vertex  1.000000e+001  5.106084e+001  7.450551e+000
      vertex  1.000000e+001  5.235814e+001  8.688830e+000
    endloop
  endfacet
  facet normal  1.000000e+000  0.000000e+000  0.000000e+000
    outer loop
      vertex  1.000000e+001  4.809656e+001  9.500000e+000
      vertex  1.000000e+001  5.235814e+001  8.688830e+000
      vertex  1.000000e+001  4.896849e+001  9.467183e+000
    endloop
  endfacet
  facet normal  1.000000e+000  0.000000e+000  0.000000e+000
    outer loop
      vertex  1.000000e+001  5.153513e+001  8.978639e+000
      vertex  1.000000e+001  5.069265e+001  9.205763e+000
      vertex  1.000000e+001  5.235814e+001  8.688830e+000
    endloop
  endfacet
  facet normal  9.999999e-001  0.000000e+000  0.000000e+000
    outer loop
      vertex  1.000000e+001  5.235814e+001  8.688830e+000
      vertex  1.000000e+001  5.069265e+001  9.205763e+000
      vertex  1.000000e+001  4.983549e+001  9.368919e+000
    endloop
  endfacet
  facet normal  1.000000e+000  0.000000e+000  0.000000e+000
    outer loop
      vertex  1.000000e+001  5.235814e+001  8.688830e+000
      vertex  1.000000e+001  4.983549e+001  9.368919e+000
      vertex  1.000000e+001  4.896849e+001  9.467183e+000
    endloop
  endfacet
  facet normal  -0.000000e+000 -1.126173e-001 -9.936385e-001
    outer loop
      vertex  0.000000e+000  4.959564e+001  7.786999e+000
      vertex  1.000000e+001  4.884822e+001  7.871710e+000
      vertex  0.000000e+000  4.884822e+001  7.871710e+000
    endloop
  endfacet
  facet normal  0.000000e+000 -3.761008e-002 -9.992926e-001
    outer loop
      vertex  0.000000e+000  4.884822e+001  7.871710e+000
      vertex  1.000000e+001  4.884822e+001  7.871710e+000
      vertex  1.000000e+001  4.809656e+001  7.900000e+000
    endloop
  endfacet
  facet normal  -0.000000e+000 -3.761008e-002 -9.992926e-001
    outer loop
      vertex  0.000000e+000  4.884822e+001  7.871710e+000
      vertex  1.000000e+001  4.809656e+001  7.900000e+000
      vertex  0.000000e+000  4.809656e+001  7.900000e+000
    endloop
  endfacet
  facet normal  0.000000e+000 -1.126173e-001 -9.936385e-001
    outer loop
      vertex  1.000000e+001  4.884822e+001  7.871710e+000
      vertex  0.000000e+000  4.959564e+001  7.786999e+000
      vertex  1.000000e+001  4.959564e+001  7.786999e+000
    endloop
  endfacet
  facet normal  -0.000000e+000 -1.869870e-001 -9.823624e-001
    outer loop
      vertex  1.000000e+001  4.959564e+001  7.786999e+000
      vertex  0.000000e+000  4.959564e+001  7.786999e+000
      vertex  0.000000e+000  5.033457e+001  7.646348e+000
    endloop
  endfacet
  facet normal  0.000000e+000 -1.869870e-001 -9.823624e-001
    outer loop
      vertex  1.000000e+001  4.959564e+001  7.786999e+000
      vertex  0.000000e+000  5.033457e+001  7.646348e+000
      vertex  1.000000e+001  5.033457e+001  7.646348e+000
    endloop
  endfacet
  facet normal  -0.000000e+000 -2.602996e-001 -9.655280e-001
    outer loop
      vertex  1.000000e+001  5.033457e+001  7.646348e+000
      vertex  0.000000e+000  5.033457e+001  7.646348e+000
      vertex  0.000000e+000  5.106084e+001  7.450551e+000
    endloop
  endfacet
  facet normal  0.000000e+000 -2.602996e-001 -9.655280e-001
    outer loop
      vertex  1.000000e+001  5.033457e+001  7.646348e+000
      vertex  0.000000e+000  5.106084e+001  7.450551e+000
      vertex  1.000000e+001  5.106084e+001  7.450551e+000
    endloop
  endfacet
  facet normal  -0.000000e+000 -3.321379e-001 -9.432308e-001
    outer loop
      vertex  1.000000e+001  5.106084e+001  7.450551e+000
      vertex  0.000000e+000  5.106084e+001  7.450551e+000
      vertex  0.000000e+000  5.177034e+001  7.200716e+000
    endloop
  endfacet
  facet normal  0.000000e+000 -3.321379e-001 -9.432308e-001
    outer loop
      vertex  1.000000e+001  5.106084e+001  7.450551e+000
      vertex  0.000000e+000  5.177034e+001  7.200716e+000
      vertex  1.000000e+001  5.177034e+001  7.200716e+000
    endloop
  endfacet
  facet normal -1.000000e+000  0.000000e+000  0.000000e+000
    outer loop
      vertex  0.000000e+000  5.177034e+001  7.200716e+000
      vertex  0.000000e+000  5.106084e+001  7.450551e+000
      vertex  0.000000e+000  5.235814e+001  8.688830e+000
    endloop
  endfacet
  facet normal -1.000000e+000  -0.000000e+000  -0.000000e+000
    outer loop
      vertex  0.000000e+000  4.809656e+001  9.500000e+000
      vertex  0.000000e+000  4.896849e+001  9.467183e+000
      vertex  0.000000e+000  5.235814e+001  8.688830e+000
    endloop
  endfacet
  facet normal -1.000000e+000  -0.000000e+000  0.000000e+000
    outer loop
      vertex  0.000000e+000  4.809656e+001  9.500000e+000
      vertex  0.000000e+000  5.235814e+001  8.688830e+000
      vertex  0.000000e+000  5.106084e+001  7.450551e+000
    endloop
  endfacet
  facet normal -1.000000e+000  0.000000e+000  0.000000e+000
    outer loop
      vertex  0.000000e+000  4.809656e+001  9.500000e+000
      vertex  0.000000e+000  5.106084e+001  7.450551e+000
      vertex  0.000000e+000  5.033457e+001  7.646348e+000
    endloop
  endfacet
  facet normal -1.000000e+000  0.000000e+000  0.000000e+000
    outer loop
      vertex  0.000000e+000  4.809656e+001  9.500000e+000
      vertex  0.000000e+000  5.033457e+001  7.646348e+000
      vertex  0.000000e+000  4.959564e+001  7.786999e+000
    endloop
  endfacet
  facet normal -9.999999e-001  0.000000e+000  0.000000e+000
    outer loop
      vertex  0.000000e+000  4.809656e+001  9.500000e+000
      vertex  0.000000e+000  4.959564e+001  7.786999e+000
      vertex  0.000000e+000  4.884822e+001  7.871710e+000
    endloop
  endfacet
  facet normal -1.000000e+000  0.000000e+000  0.000000e+000
    outer loop
      vertex  0.000000e+000  4.809656e+001  9.500000e+000
      vertex  0.000000e+000  4.884822e+001  7.871710e+000
      vertex  0.000000e+000  4.809656e+001  7.900000e+000
    endloop
  endfacet
  facet normal -1.000000e+000  -0.000000e+000  -0.000000e+000
    outer loop
      vertex  0.000000e+000  4.896849e+001  9.467183e+000
      vertex  0.000000e+000  4.983549e+001  9.368919e+000
      vertex  0.000000e+000  5.235814e+001  8.688830e+000
    endloop
  endfacet
  facet normal -9.999999e-001  0.000000e+000  0.000000e+000
    outer loop
      vertex  0.000000e+000  5.235814e+001  8.688830e+000
      vertex  0.000000e+000  4.983549e+001  9.368919e+000
      vertex  0.000000e+000  5.069265e+001  9.205763e+000
    endloop
  endfacet
  facet normal -1.000000e+000  0.000000e+000  0.000000e+000
    outer loop
      vertex  0.000000e+000  5.235814e+001  8.688830e+000
      vertex  0.000000e+000  5.069265e+001  9.205763e+000
      vertex  0.000000e+000  5.153513e+001  8.978639e+000
    endloop
  endfacet
  facet normal -1.000000e+000  0.000000e+000  0.000000e+000
    outer loop
      vertex  0.000000e+000  3.190344e+001  7.900000e+000
      vertex  0.000000e+000  3.190344e+001  9.500000e+000
      vertex  0.000000e+000  4.809656e+001  7.900000e+000
    endloop
  endfacet
  facet normal -1.000000e+000  0.000000e+000  0.000000e+000
    outer loop
      vertex  0.000000e+000  4.809656e+001  7.900000e+000
      vertex  0.000000e+000  3.190344e+001  9.500000e+000
      vertex  0.000000e+000  4.809656e+001  9.500000e+000
    endloop
  endfacet
  facet normal  0.000000e+000  0.000000e+000 -1.000000e+000
    outer loop
      vertex  1.000000e+001  3.190344e+001  7.900000e+000
      vertex  0.000000e+000  3.190344e+001  7.900000e+000
      vertex  1.000000e+001  4.809656e+001  7.900000e+000
    endloop
  endfacet
  facet normal  -0.000000e+000  0.000000e+000 -1.000000e+000
    outer loop
      vertex  1.000000e+001  4.809656e+001  7.900000e+000
      vertex  0.000000e+000  3.190344e+001  7.900000e+000
      vertex  0.000000e+000  4.809656e+001  7.900000e+000
    endloop
  endfacet
  facet normal  1.000000e+000  0.000000e+000  0.000000e+000
    outer loop
      vertex  1.000000e+001  3.190344e+001  7.900000e+000
      vertex  1.000000e+001  4.809656e+001  7.900000e+000
      vertex  1.000000e+001  3.190344e+001  9.500000e+000
    endloop
  endfacet
  facet normal  1.000000e+000  -0.000000e+000  0.000000e+000
    outer loop
      vertex  1.000000e+001  3.190344e+001  9.500000e+000
      vertex  1.000000e+001  4.809656e+001  7.900000e+000
      vertex  1.000000e+001  4.809656e+001  9.500000e+000
    endloop
  endfacet
  facet normal  0.000000e+000  0.000000e+000  1.000000e+000
    outer loop
      vertex  1.000000e+001  3.190344e+001  9.500000e+000
      vertex  1.000000e+001  4.809656e+001  9.500000e+000
      vertex  0.000000e+000  3.190344e+001  9.500000e+000
    endloop
  endfacet
  facet normal  0.000000e+000  0.000000e+000  1.000000e+000
    outer loop
      vertex  0.000000e+000  3.190344e+001  9.500000e+000
      vertex  1.000000e+001  4.809656e+001  9.500000e+000
      vertex  0.000000e+000  4.809656e+001  9.500000e+000
    endloop
  endfacet
  facet normal  0.000000e+000 -3.321389e-001  9.432305e-001
    outer loop
      vertex  0.000000e+000  2.764186e+001  8.688830e+000
      vertex  1.000000e+001  2.764186e+001  8.688830e+000
      vertex  0.000000e+000  2.846487e+001  8.978639e+000
    endloop
  endfacet
  facet normal  0.000000e+000 -3.321389e-001  9.432305e-001
    outer loop
      vertex  0.000000e+000  2.846487e+001  8.978639e+000
      vertex  1.000000e+001  2.764186e+001  8.688830e+000
      vertex  1.000000e+001  2.846487e+001  8.978639e+000
    endloop
  endfacet
  facet normal  0.000000e+000 -2.602986e-001  9.655281e-001
    outer loop
      vertex  0.000000e+000  2.846487e+001  8.978639e+000
      vertex  1.000000e+001  2.846487e+001  8.978639e+000
      vertex  0.000000e+000  2.930735e+001  9.205763e+000
    endloop
  endfacet
  facet normal  0.000000e+000 -2.602986e-001  9.655281e-001
    outer loop
      vertex  0.000000e+000  2.930735e+001  9.205763e+000
      vertex  1.000000e+001  2.846487e+001  8.978639e+000
      vertex  1.000000e+001  2.930735e+001  9.205763e+000
    endloop
  endfacet
  facet normal  0.000000e+000 -1.869877e-001  9.823623e-001
    outer loop
      vertex  0.000000e+000  2.930735e+001  9.205763e+000
      vertex  1.000000e+001  2.930735e+001  9.205763e+000
      vertex  0.000000e+000  3.016451e+001  9.368919e+000
    endloop
  endfacet
  facet normal  0.000000e+000 -1.869877e-001  9.823623e-001
    outer loop
      vertex  0.000000e+000  3.016451e+001  9.368919e+000
      vertex  1.000000e+001  2.930735e+001  9.205763e+000
      vertex  1.000000e+001  3.016451e+001  9.368919e+000
    endloop
  endfacet
  facet normal  0.000000e+000 -1.126166e-001  9.936386e-001
    outer loop
      vertex  0.000000e+000  3.016451e+001  9.368919e+000
      vertex  1.000000e+001  3.016451e+001  9.368919e+000
      vertex  0.000000e+000  3.103151e+001  9.467183e+000
    endloop
  endfacet
  facet normal  0.000000e+000 -1.126166e-001  9.936386e-001
    outer loop
      vertex  0.000000e+000  3.103151e+001  9.467183e+000
      vertex  1.000000e+001  3.016451e+001  9.368919e+000
      vertex  1.000000e+001  3.103151e+001  9.467183e+000
    endloop
  endfacet
  facet normal  0.000000e+000 -3.761023e-002  9.992925e-001
    outer loop
      vertex  0.000000e+000  3.103151e+001  9.467183e+000
      vertex  1.000000e+001  3.103151e+001  9.467183e+000
      vertex  0.000000e+000  3.190344e+001  9.500000e+000
    endloop
  endfacet
  facet normal  0.000000e+000 -3.761023e-002  9.992925e-001
    outer loop
      vertex  0.000000e+000  3.190344e+001  9.500000e+000
      vertex  1.000000e+001  3.103151e+001  9.467183e+000
      vertex  1.000000e+001  3.190344e+001  9.500000e+000
    endloop
  endfacet
  facet normal  1.000000e+000  0.000000e+000  0.000000e+000
    outer loop
      vertex  1.000000e+001  3.190344e+001  9.500000e+000
      vertex  1.000000e+001  3.115178e+001  7.871710e+000
      vertex  1.000000e+001  3.190344e+001  7.900000e+000
    endloop
  endfacet
  facet normal  1.000000e+000  0.000000e+000  -0.000000e+000
    outer loop
      vertex  1.000000e+001  2.764186e+001  8.688830e+000
      vertex  1.000000e+001  2.822966e+001  7.200716e+000
      vertex  1.000000e+001  2.893916e+001  7.450551e+000
    endloop
  endfacet
  facet normal  9.999999e-001  0.000000e+000  -0.000000e+000
    outer loop
      vertex  1.000000e+001  2.764186e+001  8.688830e+000
      vertex  1.000000e+001  2.893916e+001  7.450551e+000
      vertex  1.000000e+001  2.966543e+001  7.646348e+000
    endloop
  endfacet
  facet normal  1.000000e+000  0.000000e+000  -0.000000e+000
    outer loop
      vertex  1.000000e+001  2.764186e+001  8.688830e+000
      vertex  1.000000e+001  2.966543e+001  7.646348e+000
      vertex  1.000000e+001  3.040436e+001  7.786999e+000
    endloop
  endfacet
  facet normal  1.000000e+000  0.000000e+000  -0.000000e+000
    outer loop
      vertex  1.000000e+001  2.764186e+001  8.688830e+000
      vertex  1.000000e+001  3.040436e+001  7.786999e+000
      vertex  1.000000e+001  3.115178e+001  7.871710e+000
    endloop
  endfacet
  facet normal  9.999999e-001  0.000000e+000  -0.000000e+000
    outer loop
      vertex  1.000000e+001  2.764186e+001  8.688830e+000
      vertex  1.000000e+001  3.115178e+001  7.871710e+000
      vertex  1.000000e+001  3.190344e+001  9.500000e+000
    endloop
  endfacet
  facet normal  1.000000e+000  0.000000e+000  0.000000e+000
    outer loop
      vertex  1.000000e+001  2.764186e+001  8.688830e+000
      vertex  1.000000e+001  3.190344e+001  9.500000e+000
      vertex  1.000000e+001  2.846487e+001  8.978639e+000
    endloop
  endfacet
  facet normal  1.000000e+000  0.000000e+000  0.000000e+000
    outer loop
      vertex  1.000000e+001  3.103151e+001  9.467183e+000
      vertex  1.000000e+001  3.016451e+001  9.368919e+000
      vertex  1.000000e+001  3.190344e+001  9.500000e+000
    endloop
  endfacet
  facet normal  1.000000e+000  0.000000e+000  0.000000e+000
    outer loop
      vertex  1.000000e+001  3.190344e+001  9.500000e+000
      vertex  1.000000e+001  3.016451e+001  9.368919e+000
      vertex  1.000000e+001  2.930735e+001  9.205763e+000
    endloop
  endfacet
  facet normal  9.999999e-001  -0.000000e+000  0.000000e+000
    outer loop
      vertex  1.000000e+001  3.190344e+001  9.500000e+000
      vertex  1.000000e+001  2.930735e+001  9.205763e+000
      vertex  1.000000e+001  2.846487e+001  8.978639e+000
    endloop
  endfacet
  facet normal  0.000000e+000  2.602996e-001 -9.655280e-001
    outer loop
      vertex  0.000000e+000  2.966543e+001  7.646348e+000
      vertex  1.000000e+001  2.893916e+001  7.450551e+000
      vertex  0.000000e+000  2.893916e+001  7.450551e+000
    endloop
  endfacet
  facet normal  0.000000e+000  3.321379e-001 -9.432308e-001
    outer loop
      vertex  0.000000e+000  2.893916e+001  7.450551e+000
      vertex  1.000000e+001  2.893916e+001  7.450551e+000
      vertex  1.000000e+001  2.822966e+001  7.200716e+000
    endloop
  endfacet
  facet normal  0.000000e+000  3.321379e-001 -9.432308e-001
    outer loop
      vertex  0.000000e+000  2.893916e+001  7.450551e+000
      vertex  1.000000e+001  2.822966e+001  7.200716e+000
      vertex  0.000000e+000  2.822966e+001  7.200716e+000
    endloop
  endfacet
  facet normal  0.000000e+000  2.602996e-001 -9.655280e-001
    outer loop
      vertex  1.000000e+001  2.893916e+001  7.450551e+000
      vertex  0.000000e+000  2.966543e+001  7.646348e+000
      vertex  1.000000e+001  2.966543e+001  7.646348e+000
    endloop
  endfacet
  facet normal  0.000000e+000  1.869870e-001 -9.823624e-001
    outer loop
      vertex  1.000000e+001  2.966543e+001  7.646348e+000
      vertex  0.000000e+000  2.966543e+001  7.646348e+000
      vertex  0.000000e+000  3.040436e+001  7.786999e+000
    endloop
  endfacet
  facet normal  0.000000e+000  1.869870e-001 -9.823624e-001
    outer loop
      vertex  1.000000e+001  2.966543e+001  7.646348e+000
      vertex  0.000000e+000  3.040436e+001  7.786999e+000
      vertex  1.000000e+001  3.040436e+001  7.786999e+000
    endloop
  endfacet
  facet normal  0.000000e+000  1.126173e-001 -9.936385e-001
    outer loop
      vertex  1.000000e+001  3.040436e+001  7.786999e+000
      vertex  0.000000e+000  3.040436e+001  7.786999e+000
      vertex  0.000000e+000  3.115178e+001  7.871710e+000
    endloop
  endfacet
  facet normal  0.000000e+000  1.126173e-001 -9.936385e-001
    outer loop
      vertex  1.000000e+001  3.040436e+001  7.786999e+000
      vertex  0.000000e+000  3.115178e+001  7.871710e+000
      vertex  1.000000e+001  3.115178e+001  7.871710e+000
    endloop
  endfacet
  facet normal  0.000000e+000  3.760998e-002 -9.992925e-001
    outer loop
      vertex  1.000000e+001  3.115178e+001  7.871710e+000
      vertex  0.000000e+000  3.115178e+001  7.871710e+000
      vertex  0.000000e+000  3.190344e+001  7.900000e+000
    endloop
  endfacet
  facet normal  0.000000e+000  3.760998e-002 -9.992925e-001
    outer loop
      vertex  1.000000e+001  3.115178e+001  7.871710e+000
      vertex  0.000000e+000  3.190344e+001  7.900000e+000
      vertex  1.000000e+001  3.190344e+001  7.900000e+000
    endloop
  endfacet
  facet normal -1.000000e+000  0.000000e+000  0.000000e+000
    outer loop
      vertex  0.000000e+000  3.190344e+001  7.900000e+000
      vertex  0.000000e+000  3.115178e+001  7.871710e+000
      vertex  0.000000e+000  3.190344e+001  9.500000e+000
    endloop
  endfacet
  facet normal -1.000000e+000  0.000000e+000  -0.000000e+000
    outer loop
      vertex  0.000000e+000  2.764186e+001  8.688830e+000
      vertex  0.000000e+000  2.846487e+001  8.978639e+000
      vertex  0.000000e+000  3.190344e+001  9.500000e+000
    endloop
  endfacet
  facet normal -9.999999e-001  0.000000e+000  0.000000e+000
    outer loop
      vertex  0.000000e+000  2.764186e+001  8.688830e+000
      vertex  0.000000e+000  3.190344e+001  9.500000e+000
      vertex  0.000000e+000  3.115178e+001  7.871710e+000
    endloop
  endfacet
  facet normal -1.000000e+000  -0.000000e+000  0.000000e+000
    outer loop
      vertex  0.000000e+000  2.764186e+001  8.688830e+000
      vertex  0.000000e+000  3.115178e+001  7.871710e+000
      vertex  0.000000e+000  3.040436e+001  7.786999e+000
    endloop
  endfacet
  facet normal -1.000000e+000  -0.000000e+000  0.000000e+000
    outer loop
      vertex  0.000000e+000  2.764186e+001  8.688830e+000
      vertex  0.000000e+000  3.040436e+001  7.786999e+000
      vertex  0.000000e+000  2.966543e+001  7.646348e+000
    endloop
  endfacet
  facet normal -1.000000e+000  -0.000000e+000  0.000000e+000
    outer loop
      vertex  0.000000e+000  2.764186e+001  8.688830e+000
      vertex  0.000000e+000  2.966543e+001  7.646348e+000
      vertex  0.000000e+000  2.893916e+001  7.450551e+000
    endloop
  endfacet
  facet normal -1.000000e+000  -0.000000e+000  0.000000e+000
    outer loop
      vertex  0.000000e+000  2.764186e+001  8.688830e+000
      vertex  0.000000e+000  2.893916e+001  7.450551e+000
      vertex  0.000000e+000  2.822966e+001  7.200716e+000
    endloop
  endfacet
  facet normal -9.999999e-001  0.000000e+000  -0.000000e+000
    outer loop
      vertex  0.000000e+000  2.846487e+001  8.978639e+000
      vertex  0.000000e+000  2.930735e+001  9.205763e+000
      vertex  0.000000e+000  3.190344e+001  9.500000e+000
    endloop
  endfacet
  facet normal -1.000000e+000  0.000000e+000  0.000000e+000
    outer loop
      vertex  0.000000e+000  3.190344e+001  9.500000e+000
      vertex  0.000000e+000  2.930735e+001  9.205763e+000
      vertex  0.000000e+000  3.016451e+001  9.368919e+000
    endloop
  endfacet
  facet normal -1.000000e+000  0.000000e+000  0.000000e+000
    outer loop
      vertex  0.000000e+000  3.190344e+001  9.500000e+000
      vertex  0.000000e+000  3.016451e+001  9.368919e+000
      vertex  0.000000e+000  3.103151e+001  9.467183e+000
    endloop
  endfacet
  facet normal -1.000000e+000  0.000000e+000  0.000000e+000
    outer loop
      vertex  0.000000e+000  1.118253e+001  2.187398e+000
      vertex  0.000000e+000  2.764186e+001  8.688830e+000
      vertex  0.000000e+000  1.177034e+001  6.992839e-001
    endloop
  endfacet
  facet normal -1.000000e+000  0.000000e+000  0.000000e+000
    outer loop
      vertex  0.000000e+000  1.177034e+001  6.992839e-001
      vertex  0.000000e+000  2.764186e+001  8.688830e+000
      vertex  0.000000e+000  2.822966e+001  7.200716e+000
    endloop
  endfacet
  facet normal  0.000000e+000  3.673783e-001 -9.300717e-001
    outer loop
      vertex  1.000000e+001  1.177034e+001  6.992839e-001
      vertex  0.000000e+000  1.177034e+001  6.992839e-001
      vertex  1.000000e+001  2.822966e+001  7.200716e+000
    endloop
  endfacet
  facet normal  0.000000e+000  3.673783e-001 -9.300717e-001
    outer loop
      vertex  1.000000e+001  2.822966e+001  7.200716e+000
      vertex  0.000000e+000  1.177034e+001  6.992839e-001
      vertex  0.000000e+000  2.822966e+001  7.200716e+000
    endloop
  endfacet
  facet normal  9.999999e-001  0.000000e+000  -0.000000e+000
    outer loop
      vertex  1.000000e+001  1.118253e+001  2.187398e+000
      vertex  1.000000e+001  1.177034e+001  6.992839e-001
      vertex  1.000000e+001  2.764186e+001  8.688830e+000
    endloop
  endfacet
  facet normal  1.000000e+000  0.000000e+000  0.000000e+000
    outer loop
      vertex  1.000000e+001  2.764186e+001  8.688830e+000
      vertex  1.000000e+001  1.177034e+001  6.992839e-001
      vertex  1.000000e+001  2.822966e+001  7.200716e+000
    endloop
  endfacet
  facet normal  0.000000e+000 -3.673783e-001  9.300717e-001
    outer loop
      vertex  1.000000e+001  1.118253e+001  2.187398e+000
      vertex  1.000000e+001  2.764186e+001  8.688830e+000
      vertex  0.000000e+000  1.118253e+001  2.187398e+000
    endloop
  endfacet
  facet normal  0.000000e+000 -3.673783e-001  9.300717e-001
    outer loop
      vertex  0.000000e+000  1.118253e+001  2.187398e+000
      vertex  1.000000e+001  2.764186e+001  8.688830e+000
      vertex  0.000000e+000  2.764186e+001  8.688830e+000
    endloop
  endfacet
  facet normal  0.000000e+000 -2.329577e-001  9.724869e-001
    outer loop
      vertex  0.000000e+000  9.667249e+000  1.748156e+000
      vertex  1.000000e+001  1.043523e+001  1.932124e+000
      vertex  0.000000e+000  1.043523e+001  1.932124e+000
    endloop
  endfacet
  facet normal  0.000000e+000 -3.232529e-001  9.463125e-001
    outer loop
      vertex  0.000000e+000  1.043523e+001  1.932124e+000
      vertex  1.000000e+001  1.043523e+001  1.932124e+000
      vertex  1.000000e+001  1.118253e+001  2.187398e+000
    endloop
  endfacet
  facet normal  0.000000e+000 -3.232529e-001  9.463125e-001
    outer loop
      vertex  0.000000e+000  1.043523e+001  1.932124e+000
      vertex  1.000000e+001  1.118253e+001  2.187398e+000
      vertex  0.000000e+000  1.118253e+001  2.187398e+000
    endloop
  endfacet
  facet normal  0.000000e+000 -2.329577e-001  9.724869e-001
    outer loop
      vertex  1.000000e+001  1.043523e+001  1.932124e+000
      vertex  0.000000e+000  9.667249e+000  1.748156e+000
      vertex  1.000000e+001  9.667249e+000  1.748156e+000
    endloop
  endfacet
  facet normal  0.000000e+000 -1.406032e-001  9.900660e-001
    outer loop
      vertex  1.000000e+001  9.667249e+000  1.748156e+000
      vertex  0.000000e+000  9.667249e+000  1.748156e+000
      vertex  0.000000e+000  8.885388e+000  1.637121e+000
    endloop
  endfacet
  facet normal  0.000000e+000 -1.406032e-001  9.900660e-001
    outer loop
      vertex  1.000000e+001  9.667249e+000  1.748156e+000
      vertex  0.000000e+000  8.885388e+000  1.637121e+000
      vertex  1.000000e+001  8.885388e+000  1.637121e+000
    endloop
  endfacet
  facet normal  0.000000e+000 -4.700625e-002  9.988946e-001
    outer loop
      vertex  1.000000e+001  8.885388e+000  1.637121e+000
      vertex  0.000000e+000  8.885388e+000  1.637121e+000
      vertex  0.000000e+000  8.096557e+000  1.600000e+000
    endloop
  endfacet
  facet normal  0.000000e+000 -4.700625e-002  9.988946e-001
    outer loop
      vertex  1.000000e+001  8.885388e+000  1.637121e+000
      vertex  0.000000e+000  8.096557e+000  1.600000e+000
      vertex  1.000000e+001  8.096557e+000  1.600000e+000
    endloop
  endfacet
  facet normal  1.000000e+000  0.000000e+000  0.000000e+000
    outer loop
      vertex  1.000000e+001  1.177034e+001  6.992839e-001
      vertex  1.000000e+001  1.043523e+001  1.932124e+000
      vertex  1.000000e+001  9.667249e+000  1.748156e+000
    endloop
  endfacet
  facet normal  1.000000e+000  0.000000e+000  0.000000e+000
    outer loop
      vertex  1.000000e+001  1.177034e+001  6.992839e-001
      vertex  1.000000e+001  1.118253e+001  2.187398e+000
      vertex  1.000000e+001  1.043523e+001  1.932124e+000
    endloop
  endfacet
  facet normal  1.000000e+000  0.000000e+000  0.000000e+000
    outer loop
      vertex  1.000000e+001  8.096557e+000  0.000000e+000
      vertex  1.000000e+001  8.885388e+000  1.637121e+000
      vertex  1.000000e+001  8.096557e+000  1.600000e+000
    endloop
  endfacet
  facet normal  1.000000e+000  -0.000000e+000  0.000000e+000
    outer loop
      vertex  1.000000e+001  9.667249e+000  1.748156e+000
      vertex  1.000000e+001  8.885388e+000  1.637121e+000
      vertex  1.000000e+001  1.177034e+001  6.992839e-001
    endloop
  endfacet
  facet normal  9.999999e-001  0.000000e+000  0.000000e+000
    outer loop
      vertex  1.000000e+001  1.177034e+001  6.992839e-001
      vertex  1.000000e+001  8.885388e+000  1.637121e+000
      vertex  1.000000e+001  8.096557e+000  0.000000e+000
    endloop
  endfacet
  facet normal  1.000000e+000  0.000000e+000  0.000000e+000
    outer loop
      vertex  1.000000e+001  1.177034e+001  6.992839e-001
      vertex  1.000000e+001  8.096557e+000  0.000000e+000
      vertex  1.000000e+001  1.106084e+001  4.494495e-001
    endloop
  endfacet
  facet normal  1.000000e+000  0.000000e+000  0.000000e+000
    outer loop
      vertex  1.000000e+001  1.106084e+001  4.494495e-001
      vertex  1.000000e+001  8.096557e+000  0.000000e+000
      vertex  1.000000e+001  1.033457e+001  2.536525e-001
    endloop
  endfacet
  facet normal  1.000000e+000  0.000000e+000  -0.000000e+000
    outer loop
      vertex  1.000000e+001  8.096557e+000  0.000000e+000
      vertex  1.000000e+001  8.848224e+000  2.829023e-002
      vertex  1.000000e+001  1.033457e+001  2.536525e-001
    endloop
  endfacet
  facet normal  1.000000e+000  0.000000e+000  0.000000e+000
    outer loop
      vertex  1.000000e+001  1.033457e+001  2.536525e-001
      vertex  1.000000e+001  8.848224e+000  2.829023e-002
      vertex  1.000000e+001  9.595638e+000  1.130008e-001
    endloop
  endfacet
  facet normal  0.000000e+000  3.321385e-001 -9.432306e-001
    outer loop
      vertex  0.000000e+000  1.177034e+001  6.992839e-001
      vertex  1.000000e+001  1.177034e+001  6.992839e-001
      vertex  0.000000e+000  1.106084e+001  4.494495e-001
    endloop
  endfacet
  facet normal  0.000000e+000  3.321385e-001 -9.432306e-001
    outer loop
      vertex  0.000000e+000  1.106084e+001  4.494495e-001
      vertex  1.000000e+001  1.177034e+001  6.992839e-001
      vertex  1.000000e+001  1.106084e+001  4.494495e-001
    endloop
  endfacet
  facet normal  0.000000e+000  2.602989e-001 -9.655281e-001
    outer loop
      vertex  0.000000e+000  1.106084e+001  4.494495e-001
      vertex  1.000000e+001  1.106084e+001  4.494495e-001
      vertex  0.000000e+000  1.033457e+001  2.536525e-001
    endloop
  endfacet
  facet normal  0.000000e+000  2.602989e-001 -9.655281e-001
    outer loop
      vertex  0.000000e+000  1.033457e+001  2.536525e-001
      vertex  1.000000e+001  1.106084e+001  4.494495e-001
      vertex  1.000000e+001  1.033457e+001  2.536525e-001
    endloop
  endfacet
  facet normal  0.000000e+000  1.869872e-001 -9.823623e-001
    outer loop
      vertex  0.000000e+000  1.033457e+001  2.536525e-001
      vertex  1.000000e+001  1.033457e+001  2.536525e-001
      vertex  0.000000e+000  9.595638e+000  1.130008e-001
    endloop
  endfacet
  facet normal  0.000000e+000  1.869872e-001 -9.823623e-001
    outer loop
      vertex  0.000000e+000  9.595638e+000  1.130008e-001
      vertex  1.000000e+001  1.033457e+001  2.536525e-001
      vertex  1.000000e+001  9.595638e+000  1.130008e-001
    endloop
  endfacet
  facet normal  0.000000e+000  1.126172e-001 -9.936384e-001
    outer loop
      vertex  0.000000e+000  9.595638e+000  1.130008e-001
      vertex  1.000000e+001  9.595638e+000  1.130008e-001
      vertex  0.000000e+000  8.848224e+000  2.829023e-002
    endloop
  endfacet
  facet normal  0.000000e+000  1.126172e-001 -9.936384e-001
    outer loop
      vertex  0.000000e+000  8.848224e+000  2.829023e-002
      vertex  1.000000e+001  9.595638e+000  1.130008e-001
      vertex  1.000000e+001  8.848224e+000  2.829023e-002
    endloop
  endfacet
  facet normal  0.000000e+000  3.761002e-002 -9.992926e-001
    outer loop
      vertex  0.000000e+000  8.848224e+000  2.829023e-002
      vertex  1.000000e+001  8.848224e+000  2.829023e-002
      vertex  0.000000e+000  8.096557e+000  0.000000e+000
    endloop
  endfacet
  facet normal  0.000000e+000  3.761002e-002 -9.992926e-001
    outer loop
      vertex  0.000000e+000  8.096557e+000  0.000000e+000
      vertex  1.000000e+001  8.848224e+000  2.829023e-002
      vertex  1.000000e+001  8.096557e+000  0.000000e+000
    endloop
  endfacet
  facet normal -1.000000e+000  0.000000e+000  -0.000000e+000
    outer loop
      vertex  0.000000e+000  9.667249e+000  1.748156e+000
      vertex  0.000000e+000  1.043523e+001  1.932124e+000
      vertex  0.000000e+000  1.177034e+001  6.992839e-001
    endloop
  endfacet
  facet normal -1.000000e+000  0.000000e+000  -0.000000e+000
    outer loop
      vertex  0.000000e+000  1.043523e+001  1.932124e+000
      vertex  0.000000e+000  1.118253e+001  2.187398e+000
      vertex  0.000000e+000  1.177034e+001  6.992839e-001
    endloop
  endfacet
  facet normal -1.000000e+000  0.000000e+000  0.000000e+000
    outer loop
      vertex  0.000000e+000  8.096557e+000  1.600000e+000
      vertex  0.000000e+000  8.885388e+000  1.637121e+000
      vertex  0.000000e+000  8.096557e+000  0.000000e+000
    endloop
  endfacet
  facet normal -1.000000e+000  0.000000e+000  0.000000e+000
    outer loop
      vertex  0.000000e+000  9.667249e+000  1.748156e+000
      vertex  0.000000e+000  1.177034e+001  6.992839e-001
      vertex  0.000000e+000  8.885388e+000  1.637121e+000
    endloop
  endfacet
  facet normal -9.999999e-001  0.000000e+000  -0.000000e+000
    outer loop
      vertex  0.000000e+000  8.885388e+000  1.637121e+000
      vertex  0.000000e+000  1.177034e+001  6.992839e-001
      vertex  0.000000e+000  8.096557e+000  0.000000e+000
    endloop
  endfacet
  facet normal -9.999999e-001  -0.000000e+000  0.000000e+000
    outer loop
      vertex  0.000000e+000  1.177034e+001  6.992839e-001
      vertex  0.000000e+000  1.106084e+001  4.494495e-001
      vertex  0.000000e+000  8.096557e+000  0.000000e+000
    endloop
  endfacet
  facet normal -1.000000e+000  0.000000e+000  0.000000e+000
    outer loop
      vertex  0.000000e+000  8.096557e+000  0.000000e+000
      vertex  0.000000e+000  1.106084e+001  4.494495e-001
      vertex  0.000000e+000  1.033457e+001  2.536525e-001
    endloop
  endfacet
  facet normal -1.000000e+000  0.000000e+000  0.000000e+000
    outer loop
      vertex  0.000000e+000  8.096557e+000  0.000000e+000
      vertex  0.000000e+000  1.033457e+001  2.536525e-001
      vertex  0.000000e+000  8.848224e+000  2.829023e-002
    endloop
  endfacet
  facet normal -1.000000e+000  0.000000e+000  0.000000e+000
    outer loop
      vertex  0.000000e+000  8.848224e+000  2.829023e-002
      vertex  0.000000e+000  1.033457e+001  2.536525e-001
      vertex  0.000000e+000  9.595638e+000  1.130008e-001
    endloop
  endfacet
  facet normal -1.000000e+000  0.000000e+000  0.000000e+000
    outer loop
      vertex  0.000000e+000  0.000000e+000  5.278427e-015
      vertex  0.000000e+000  0.000000e+000  1.600000e+000
      vertex  0.000000e+000  8.096557e+000  0.000000e+000
    endloop
  endfacet
  facet normal -1.000000e+000  0.000000e+000  0.000000e+000
    outer loop
      vertex  0.000000e+000  8.096557e+000  0.000000e+000
      vertex  0.000000e+000  0.000000e+000  1.600000e+000
      vertex  0.000000e+000  8.096557e+000  1.600000e+000
    endloop
  endfacet
  facet normal  0.000000e+000 -6.519347e-016 -1.000000e+000
    outer loop
      vertex  1.000000e+001  0.000000e+000  5.278427e-015
      vertex  0.000000e+000  0.000000e+000  5.278427e-015
      vertex  1.000000e+001  8.096557e+000  0.000000e+000
    endloop
  endfacet
  facet normal  -0.000000e+000 -6.519347e-016 -1.000000e+000
    outer loop
      vertex  1.000000e+001  8.096557e+000  0.000000e+000
      vertex  0.000000e+000  0.000000e+000  5.278427e-015
      vertex  0.000000e+000  8.096557e+000  0.000000e+000
    endloop
  endfacet
  facet normal  1.000000e+000  0.000000e+000  0.000000e+000
    outer loop
      vertex  1.000000e+001  0.000000e+000  5.278427e-015
      vertex  1.000000e+001  8.096557e+000  0.000000e+000
      vertex  1.000000e+001  0.000000e+000  1.600000e+000
    endloop
  endfacet
  facet normal  1.000000e+000  -0.000000e+000  0.000000e+000
    outer loop
      vertex  1.000000e+001  0.000000e+000  1.600000e+000
      vertex  1.000000e+001  8.096557e+000  0.000000e+000
      vertex  1.000000e+001  8.096557e+000  1.600000e+000
    endloop
  endfacet
  facet normal  0.000000e+000  0.000000e+000  1.000000e+000
    outer loop
      vertex  1.000000e+001  0.000000e+000  1.600000e+000
      vertex  1.000000e+001  8.096557e+000  1.600000e+000
      vertex  0.000000e+000  0.000000e+000  1.600000e+000
    endloop
  endfacet
  facet normal  0.000000e+000  0.000000e+000  1.000000e+000
    outer loop
      vertex  0.000000e+000  0.000000e+000  1.600000e+000
      vertex  1.000000e+001  8.096557e+000  1.600000e+000
      vertex  0.000000e+000  8.096557e+000  1.600000e+000
    endloop
  endfacet
  facet normal  0.000000e+000 -1.000000e+000  0.000000e+000
    outer loop
      vertex  0.000000e+000  0.000000e+000  5.278427e-015
      vertex  1.000000e+001  0.000000e+000  5.278427e-015
      vertex  0.000000e+000  0.000000e+000  1.600000e+000
    endloop
  endfacet
  facet normal  0.000000e+000 -1.000000e+000  0.000000e+000
    outer loop
      vertex  0.000000e+000  0.000000e+000  1.600000e+000
      vertex  1.000000e+001  0.000000e+000  5.278427e-015
      vertex  1.000000e+001  0.000000e+000  1.600000e+000
    endloop
  endfacet
endsolid CATIA STL
