solid CATIA STL
  facet normal  0.000000e+000  4.906745e-002 -9.987954e-001
    outer loop
      vertex  8.000000e+000  2.351199e-015  8.300000e+000
      vertex  2.800000e+001 -8.135422e-001  8.260034e+000
      vertex  8.000000e+000 -8.135422e-001  8.260034e+000
    endloop
  endfacet
  facet normal  0.000000e+000  1.467305e-001 -9.891766e-001
    outer loop
      vertex  8.000000e+000 -8.135422e-001  8.260034e+000
      vertex  2.800000e+001 -8.135422e-001  8.260034e+000
      vertex  2.800000e+001 -1.619250e+000  8.140518e+000
    endloop
  endfacet
  facet normal  0.000000e+000  1.467305e-001 -9.891766e-001
    outer loop
      vertex  8.000000e+000 -8.135422e-001  8.260034e+000
      vertex  2.800000e+001 -1.619250e+000  8.140518e+000
      vertex  8.000000e+000 -1.619250e+000  8.140518e+000
    endloop
  endfacet
  facet normal  0.000000e+000  2.429804e-001 -9.700313e-001
    outer loop
      vertex  8.000000e+000 -1.619250e+000  8.140518e+000
      vertex  2.800000e+001 -1.619250e+000  8.140518e+000
      vertex  2.800000e+001 -2.409363e+000  7.942605e+000
    endloop
  endfacet
  facet normal  0.000000e+000  2.429804e-001 -9.700313e-001
    outer loop
      vertex  8.000000e+000 -1.619250e+000  8.140518e+000
      vertex  2.800000e+001 -2.409363e+000  7.942605e+000
      vertex  8.000000e+000 -2.409363e+000  7.942605e+000
    endloop
  endfacet
  facet normal  0.000000e+000  3.368903e-001 -9.415440e-001
    outer loop
      vertex  8.000000e+000 -2.409363e+000  7.942605e+000
      vertex  2.800000e+001 -2.409363e+000  7.942605e+000
      vertex  2.800000e+001 -3.176272e+000  7.668200e+000
    endloop
  endfacet
  facet normal  0.000000e+000  3.368903e-001 -9.415440e-001
    outer loop
      vertex  8.000000e+000 -2.409363e+000  7.942605e+000
      vertex  2.800000e+001 -3.176272e+000  7.668200e+000
      vertex  8.000000e+000 -3.176272e+000  7.668200e+000
    endloop
  endfacet
  facet normal  0.000000e+000  4.275552e-001 -9.039893e-001
    outer loop
      vertex  8.000000e+000 -3.176272e+000  7.668200e+000
      vertex  2.800000e+001 -3.176272e+000  7.668200e+000
      vertex  2.800000e+001 -3.912593e+000  7.319946e+000
    endloop
  endfacet
  facet normal  0.000000e+000  4.275552e-001 -9.039893e-001
    outer loop
      vertex  8.000000e+000 -3.176272e+000  7.668200e+000
      vertex  2.800000e+001 -3.912593e+000  7.319946e+000
      vertex  8.000000e+000 -3.912593e+000  7.319946e+000
    endloop
  endfacet
  facet normal  0.000000e+000  5.141025e-001 -8.577287e-001
    outer loop
      vertex  8.000000e+000 -3.912593e+000  7.319946e+000
      vertex  2.800000e+001 -3.912593e+000  7.319946e+000
      vertex  2.800000e+001 -4.611233e+000  6.901198e+000
    endloop
  endfacet
  facet normal  0.000000e+000  5.141025e-001 -8.577287e-001
    outer loop
      vertex  8.000000e+000 -3.912593e+000  7.319946e+000
      vertex  2.800000e+001 -4.611233e+000  6.901198e+000
      vertex  8.000000e+000 -4.611233e+000  6.901198e+000
    endloop
  endfacet
  facet normal  0.000000e+000  5.956994e-001 -8.032074e-001
    outer loop
      vertex  8.000000e+000 -4.611233e+000  6.901198e+000
      vertex  2.800000e+001 -4.611233e+000  6.901198e+000
      vertex  2.800000e+001 -5.265464e+000  6.415987e+000
    endloop
  endfacet
  facet normal  0.000000e+000  5.956994e-001 -8.032074e-001
    outer loop
      vertex  8.000000e+000 -4.611233e+000  6.901198e+000
      vertex  2.800000e+001 -5.265464e+000  6.415987e+000
      vertex  8.000000e+000 -5.265464e+000  6.415987e+000
    endloop
  endfacet
  facet normal  0.000000e+000  6.715590e-001 -7.409511e-001
    outer loop
      vertex  8.000000e+000 -5.265464e+000  6.415987e+000
      vertex  2.800000e+001 -5.265464e+000  6.415987e+000
      vertex  2.800000e+001 -5.868986e+000  5.868986e+000
    endloop
  endfacet
  facet normal  0.000000e+000  6.715590e-001 -7.409511e-001
    outer loop
      vertex  8.000000e+000 -5.265464e+000  6.415987e+000
      vertex  2.800000e+001 -5.868986e+000  5.868986e+000
      vertex  8.000000e+000 -5.868986e+000  5.868986e+000
    endloop
  endfacet
  facet normal  0.000000e+000  7.409511e-001 -6.715590e-001
    outer loop
      vertex  8.000000e+000 -5.868986e+000  5.868986e+000
      vertex  2.800000e+001 -5.868986e+000  5.868986e+000
      vertex  2.800000e+001 -6.415987e+000  5.265464e+000
    endloop
  endfacet
  facet normal  0.000000e+000  7.409511e-001 -6.715590e-001
    outer loop
      vertex  8.000000e+000 -5.868986e+000  5.868986e+000
      vertex  2.800000e+001 -6.415987e+000  5.265464e+000
      vertex  8.000000e+000 -6.415987e+000  5.265464e+000
    endloop
  endfacet
  facet normal  0.000000e+000  8.032074e-001 -5.956994e-001
    outer loop
      vertex  8.000000e+000 -6.415987e+000  5.265464e+000
      vertex  2.800000e+001 -6.415987e+000  5.265464e+000
      vertex  2.800000e+001 -6.901198e+000  4.611233e+000
    endloop
  endfacet
  facet normal  0.000000e+000  8.032074e-001 -5.956994e-001
    outer loop
      vertex  8.000000e+000 -6.415987e+000  5.265464e+000
      vertex  2.800000e+001 -6.901198e+000  4.611233e+000
      vertex  8.000000e+000 -6.901198e+000  4.611233e+000
    endloop
  endfacet
  facet normal  0.000000e+000  8.577287e-001 -5.141025e-001
    outer loop
      vertex  8.000000e+000 -6.901198e+000  4.611233e+000
      vertex  2.800000e+001 -6.901198e+000  4.611233e+000
      vertex  2.800000e+001 -7.319946e+000  3.912593e+000
    endloop
  endfacet
  facet normal  0.000000e+000  8.577287e-001 -5.141025e-001
    outer loop
      vertex  8.000000e+000 -6.901198e+000  4.611233e+000
      vertex  2.800000e+001 -7.319946e+000  3.912593e+000
      vertex  8.000000e+000 -7.319946e+000  3.912593e+000
    endloop
  endfacet
  facet normal  0.000000e+000  9.039893e-001 -4.275552e-001
    outer loop
      vertex  8.000000e+000 -7.319946e+000  3.912593e+000
      vertex  2.800000e+001 -7.319946e+000  3.912593e+000
      vertex  2.800000e+001 -7.668200e+000  3.176272e+000
    endloop
  endfacet
  facet normal  0.000000e+000  9.039893e-001 -4.275552e-001
    outer loop
      vertex  8.000000e+000 -7.319946e+000  3.912593e+000
      vertex  2.800000e+001 -7.668200e+000  3.176272e+000
      vertex  8.000000e+000 -7.668200e+000  3.176272e+000
    endloop
  endfacet
  facet normal  0.000000e+000  9.415440e-001 -3.368903e-001
    outer loop
      vertex  8.000000e+000 -7.668200e+000  3.176272e+000
      vertex  2.800000e+001 -7.668200e+000  3.176272e+000
      vertex  2.800000e+001 -7.942605e+000  2.409363e+000
    endloop
  endfacet
  facet normal  0.000000e+000  9.415440e-001 -3.368903e-001
    outer loop
      vertex  8.000000e+000 -7.668200e+000  3.176272e+000
      vertex  2.800000e+001 -7.942605e+000  2.409363e+000
      vertex  8.000000e+000 -7.942605e+000  2.409363e+000
    endloop
  endfacet
  facet normal  0.000000e+000  9.700313e-001 -2.429804e-001
    outer loop
      vertex  8.000000e+000 -7.942605e+000  2.409363e+000
      vertex  2.800000e+001 -7.942605e+000  2.409363e+000
      vertex  2.800000e+001 -8.140518e+000  1.619250e+000
    endloop
  endfacet
  facet normal  0.000000e+000  9.700313e-001 -2.429804e-001
    outer loop
      vertex  8.000000e+000 -7.942605e+000  2.409363e+000
      vertex  2.800000e+001 -8.140518e+000  1.619250e+000
      vertex  8.000000e+000 -8.140518e+000  1.619250e+000
    endloop
  endfacet
  facet normal  0.000000e+000  9.891766e-001 -1.467305e-001
    outer loop
      vertex  8.000000e+000 -8.140518e+000  1.619250e+000
      vertex  2.800000e+001 -8.140518e+000  1.619250e+000
      vertex  2.800000e+001 -8.260034e+000  8.135422e-001
    endloop
  endfacet
  facet normal  0.000000e+000  9.891766e-001 -1.467305e-001
    outer loop
      vertex  8.000000e+000 -8.140518e+000  1.619250e+000
      vertex  2.800000e+001 -8.260034e+000  8.135422e-001
      vertex  8.000000e+000 -8.260034e+000  8.135422e-001
    endloop
  endfacet
  facet normal  0.000000e+000  9.987954e-001 -4.906745e-002
    outer loop
      vertex  8.000000e+000 -8.260034e+000  8.135422e-001
      vertex  2.800000e+001 -8.260034e+000  8.135422e-001
      vertex  2.800000e+001 -8.300000e+000  0.000000e+000
    endloop
  endfacet
  facet normal  0.000000e+000  9.987954e-001 -4.906745e-002
    outer loop
      vertex  8.000000e+000 -8.260034e+000  8.135422e-001
      vertex  2.800000e+001 -8.300000e+000  0.000000e+000
      vertex  8.000000e+000 -8.300000e+000  0.000000e+000
    endloop
  endfacet
  facet normal  0.000000e+000  4.906745e-002 -9.987954e-001
    outer loop
      vertex  2.800000e+001 -8.135422e-001  8.260034e+000
      vertex  8.000000e+000  2.351199e-015  8.300000e+000
      vertex  2.800000e+001  2.351199e-015  8.300000e+000
    endloop
  endfacet
  facet normal  -0.000000e+000 -4.906745e-002 -9.987954e-001
    outer loop
      vertex  2.800000e+001  2.351199e-015  8.300000e+000
      vertex  8.000000e+000  2.351199e-015  8.300000e+000
      vertex  8.000000e+000  8.135422e-001  8.260034e+000
    endloop
  endfacet
  facet normal  0.000000e+000 -4.906745e-002 -9.987954e-001
    outer loop
      vertex  2.800000e+001  2.351199e-015  8.300000e+000
      vertex  8.000000e+000  8.135422e-001  8.260034e+000
      vertex  2.800000e+001  8.135422e-001  8.260034e+000
    endloop
  endfacet
  facet normal  -0.000000e+000 -1.467305e-001 -9.891766e-001
    outer loop
      vertex  2.800000e+001  8.135422e-001  8.260034e+000
      vertex  8.000000e+000  8.135422e-001  8.260034e+000
      vertex  8.000000e+000  1.619250e+000  8.140518e+000
    endloop
  endfacet
  facet normal  0.000000e+000 -1.467305e-001 -9.891766e-001
    outer loop
      vertex  2.800000e+001  8.135422e-001  8.260034e+000
      vertex  8.000000e+000  1.619250e+000  8.140518e+000
      vertex  2.800000e+001  1.619250e+000  8.140518e+000
    endloop
  endfacet
  facet normal  -0.000000e+000 -2.429804e-001 -9.700313e-001
    outer loop
      vertex  2.800000e+001  1.619250e+000  8.140518e+000
      vertex  8.000000e+000  1.619250e+000  8.140518e+000
      vertex  8.000000e+000  2.409363e+000  7.942605e+000
    endloop
  endfacet
  facet normal  0.000000e+000 -2.429804e-001 -9.700313e-001
    outer loop
      vertex  2.800000e+001  1.619250e+000  8.140518e+000
      vertex  8.000000e+000  2.409363e+000  7.942605e+000
      vertex  2.800000e+001  2.409363e+000  7.942605e+000
    endloop
  endfacet
  facet normal  -0.000000e+000 -3.368903e-001 -9.415440e-001
    outer loop
      vertex  2.800000e+001  2.409363e+000  7.942605e+000
      vertex  8.000000e+000  2.409363e+000  7.942605e+000
      vertex  8.000000e+000  3.176272e+000  7.668200e+000
    endloop
  endfacet
  facet normal  0.000000e+000 -3.368903e-001 -9.415440e-001
    outer loop
      vertex  2.800000e+001  2.409363e+000  7.942605e+000
      vertex  8.000000e+000  3.176272e+000  7.668200e+000
      vertex  2.800000e+001  3.176272e+000  7.668200e+000
    endloop
  endfacet
  facet normal  -0.000000e+000 -4.275552e-001 -9.039893e-001
    outer loop
      vertex  2.800000e+001  3.176272e+000  7.668200e+000
      vertex  8.000000e+000  3.176272e+000  7.668200e+000
      vertex  8.000000e+000  3.912593e+000  7.319946e+000
    endloop
  endfacet
  facet normal  0.000000e+000 -4.275552e-001 -9.039893e-001
    outer loop
      vertex  2.800000e+001  3.176272e+000  7.668200e+000
      vertex  8.000000e+000  3.912593e+000  7.319946e+000
      vertex  2.800000e+001  3.912593e+000  7.319946e+000
    endloop
  endfacet
  facet normal  -0.000000e+000 -5.141025e-001 -8.577287e-001
    outer loop
      vertex  2.800000e+001  3.912593e+000  7.319946e+000
      vertex  8.000000e+000  3.912593e+000  7.319946e+000
      vertex  8.000000e+000  4.611233e+000  6.901198e+000
    endloop
  endfacet
  facet normal  0.000000e+000 -5.141025e-001 -8.577287e-001
    outer loop
      vertex  2.800000e+001  3.912593e+000  7.319946e+000
      vertex  8.000000e+000  4.611233e+000  6.901198e+000
      vertex  2.800000e+001  4.611233e+000  6.901198e+000
    endloop
  endfacet
  facet normal  -0.000000e+000 -5.956994e-001 -8.032074e-001
    outer loop
      vertex  2.800000e+001  4.611233e+000  6.901198e+000
      vertex  8.000000e+000  4.611233e+000  6.901198e+000
      vertex  8.000000e+000  5.265464e+000  6.415987e+000
    endloop
  endfacet
  facet normal  0.000000e+000 -5.956994e-001 -8.032074e-001
    outer loop
      vertex  2.800000e+001  4.611233e+000  6.901198e+000
      vertex  8.000000e+000  5.265464e+000  6.415987e+000
      vertex  2.800000e+001  5.265464e+000  6.415987e+000
    endloop
  endfacet
  facet normal  -0.000000e+000 -6.715590e-001 -7.409511e-001
    outer loop
      vertex  2.800000e+001  5.265464e+000  6.415987e+000
      vertex  8.000000e+000  5.265464e+000  6.415987e+000
      vertex  8.000000e+000  5.868986e+000  5.868986e+000
    endloop
  endfacet
  facet normal  0.000000e+000 -6.715590e-001 -7.409511e-001
    outer loop
      vertex  2.800000e+001  5.265464e+000  6.415987e+000
      vertex  8.000000e+000  5.868986e+000  5.868986e+000
      vertex  2.800000e+001  5.868986e+000  5.868986e+000
    endloop
  endfacet
  facet normal  -0.000000e+000 -7.409511e-001 -6.715590e-001
    outer loop
      vertex  2.800000e+001  5.868986e+000  5.868986e+000
      vertex  8.000000e+000  5.868986e+000  5.868986e+000
      vertex  8.000000e+000  6.415987e+000  5.265464e+000
    endloop
  endfacet
  facet normal  0.000000e+000 -7.409511e-001 -6.715590e-001
    outer loop
      vertex  2.800000e+001  5.868986e+000  5.868986e+000
      vertex  8.000000e+000  6.415987e+000  5.265464e+000
      vertex  2.800000e+001  6.415987e+000  5.265464e+000
    endloop
  endfacet
  facet normal  -0.000000e+000 -8.032074e-001 -5.956994e-001
    outer loop
      vertex  2.800000e+001  6.415987e+000  5.265464e+000
      vertex  8.000000e+000  6.415987e+000  5.265464e+000
      vertex  8.000000e+000  6.901198e+000  4.611233e+000
    endloop
  endfacet
  facet normal  0.000000e+000 -8.032074e-001 -5.956994e-001
    outer loop
      vertex  2.800000e+001  6.415987e+000  5.265464e+000
      vertex  8.000000e+000  6.901198e+000  4.611233e+000
      vertex  2.800000e+001  6.901198e+000  4.611233e+000
    endloop
  endfacet
  facet normal  -0.000000e+000 -8.577287e-001 -5.141025e-001
    outer loop
      vertex  2.800000e+001  6.901198e+000  4.611233e+000
      vertex  8.000000e+000  6.901198e+000  4.611233e+000
      vertex  8.000000e+000  7.319946e+000  3.912593e+000
    endloop
  endfacet
  facet normal  0.000000e+000 -8.577287e-001 -5.141025e-001
    outer loop
      vertex  2.800000e+001  6.901198e+000  4.611233e+000
      vertex  8.000000e+000  7.319946e+000  3.912593e+000
      vertex  2.800000e+001  7.319946e+000  3.912593e+000
    endloop
  endfacet
  facet normal  -0.000000e+000 -9.039893e-001 -4.275552e-001
    outer loop
      vertex  2.800000e+001  7.319946e+000  3.912593e+000
      vertex  8.000000e+000  7.319946e+000  3.912593e+000
      vertex  8.000000e+000  7.668200e+000  3.176272e+000
    endloop
  endfacet
  facet normal  0.000000e+000 -9.039893e-001 -4.275552e-001
    outer loop
      vertex  2.800000e+001  7.319946e+000  3.912593e+000
      vertex  8.000000e+000  7.668200e+000  3.176272e+000
      vertex  2.800000e+001  7.668200e+000  3.176272e+000
    endloop
  endfacet
  facet normal  -0.000000e+000 -9.415440e-001 -3.368903e-001
    outer loop
      vertex  2.800000e+001  7.668200e+000  3.176272e+000
      vertex  8.000000e+000  7.668200e+000  3.176272e+000
      vertex  8.000000e+000  7.942605e+000  2.409363e+000
    endloop
  endfacet
  facet normal  0.000000e+000 -9.415440e-001 -3.368903e-001
    outer loop
      vertex  2.800000e+001  7.668200e+000  3.176272e+000
      vertex  8.000000e+000  7.942605e+000  2.409363e+000
      vertex  2.800000e+001  7.942605e+000  2.409363e+000
    endloop
  endfacet
  facet normal  -0.000000e+000 -9.700313e-001 -2.429804e-001
    outer loop
      vertex  2.800000e+001  7.942605e+000  2.409363e+000
      vertex  8.000000e+000  7.942605e+000  2.409363e+000
      vertex  8.000000e+000  8.140518e+000  1.619250e+000
    endloop
  endfacet
  facet normal  0.000000e+000 -9.700313e-001 -2.429804e-001
    outer loop
      vertex  2.800000e+001  7.942605e+000  2.409363e+000
      vertex  8.000000e+000  8.140518e+000  1.619250e+000
      vertex  2.800000e+001  8.140518e+000  1.619250e+000
    endloop
  endfacet
  facet normal  -0.000000e+000 -9.891766e-001 -1.467305e-001
    outer loop
      vertex  2.800000e+001  8.140518e+000  1.619250e+000
      vertex  8.000000e+000  8.140518e+000  1.619250e+000
      vertex  8.000000e+000  8.260034e+000  8.135422e-001
    endloop
  endfacet
  facet normal  0.000000e+000 -9.891766e-001 -1.467305e-001
    outer loop
      vertex  2.800000e+001  8.140518e+000  1.619250e+000
      vertex  8.000000e+000  8.260034e+000  8.135422e-001
      vertex  2.800000e+001  8.260034e+000  8.135422e-001
    endloop
  endfacet
  facet normal  -0.000000e+000 -9.987954e-001 -4.906745e-002
    outer loop
      vertex  2.800000e+001  8.260034e+000  8.135422e-001
      vertex  8.000000e+000  8.260034e+000  8.135422e-001
      vertex  8.000000e+000  8.300000e+000  0.000000e+000
    endloop
  endfacet
  facet normal  0.000000e+000 -9.987954e-001 -4.906745e-002
    outer loop
      vertex  2.800000e+001  8.260034e+000  8.135422e-001
      vertex  8.000000e+000  8.300000e+000  0.000000e+000
      vertex  2.800000e+001  8.300000e+000  0.000000e+000
    endloop
  endfacet
  facet normal  9.999999e-001  0.000000e+000  0.000000e+000
    outer loop
      vertex  2.800000e+001 -8.135422e-001  8.260034e+000
      vertex  2.800000e+001  2.351199e-015  8.300000e+000
      vertex  2.800000e+001 -4.787041e+000  8.409698e+000
    endloop
  endfacet
  facet normal  9.999999e-001  -0.000000e+000  0.000000e+000
    outer loop
      vertex  2.800000e+001  4.787041e+000  8.409698e+000
      vertex  2.800000e+001  2.351199e-015  8.300000e+000
      vertex  2.800000e+001  8.135422e-001  8.260034e+000
    endloop
  endfacet
  facet normal  1.000000e+000  0.000000e+000  0.000000e+000
    outer loop
      vertex  2.800000e+001  5.395288e+000  7.906849e+000
      vertex  2.800000e+001  4.787041e+000  8.409698e+000
      vertex  2.800000e+001  8.135422e-001  8.260034e+000
    endloop
  endfacet
  facet normal  1.000000e+000  0.000000e+000  0.000000e+000
    outer loop
      vertex  2.800000e+001  5.395288e+000  7.906849e+000
      vertex  2.800000e+001  8.135422e-001  8.260034e+000
      vertex  2.800000e+001  1.619250e+000  8.140518e+000
    endloop
  endfacet
  facet normal  1.000000e+000  0.000000e+000  0.000000e+000
    outer loop
      vertex  2.800000e+001  5.395288e+000  7.906849e+000
      vertex  2.800000e+001  1.619250e+000  8.140518e+000
      vertex  2.800000e+001  2.409363e+000  7.942605e+000
    endloop
  endfacet
  facet normal  1.000000e+000  0.000000e+000  0.000000e+000
    outer loop
      vertex  2.800000e+001  5.395288e+000  7.906849e+000
      vertex  2.800000e+001  2.409363e+000  7.942605e+000
      vertex  2.800000e+001  3.176272e+000  7.668200e+000
    endloop
  endfacet
  facet normal  1.000000e+000  -0.000000e+000  0.000000e+000
    outer loop
      vertex  2.800000e+001  5.395288e+000  7.906849e+000
      vertex  2.800000e+001  3.176272e+000  7.668200e+000
      vertex  2.800000e+001  3.912593e+000  7.319946e+000
    endloop
  endfacet
  facet normal  1.000000e+000  -0.000000e+000  0.000000e+000
    outer loop
      vertex  2.800000e+001  5.395288e+000  7.906849e+000
      vertex  2.800000e+001  3.912593e+000  7.319946e+000
      vertex  2.800000e+001  4.611233e+000  6.901198e+000
    endloop
  endfacet
  facet normal  1.000000e+000  -0.000000e+000  0.000000e+000
    outer loop
      vertex  2.800000e+001  5.395288e+000  7.906849e+000
      vertex  2.800000e+001  4.611233e+000  6.901198e+000
      vertex  2.800000e+001  5.265464e+000  6.415987e+000
    endloop
  endfacet
  facet normal  1.000000e+000  -0.000000e+000  0.000000e+000
    outer loop
      vertex  2.800000e+001  5.395288e+000  7.906849e+000
      vertex  2.800000e+001  5.265464e+000  6.415987e+000
      vertex  2.800000e+001  2.281037e+001 -8.000000e+000
    endloop
  endfacet
  facet normal  1.000000e+000  0.000000e+000  -0.000000e+000
    outer loop
      vertex  2.800000e+001 -2.281037e+001 -8.000000e+000
      vertex  2.800000e+001 -8.300000e+000 -8.000000e+000
      vertex  2.800000e+001 -8.300000e+000  0.000000e+000
    endloop
  endfacet
  facet normal  1.000000e+000  0.000000e+000  -0.000000e+000
    outer loop
      vertex  2.800000e+001 -2.281037e+001 -8.000000e+000
      vertex  2.800000e+001 -8.300000e+000  0.000000e+000
      vertex  2.800000e+001 -8.260034e+000  8.135422e-001
    endloop
  endfacet
  facet normal  9.999999e-001  0.000000e+000  -0.000000e+000
    outer loop
      vertex  2.800000e+001 -2.281037e+001 -8.000000e+000
      vertex  2.800000e+001 -8.260034e+000  8.135422e-001
      vertex  2.800000e+001 -8.140518e+000  1.619250e+000
    endloop
  endfacet
  facet normal  1.000000e+000  0.000000e+000  -0.000000e+000
    outer loop
      vertex  2.800000e+001 -2.281037e+001 -8.000000e+000
      vertex  2.800000e+001 -8.140518e+000  1.619250e+000
      vertex  2.800000e+001 -7.942605e+000  2.409363e+000
    endloop
  endfacet
  facet normal  1.000000e+000  0.000000e+000  -0.000000e+000
    outer loop
      vertex  2.800000e+001 -2.281037e+001 -8.000000e+000
      vertex  2.800000e+001 -7.942605e+000  2.409363e+000
      vertex  2.800000e+001 -7.668200e+000  3.176272e+000
    endloop
  endfacet
  facet normal  1.000000e+000  0.000000e+000  -0.000000e+000
    outer loop
      vertex  2.800000e+001 -2.281037e+001 -8.000000e+000
      vertex  2.800000e+001 -7.668200e+000  3.176272e+000
      vertex  2.800000e+001 -7.319946e+000  3.912593e+000
    endloop
  endfacet
  facet normal  1.000000e+000  0.000000e+000  -0.000000e+000
    outer loop
      vertex  2.800000e+001 -2.281037e+001 -8.000000e+000
      vertex  2.800000e+001 -7.319946e+000  3.912593e+000
      vertex  2.800000e+001 -6.901198e+000  4.611233e+000
    endloop
  endfacet
  facet normal  1.000000e+000  0.000000e+000  -0.000000e+000
    outer loop
      vertex  2.800000e+001 -2.281037e+001 -8.000000e+000
      vertex  2.800000e+001 -6.901198e+000  4.611233e+000
      vertex  2.800000e+001 -6.415987e+000  5.265464e+000
    endloop
  endfacet
  facet normal  1.000000e+000  0.000000e+000  -0.000000e+000
    outer loop
      vertex  2.800000e+001 -2.281037e+001 -8.000000e+000
      vertex  2.800000e+001 -6.415987e+000  5.265464e+000
      vertex  2.800000e+001 -5.868986e+000  5.868986e+000
    endloop
  endfacet
  facet normal  1.000000e+000  0.000000e+000  -0.000000e+000
    outer loop
      vertex  2.800000e+001 -2.281037e+001 -8.000000e+000
      vertex  2.800000e+001 -5.868986e+000  5.868986e+000
      vertex  2.800000e+001 -5.265464e+000  6.415987e+000
    endloop
  endfacet
  facet normal  1.000000e+000  0.000000e+000  0.000000e+000
    outer loop
      vertex  2.800000e+001 -5.395288e+000  7.906849e+000
      vertex  2.800000e+001 -2.281037e+001 -8.000000e+000
      vertex  2.800000e+001 -5.265464e+000  6.415987e+000
    endloop
  endfacet
  facet normal  1.000000e+000  0.000000e+000  -0.000000e+000
    outer loop
      vertex  2.800000e+001 -5.395288e+000  7.906849e+000
      vertex  2.800000e+001 -5.265464e+000  6.415987e+000
      vertex  2.800000e+001 -4.611233e+000  6.901198e+000
    endloop
  endfacet
  facet normal  1.000000e+000  0.000000e+000  -0.000000e+000
    outer loop
      vertex  2.800000e+001 -5.395288e+000  7.906849e+000
      vertex  2.800000e+001 -4.611233e+000  6.901198e+000
      vertex  2.800000e+001 -3.912593e+000  7.319946e+000
    endloop
  endfacet
  facet normal  1.000000e+000  0.000000e+000  -0.000000e+000
    outer loop
      vertex  2.800000e+001 -5.395288e+000  7.906849e+000
      vertex  2.800000e+001 -3.912593e+000  7.319946e+000
      vertex  2.800000e+001 -3.176272e+000  7.668200e+000
    endloop
  endfacet
  facet normal  1.000000e+000  0.000000e+000  -0.000000e+000
    outer loop
      vertex  2.800000e+001 -5.395288e+000  7.906849e+000
      vertex  2.800000e+001 -3.176272e+000  7.668200e+000
      vertex  2.800000e+001 -2.409363e+000  7.942605e+000
    endloop
  endfacet
  facet normal  1.000000e+000  0.000000e+000  -0.000000e+000
    outer loop
      vertex  2.800000e+001 -5.395288e+000  7.906849e+000
      vertex  2.800000e+001 -2.409363e+000  7.942605e+000
      vertex  2.800000e+001 -1.619250e+000  8.140518e+000
    endloop
  endfacet
  facet normal  1.000000e+000  0.000000e+000  -0.000000e+000
    outer loop
      vertex  2.800000e+001 -5.395288e+000  7.906849e+000
      vertex  2.800000e+001 -1.619250e+000  8.140518e+000
      vertex  2.800000e+001 -8.135422e-001  8.260034e+000
    endloop
  endfacet
  facet normal  1.000000e+000  0.000000e+000  0.000000e+000
    outer loop
      vertex  2.800000e+001 -5.395288e+000  7.906849e+000
      vertex  2.800000e+001 -8.135422e-001  8.260034e+000
      vertex  2.800000e+001 -4.787041e+000  8.409698e+000
    endloop
  endfacet
  facet normal  9.999999e-001  0.000000e+000  0.000000e+000
    outer loop
      vertex  2.800000e+001  2.281037e+001 -8.000000e+000
      vertex  2.800000e+001  5.265464e+000  6.415987e+000
      vertex  2.800000e+001  5.868986e+000  5.868986e+000
    endloop
  endfacet
  facet normal  1.000000e+000  0.000000e+000  0.000000e+000
    outer loop
      vertex  2.800000e+001  2.281037e+001 -8.000000e+000
      vertex  2.800000e+001  5.868986e+000  5.868986e+000
      vertex  2.800000e+001  6.415987e+000  5.265464e+000
    endloop
  endfacet
  facet normal  1.000000e+000  0.000000e+000  0.000000e+000
    outer loop
      vertex  2.800000e+001  2.281037e+001 -8.000000e+000
      vertex  2.800000e+001  6.415987e+000  5.265464e+000
      vertex  2.800000e+001  6.901198e+000  4.611233e+000
    endloop
  endfacet
  facet normal  1.000000e+000  0.000000e+000  0.000000e+000
    outer loop
      vertex  2.800000e+001  2.281037e+001 -8.000000e+000
      vertex  2.800000e+001  6.901198e+000  4.611233e+000
      vertex  2.800000e+001  7.319946e+000  3.912593e+000
    endloop
  endfacet
  facet normal  1.000000e+000  0.000000e+000  0.000000e+000
    outer loop
      vertex  2.800000e+001  2.281037e+001 -8.000000e+000
      vertex  2.800000e+001  7.319946e+000  3.912593e+000
      vertex  2.800000e+001  7.668200e+000  3.176272e+000
    endloop
  endfacet
  facet normal  1.000000e+000  0.000000e+000  0.000000e+000
    outer loop
      vertex  2.800000e+001  2.281037e+001 -8.000000e+000
      vertex  2.800000e+001  7.668200e+000  3.176272e+000
      vertex  2.800000e+001  7.942605e+000  2.409363e+000
    endloop
  endfacet
  facet normal  1.000000e+000  0.000000e+000  0.000000e+000
    outer loop
      vertex  2.800000e+001  2.281037e+001 -8.000000e+000
      vertex  2.800000e+001  7.942605e+000  2.409363e+000
      vertex  2.800000e+001  8.140518e+000  1.619250e+000
    endloop
  endfacet
  facet normal  9.999999e-001  0.000000e+000  0.000000e+000
    outer loop
      vertex  2.800000e+001  2.281037e+001 -8.000000e+000
      vertex  2.800000e+001  8.140518e+000  1.619250e+000
      vertex  2.800000e+001  8.260034e+000  8.135422e-001
    endloop
  endfacet
  facet normal  1.000000e+000  0.000000e+000  0.000000e+000
    outer loop
      vertex  2.800000e+001  2.281037e+001 -8.000000e+000
      vertex  2.800000e+001  8.260034e+000  8.135422e-001
      vertex  2.800000e+001  8.300000e+000  0.000000e+000
    endloop
  endfacet
  facet normal  1.000000e+000  0.000000e+000  0.000000e+000
    outer loop
      vertex  2.800000e+001  2.281037e+001 -8.000000e+000
      vertex  2.800000e+001  8.300000e+000  0.000000e+000
      vertex  2.800000e+001  8.300000e+000 -8.000000e+000
    endloop
  endfacet
  facet normal  1.000000e+000  -0.000000e+000  0.000000e+000
    outer loop
      vertex  2.800000e+001  3.945954e-001  9.990262e+000
      vertex  2.800000e+001 -3.945954e-001  9.990262e+000
      vertex  2.800000e+001  1.179946e+000  9.912504e+000
    endloop
  endfacet
  facet normal  1.000000e+000  0.000000e+000  0.000000e+000
    outer loop
      vertex  2.800000e+001  1.179946e+000  9.912504e+000
      vertex  2.800000e+001 -3.945954e-001  9.990262e+000
      vertex  2.800000e+001 -1.179946e+000  9.912504e+000
    endloop
  endfacet
  facet normal  1.000000e+000  -0.000000e+000  0.000000e+000
    outer loop
      vertex  2.800000e+001  1.179946e+000  9.912504e+000
      vertex  2.800000e+001 -1.179946e+000  9.912504e+000
      vertex  2.800000e+001  1.953814e+000  9.757745e+000
    endloop
  endfacet
  facet normal  1.000000e+000  0.000000e+000  0.000000e+000
    outer loop
      vertex  2.800000e+001  1.953814e+000  9.757745e+000
      vertex  2.800000e+001 -1.179946e+000  9.912504e+000
      vertex  2.800000e+001 -1.953814e+000  9.757745e+000
    endloop
  endfacet
  facet normal  9.999999e-001  -0.000000e+000  0.000000e+000
    outer loop
      vertex  2.800000e+001  1.953814e+000  9.757745e+000
      vertex  2.800000e+001 -1.953814e+000  9.757745e+000
      vertex  2.800000e+001  2.708668e+000  9.527491e+000
    endloop
  endfacet
  facet normal  1.000000e+000  0.000000e+000  0.000000e+000
    outer loop
      vertex  2.800000e+001  2.708668e+000  9.527491e+000
      vertex  2.800000e+001 -1.953814e+000  9.757745e+000
      vertex  2.800000e+001 -2.708668e+000  9.527491e+000
    endloop
  endfacet
  facet normal  1.000000e+000  -0.000000e+000  0.000000e+000
    outer loop
      vertex  2.800000e+001  2.708668e+000  9.527491e+000
      vertex  2.800000e+001 -2.708668e+000  9.527491e+000
      vertex  2.800000e+001  3.437163e+000  9.223982e+000
    endloop
  endfacet
  facet normal  1.000000e+000  0.000000e+000  0.000000e+000
    outer loop
      vertex  2.800000e+001  3.437163e+000  9.223982e+000
      vertex  2.800000e+001 -2.708668e+000  9.527491e+000
      vertex  2.800000e+001 -3.437163e+000  9.223982e+000
    endloop
  endfacet
  facet normal  1.000000e+000  -0.000000e+000  0.000000e+000
    outer loop
      vertex  2.800000e+001  3.437163e+000  9.223982e+000
      vertex  2.800000e+001 -3.437163e+000  9.223982e+000
      vertex  2.800000e+001  4.132208e+000  8.850172e+000
    endloop
  endfacet
  facet normal  1.000000e+000  0.000000e+000  0.000000e+000
    outer loop
      vertex  2.800000e+001  4.132208e+000  8.850172e+000
      vertex  2.800000e+001 -3.437163e+000  9.223982e+000
      vertex  2.800000e+001 -4.132208e+000  8.850172e+000
    endloop
  endfacet
  facet normal  9.999999e-001  -0.000000e+000  0.000000e+000
    outer loop
      vertex  2.800000e+001  4.132208e+000  8.850172e+000
      vertex  2.800000e+001 -4.132208e+000  8.850172e+000
      vertex  2.800000e+001  4.787041e+000  8.409698e+000
    endloop
  endfacet
  facet normal  1.000000e+000  0.000000e+000  0.000000e+000
    outer loop
      vertex  2.800000e+001  4.787041e+000  8.409698e+000
      vertex  2.800000e+001 -4.132208e+000  8.850172e+000
      vertex  2.800000e+001 -4.787041e+000  8.409698e+000
    endloop
  endfacet
  facet normal  1.000000e+000  -0.000000e+000  0.000000e+000
    outer loop
      vertex  2.800000e+001  4.787041e+000  8.409698e+000
      vertex  2.800000e+001 -4.787041e+000  8.409698e+000
      vertex  2.800000e+001  2.351199e-015  8.300000e+000
    endloop
  endfacet
  facet normal -9.999999e-001  -0.000000e+000  0.000000e+000
    outer loop
      vertex  8.000000e+000 -4.787041e+000  8.409698e+000
      vertex  8.000000e+000  2.351199e-015  8.300000e+000
      vertex  8.000000e+000 -8.135422e-001  8.260034e+000
    endloop
  endfacet
  facet normal -9.999999e-001  0.000000e+000  0.000000e+000
    outer loop
      vertex  8.000000e+000  8.135422e-001  8.260034e+000
      vertex  8.000000e+000  2.351199e-015  8.300000e+000
      vertex  8.000000e+000  4.787041e+000  8.409698e+000
    endloop
  endfacet
  facet normal -1.000000e+000  0.000000e+000  0.000000e+000
    outer loop
      vertex  8.000000e+000  5.395288e+000  7.906849e+000
      vertex  8.000000e+000  2.281037e+001 -8.000000e+000
      vertex  8.000000e+000  5.265464e+000  6.415987e+000
    endloop
  endfacet
  facet normal -1.000000e+000  0.000000e+000  0.000000e+000
    outer loop
      vertex  8.000000e+000  5.395288e+000  7.906849e+000
      vertex  8.000000e+000  5.265464e+000  6.415987e+000
      vertex  8.000000e+000  4.611233e+000  6.901198e+000
    endloop
  endfacet
  facet normal -1.000000e+000  0.000000e+000  0.000000e+000
    outer loop
      vertex  8.000000e+000  5.395288e+000  7.906849e+000
      vertex  8.000000e+000  4.611233e+000  6.901198e+000
      vertex  8.000000e+000  3.912593e+000  7.319946e+000
    endloop
  endfacet
  facet normal -1.000000e+000  0.000000e+000  0.000000e+000
    outer loop
      vertex  8.000000e+000  5.395288e+000  7.906849e+000
      vertex  8.000000e+000  3.912593e+000  7.319946e+000
      vertex  8.000000e+000  3.176272e+000  7.668200e+000
    endloop
  endfacet
  facet normal -1.000000e+000  0.000000e+000  0.000000e+000
    outer loop
      vertex  8.000000e+000  5.395288e+000  7.906849e+000
      vertex  8.000000e+000  3.176272e+000  7.668200e+000
      vertex  8.000000e+000  2.409363e+000  7.942605e+000
    endloop
  endfacet
  facet normal -1.000000e+000  0.000000e+000  0.000000e+000
    outer loop
      vertex  8.000000e+000  5.395288e+000  7.906849e+000
      vertex  8.000000e+000  2.409363e+000  7.942605e+000
      vertex  8.000000e+000  1.619250e+000  8.140518e+000
    endloop
  endfacet
  facet normal -1.000000e+000  0.000000e+000  0.000000e+000
    outer loop
      vertex  8.000000e+000  5.395288e+000  7.906849e+000
      vertex  8.000000e+000  1.619250e+000  8.140518e+000
      vertex  8.000000e+000  8.135422e-001  8.260034e+000
    endloop
  endfacet
  facet normal -1.000000e+000  0.000000e+000  0.000000e+000
    outer loop
      vertex  8.000000e+000  5.395288e+000  7.906849e+000
      vertex  8.000000e+000  8.135422e-001  8.260034e+000
      vertex  8.000000e+000  4.787041e+000  8.409698e+000
    endloop
  endfacet
  facet normal -9.999999e-001  0.000000e+000  0.000000e+000
    outer loop
      vertex  8.000000e+000 -2.281037e+001 -8.000000e+000
      vertex  8.000000e+000 -5.265464e+000  6.415987e+000
      vertex  8.000000e+000 -5.868986e+000  5.868986e+000
    endloop
  endfacet
  facet normal -1.000000e+000  0.000000e+000  0.000000e+000
    outer loop
      vertex  8.000000e+000 -2.281037e+001 -8.000000e+000
      vertex  8.000000e+000 -5.868986e+000  5.868986e+000
      vertex  8.000000e+000 -6.415987e+000  5.265464e+000
    endloop
  endfacet
  facet normal -1.000000e+000  0.000000e+000  0.000000e+000
    outer loop
      vertex  8.000000e+000 -2.281037e+001 -8.000000e+000
      vertex  8.000000e+000 -6.415987e+000  5.265464e+000
      vertex  8.000000e+000 -6.901198e+000  4.611233e+000
    endloop
  endfacet
  facet normal -1.000000e+000  0.000000e+000  0.000000e+000
    outer loop
      vertex  8.000000e+000 -2.281037e+001 -8.000000e+000
      vertex  8.000000e+000 -6.901198e+000  4.611233e+000
      vertex  8.000000e+000 -7.319946e+000  3.912593e+000
    endloop
  endfacet
  facet normal -1.000000e+000  0.000000e+000  0.000000e+000
    outer loop
      vertex  8.000000e+000 -2.281037e+001 -8.000000e+000
      vertex  8.000000e+000 -7.319946e+000  3.912593e+000
      vertex  8.000000e+000 -7.668200e+000  3.176272e+000
    endloop
  endfacet
  facet normal -1.000000e+000  0.000000e+000  0.000000e+000
    outer loop
      vertex  8.000000e+000 -2.281037e+001 -8.000000e+000
      vertex  8.000000e+000 -7.668200e+000  3.176272e+000
      vertex  8.000000e+000 -7.942605e+000  2.409363e+000
    endloop
  endfacet
  facet normal -1.000000e+000  0.000000e+000  0.000000e+000
    outer loop
      vertex  8.000000e+000 -2.281037e+001 -8.000000e+000
      vertex  8.000000e+000 -7.942605e+000  2.409363e+000
      vertex  8.000000e+000 -8.140518e+000  1.619250e+000
    endloop
  endfacet
  facet normal -9.999999e-001  0.000000e+000  0.000000e+000
    outer loop
      vertex  8.000000e+000 -2.281037e+001 -8.000000e+000
      vertex  8.000000e+000 -8.140518e+000  1.619250e+000
      vertex  8.000000e+000 -8.260034e+000  8.135422e-001
    endloop
  endfacet
  facet normal -1.000000e+000  0.000000e+000  0.000000e+000
    outer loop
      vertex  8.000000e+000 -2.281037e+001 -8.000000e+000
      vertex  8.000000e+000 -8.260034e+000  8.135422e-001
      vertex  8.000000e+000 -8.300000e+000  0.000000e+000
    endloop
  endfacet
  facet normal -1.000000e+000  0.000000e+000  -0.000000e+000
    outer loop
      vertex  8.000000e+000 -2.281037e+001 -8.000000e+000
      vertex  8.000000e+000 -8.300000e+000  0.000000e+000
      vertex  8.000000e+000 -8.300000e+000 -8.000000e+000
    endloop
  endfacet
  facet normal -1.000000e+000  0.000000e+000  -0.000000e+000
    outer loop
      vertex  8.000000e+000 -5.395288e+000  7.906849e+000
      vertex  8.000000e+000 -4.787041e+000  8.409698e+000
      vertex  8.000000e+000 -8.135422e-001  8.260034e+000
    endloop
  endfacet
  facet normal -1.000000e+000  0.000000e+000  0.000000e+000
    outer loop
      vertex  8.000000e+000 -5.395288e+000  7.906849e+000
      vertex  8.000000e+000 -8.135422e-001  8.260034e+000
      vertex  8.000000e+000 -1.619250e+000  8.140518e+000
    endloop
  endfacet
  facet normal -1.000000e+000  0.000000e+000  0.000000e+000
    outer loop
      vertex  8.000000e+000 -5.395288e+000  7.906849e+000
      vertex  8.000000e+000 -1.619250e+000  8.140518e+000
      vertex  8.000000e+000 -2.409363e+000  7.942605e+000
    endloop
  endfacet
  facet normal -1.000000e+000  0.000000e+000  0.000000e+000
    outer loop
      vertex  8.000000e+000 -5.395288e+000  7.906849e+000
      vertex  8.000000e+000 -2.409363e+000  7.942605e+000
      vertex  8.000000e+000 -3.176272e+000  7.668200e+000
    endloop
  endfacet
  facet normal -1.000000e+000  -0.000000e+000  0.000000e+000
    outer loop
      vertex  8.000000e+000 -5.395288e+000  7.906849e+000
      vertex  8.000000e+000 -3.176272e+000  7.668200e+000
      vertex  8.000000e+000 -3.912593e+000  7.319946e+000
    endloop
  endfacet
  facet normal -1.000000e+000  -0.000000e+000  0.000000e+000
    outer loop
      vertex  8.000000e+000 -5.395288e+000  7.906849e+000
      vertex  8.000000e+000 -3.912593e+000  7.319946e+000
      vertex  8.000000e+000 -4.611233e+000  6.901198e+000
    endloop
  endfacet
  facet normal -1.000000e+000  -0.000000e+000  0.000000e+000
    outer loop
      vertex  8.000000e+000 -5.395288e+000  7.906849e+000
      vertex  8.000000e+000 -4.611233e+000  6.901198e+000
      vertex  8.000000e+000 -5.265464e+000  6.415987e+000
    endloop
  endfacet
  facet normal -1.000000e+000  -0.000000e+000  0.000000e+000
    outer loop
      vertex  8.000000e+000 -5.395288e+000  7.906849e+000
      vertex  8.000000e+000 -5.265464e+000  6.415987e+000
      vertex  8.000000e+000 -2.281037e+001 -8.000000e+000
    endloop
  endfacet
  facet normal -1.000000e+000  0.000000e+000  0.000000e+000
    outer loop
      vertex  8.000000e+000  2.281037e+001 -8.000000e+000
      vertex  8.000000e+000  8.300000e+000 -8.000000e+000
      vertex  8.000000e+000  8.300000e+000  0.000000e+000
    endloop
  endfacet
  facet normal -1.000000e+000  0.000000e+000  0.000000e+000
    outer loop
      vertex  8.000000e+000  2.281037e+001 -8.000000e+000
      vertex  8.000000e+000  8.300000e+000  0.000000e+000
      vertex  8.000000e+000  8.260034e+000  8.135422e-001
    endloop
  endfacet
  facet normal -9.999999e-001  0.000000e+000  0.000000e+000
    outer loop
      vertex  8.000000e+000  2.281037e+001 -8.000000e+000
      vertex  8.000000e+000  8.260034e+000  8.135422e-001
      vertex  8.000000e+000  8.140518e+000  1.619250e+000
    endloop
  endfacet
  facet normal -1.000000e+000  0.000000e+000  0.000000e+000
    outer loop
      vertex  8.000000e+000  2.281037e+001 -8.000000e+000
      vertex  8.000000e+000  8.140518e+000  1.619250e+000
      vertex  8.000000e+000  7.942605e+000  2.409363e+000
    endloop
  endfacet
  facet normal -1.000000e+000  0.000000e+000  0.000000e+000
    outer loop
      vertex  8.000000e+000  2.281037e+001 -8.000000e+000
      vertex  8.000000e+000  7.942605e+000  2.409363e+000
      vertex  8.000000e+000  7.668200e+000  3.176272e+000
    endloop
  endfacet
  facet normal -1.000000e+000  0.000000e+000  0.000000e+000
    outer loop
      vertex  8.000000e+000  2.281037e+001 -8.000000e+000
      vertex  8.000000e+000  7.668200e+000  3.176272e+000
      vertex  8.000000e+000  7.319946e+000  3.912593e+000
    endloop
  endfacet
  facet normal -1.000000e+000  0.000000e+000  0.000000e+000
    outer loop
      vertex  8.000000e+000  2.281037e+001 -8.000000e+000
      vertex  8.000000e+000  7.319946e+000  3.912593e+000
      vertex  8.000000e+000  6.901198e+000  4.611233e+000
    endloop
  endfacet
  facet normal -1.000000e+000  0.000000e+000  0.000000e+000
    outer loop
      vertex  8.000000e+000  2.281037e+001 -8.000000e+000
      vertex  8.000000e+000  6.901198e+000  4.611233e+000
      vertex  8.000000e+000  6.415987e+000  5.265464e+000
    endloop
  endfacet
  facet normal -1.000000e+000  0.000000e+000  0.000000e+000
    outer loop
      vertex  8.000000e+000  2.281037e+001 -8.000000e+000
      vertex  8.000000e+000  6.415987e+000  5.265464e+000
      vertex  8.000000e+000  5.868986e+000  5.868986e+000
    endloop
  endfacet
  facet normal -1.000000e+000  0.000000e+000  0.000000e+000
    outer loop
      vertex  8.000000e+000  2.281037e+001 -8.000000e+000
      vertex  8.000000e+000  5.868986e+000  5.868986e+000
      vertex  8.000000e+000  5.265464e+000  6.415987e+000
    endloop
  endfacet
  facet normal -1.000000e+000  0.000000e+000  0.000000e+000
    outer loop
      vertex  8.000000e+000  2.351199e-015  8.300000e+000
      vertex  8.000000e+000 -4.787041e+000  8.409698e+000
      vertex  8.000000e+000  4.787041e+000  8.409698e+000
    endloop
  endfacet
  facet normal -1.000000e+000  0.000000e+000  0.000000e+000
    outer loop
      vertex  8.000000e+000  4.787041e+000  8.409698e+000
      vertex  8.000000e+000 -4.787041e+000  8.409698e+000
      vertex  8.000000e+000 -4.132208e+000  8.850172e+000
    endloop
  endfacet
  facet normal -9.999999e-001  0.000000e+000  0.000000e+000
    outer loop
      vertex  8.000000e+000  4.787041e+000  8.409698e+000
      vertex  8.000000e+000 -4.132208e+000  8.850172e+000
      vertex  8.000000e+000  4.132208e+000  8.850172e+000
    endloop
  endfacet
  facet normal -1.000000e+000  0.000000e+000  0.000000e+000
    outer loop
      vertex  8.000000e+000  4.132208e+000  8.850172e+000
      vertex  8.000000e+000 -4.132208e+000  8.850172e+000
      vertex  8.000000e+000 -3.437163e+000  9.223982e+000
    endloop
  endfacet
  facet normal -1.000000e+000  0.000000e+000  0.000000e+000
    outer loop
      vertex  8.000000e+000  4.132208e+000  8.850172e+000
      vertex  8.000000e+000 -3.437163e+000  9.223982e+000
      vertex  8.000000e+000  3.437163e+000  9.223982e+000
    endloop
  endfacet
  facet normal -1.000000e+000  0.000000e+000  0.000000e+000
    outer loop
      vertex  8.000000e+000  3.437163e+000  9.223982e+000
      vertex  8.000000e+000 -3.437163e+000  9.223982e+000
      vertex  8.000000e+000 -2.708668e+000  9.527491e+000
    endloop
  endfacet
  facet normal -1.000000e+000  0.000000e+000  0.000000e+000
    outer loop
      vertex  8.000000e+000  3.437163e+000  9.223982e+000
      vertex  8.000000e+000 -2.708668e+000  9.527491e+000
      vertex  8.000000e+000  2.708668e+000  9.527491e+000
    endloop
  endfacet
  facet normal -1.000000e+000  0.000000e+000  0.000000e+000
    outer loop
      vertex  8.000000e+000  2.708668e+000  9.527491e+000
      vertex  8.000000e+000 -2.708668e+000  9.527491e+000
      vertex  8.000000e+000 -1.953814e+000  9.757745e+000
    endloop
  endfacet
  facet normal -9.999999e-001  0.000000e+000  0.000000e+000
    outer loop
      vertex  8.000000e+000  2.708668e+000  9.527491e+000
      vertex  8.000000e+000 -1.953814e+000  9.757745e+000
      vertex  8.000000e+000  1.953814e+000  9.757745e+000
    endloop
  endfacet
  facet normal -1.000000e+000  0.000000e+000  0.000000e+000
    outer loop
      vertex  8.000000e+000  1.953814e+000  9.757745e+000
      vertex  8.000000e+000 -1.953814e+000  9.757745e+000
      vertex  8.000000e+000 -1.179946e+000  9.912504e+000
    endloop
  endfacet
  facet normal -1.000000e+000  0.000000e+000  0.000000e+000
    outer loop
      vertex  8.000000e+000  1.953814e+000  9.757745e+000
      vertex  8.000000e+000 -1.179946e+000  9.912504e+000
      vertex  8.000000e+000  1.179946e+000  9.912504e+000
    endloop
  endfacet
  facet normal -1.000000e+000  0.000000e+000  0.000000e+000
    outer loop
      vertex  8.000000e+000  1.179946e+000  9.912504e+000
      vertex  8.000000e+000 -1.179946e+000  9.912504e+000
      vertex  8.000000e+000 -3.945954e-001  9.990262e+000
    endloop
  endfacet
  facet normal -1.000000e+000  0.000000e+000  0.000000e+000
    outer loop
      vertex  8.000000e+000  1.179946e+000  9.912504e+000
      vertex  8.000000e+000 -3.945954e-001  9.990262e+000
      vertex  8.000000e+000  3.945954e-001  9.990262e+000
    endloop
  endfacet
  facet normal  0.000000e+000 -1.000000e+000  0.000000e+000
    outer loop
      vertex  8.000000e+000  8.300000e+000 -8.000000e+000
      vertex  2.800000e+001  8.300000e+000 -8.000000e+000
      vertex  8.000000e+000  8.300000e+000  0.000000e+000
    endloop
  endfacet
  facet normal  0.000000e+000 -1.000000e+000  0.000000e+000
    outer loop
      vertex  8.000000e+000  8.300000e+000  0.000000e+000
      vertex  2.800000e+001  8.300000e+000 -8.000000e+000
      vertex  2.800000e+001  8.300000e+000  0.000000e+000
    endloop
  endfacet
  facet normal  0.000000e+000  1.000000e+000  0.000000e+000
    outer loop
      vertex  8.000000e+000 -8.300000e+000 -8.000000e+000
      vertex  8.000000e+000 -8.300000e+000  0.000000e+000
      vertex  2.800000e+001 -8.300000e+000 -8.000000e+000
    endloop
  endfacet
  facet normal  0.000000e+000  1.000000e+000  -0.000000e+000
    outer loop
      vertex  2.800000e+001 -8.300000e+000 -8.000000e+000
      vertex  8.000000e+000 -8.300000e+000  0.000000e+000
      vertex  2.800000e+001 -8.300000e+000  0.000000e+000
    endloop
  endfacet
  facet normal  0.000000e+000  0.000000e+000 -1.000000e+000
    outer loop
      vertex  8.000000e+000 -2.281037e+001 -8.000000e+000
      vertex  8.000000e+000 -8.300000e+000 -8.000000e+000
      vertex  2.800000e+001 -2.281037e+001 -8.000000e+000
    endloop
  endfacet
  facet normal  0.000000e+000  0.000000e+000 -1.000000e+000
    outer loop
      vertex  2.800000e+001 -2.281037e+001 -8.000000e+000
      vertex  8.000000e+000 -8.300000e+000 -8.000000e+000
      vertex  2.800000e+001 -8.300000e+000 -8.000000e+000
    endloop
  endfacet
  facet normal  0.000000e+000  0.000000e+000 -1.000000e+000
    outer loop
      vertex  8.000000e+000  8.300000e+000 -8.000000e+000
      vertex  8.000000e+000  2.281037e+001 -8.000000e+000
      vertex  2.800000e+001  8.300000e+000 -8.000000e+000
    endloop
  endfacet
  facet normal  0.000000e+000  0.000000e+000 -1.000000e+000
    outer loop
      vertex  2.800000e+001  8.300000e+000 -8.000000e+000
      vertex  8.000000e+000  2.281037e+001 -8.000000e+000
      vertex  2.800000e+001  2.281037e+001 -8.000000e+000
    endloop
  endfacet
  facet normal  -0.000000e+000  6.744109e-001  7.383563e-001
    outer loop
      vertex  2.800000e+001  2.281037e+001 -8.000000e+000
      vertex  8.000000e+000  2.281037e+001 -8.000000e+000
      vertex  2.800000e+001  5.395288e+000  7.906849e+000
    endloop
  endfacet
  facet normal  0.000000e+000  6.744109e-001  7.383563e-001
    outer loop
      vertex  2.800000e+001  5.395288e+000  7.906849e+000
      vertex  8.000000e+000  2.281037e+001 -8.000000e+000
      vertex  8.000000e+000  5.395288e+000  7.906849e+000
    endloop
  endfacet
  facet normal  0.000000e+000 -6.744109e-001  7.383563e-001
    outer loop
      vertex  2.800000e+001 -2.281037e+001 -8.000000e+000
      vertex  2.800000e+001 -5.395288e+000  7.906849e+000
      vertex  8.000000e+000 -2.281037e+001 -8.000000e+000
    endloop
  endfacet
  facet normal  0.000000e+000 -6.744109e-001  7.383563e-001
    outer loop
      vertex  8.000000e+000 -2.281037e+001 -8.000000e+000
      vertex  2.800000e+001 -5.395288e+000  7.906849e+000
      vertex  8.000000e+000 -5.395288e+000  7.906849e+000
    endloop
  endfacet
  facet normal  0.000000e+000 -6.371709e-001  7.707226e-001
    outer loop
      vertex  8.000000e+000 -5.395288e+000  7.906849e+000
      vertex  2.800000e+001 -5.395288e+000  7.906849e+000
      vertex  8.000000e+000 -4.787041e+000  8.409698e+000
    endloop
  endfacet
  facet normal  0.000000e+000 -6.371709e-001  7.707226e-001
    outer loop
      vertex  8.000000e+000 -4.787041e+000  8.409698e+000
      vertex  2.800000e+001 -5.395288e+000  7.906849e+000
      vertex  2.800000e+001 -4.787041e+000  8.409698e+000
    endloop
  endfacet
  facet normal  0.000000e+000 -5.581330e-001  8.297514e-001
    outer loop
      vertex  8.000000e+000 -4.787041e+000  8.409698e+000
      vertex  2.800000e+001 -4.787041e+000  8.409698e+000
      vertex  8.000000e+000 -4.132208e+000  8.850172e+000
    endloop
  endfacet
  facet normal  0.000000e+000 -5.581330e-001  8.297514e-001
    outer loop
      vertex  8.000000e+000 -4.132208e+000  8.850172e+000
      vertex  2.800000e+001 -4.787041e+000  8.409698e+000
      vertex  2.800000e+001 -4.132208e+000  8.850172e+000
    endloop
  endfacet
  facet normal  0.000000e+000 -4.736622e-001  8.807066e-001
    outer loop
      vertex  8.000000e+000 -4.132208e+000  8.850172e+000
      vertex  2.800000e+001 -4.132208e+000  8.850172e+000
      vertex  8.000000e+000 -3.437163e+000  9.223982e+000
    endloop
  endfacet
  facet normal  0.000000e+000 -4.736622e-001  8.807066e-001
    outer loop
      vertex  8.000000e+000 -3.437163e+000  9.223982e+000
      vertex  2.800000e+001 -4.132208e+000  8.850172e+000
      vertex  2.800000e+001 -3.437163e+000  9.223982e+000
    endloop
  endfacet
  facet normal  0.000000e+000 -3.845822e-001  9.230906e-001
    outer loop
      vertex  8.000000e+000 -3.437163e+000  9.223982e+000
      vertex  2.800000e+001 -3.437163e+000  9.223982e+000
      vertex  8.000000e+000 -2.708668e+000  9.527491e+000
    endloop
  endfacet
  facet normal  0.000000e+000 -3.845822e-001  9.230906e-001
    outer loop
      vertex  8.000000e+000 -2.708668e+000  9.527491e+000
      vertex  2.800000e+001 -3.437163e+000  9.223982e+000
      vertex  2.800000e+001 -2.708668e+000  9.527491e+000
    endloop
  endfacet
  facet normal  0.000000e+000 -2.917599e-001  9.564916e-001
    outer loop
      vertex  8.000000e+000 -2.708668e+000  9.527491e+000
      vertex  2.800000e+001 -2.708668e+000  9.527491e+000
      vertex  8.000000e+000 -1.953814e+000  9.757745e+000
    endloop
  endfacet
  facet normal  0.000000e+000 -2.917599e-001  9.564916e-001
    outer loop
      vertex  8.000000e+000 -1.953814e+000  9.757745e+000
      vertex  2.800000e+001 -2.708668e+000  9.527491e+000
      vertex  2.800000e+001 -1.953814e+000  9.757745e+000
    endloop
  endfacet
  facet normal  0.000000e+000 -1.960988e-001  9.805841e-001
    outer loop
      vertex  8.000000e+000 -1.953814e+000  9.757745e+000
      vertex  2.800000e+001 -1.953814e+000  9.757745e+000
      vertex  8.000000e+000 -1.179946e+000  9.912504e+000
    endloop
  endfacet
  facet normal  0.000000e+000 -1.960988e-001  9.805841e-001
    outer loop
      vertex  8.000000e+000 -1.179946e+000  9.912504e+000
      vertex  2.800000e+001 -1.953814e+000  9.757745e+000
      vertex  2.800000e+001 -1.179946e+000  9.912504e+000
    endloop
  endfacet
  facet normal  0.000000e+000 -9.852856e-002  9.951341e-001
    outer loop
      vertex  8.000000e+000 -1.179946e+000  9.912504e+000
      vertex  2.800000e+001 -1.179946e+000  9.912504e+000
      vertex  8.000000e+000 -3.945954e-001  9.990262e+000
    endloop
  endfacet
  facet normal  0.000000e+000 -9.852856e-002  9.951341e-001
    outer loop
      vertex  8.000000e+000 -3.945954e-001  9.990262e+000
      vertex  2.800000e+001 -1.179946e+000  9.912504e+000
      vertex  2.800000e+001 -3.945954e-001  9.990262e+000
    endloop
  endfacet
  facet normal  0.000000e+000  0.000000e+000  1.000000e+000
    outer loop
      vertex  8.000000e+000 -3.945954e-001  9.990262e+000
      vertex  2.800000e+001 -3.945954e-001  9.990262e+000
      vertex  8.000000e+000  3.945954e-001  9.990262e+000
    endloop
  endfacet
  facet normal  -0.000000e+000  0.000000e+000  1.000000e+000
    outer loop
      vertex  8.000000e+000  3.945954e-001  9.990262e+000
      vertex  2.800000e+001 -3.945954e-001  9.990262e+000
      vertex  2.800000e+001  3.945954e-001  9.990262e+000
    endloop
  endfacet
  facet normal  0.000000e+000  9.852856e-002  9.951341e-001
    outer loop
      vertex  8.000000e+000  3.945954e-001  9.990262e+000
      vertex  2.800000e+001  3.945954e-001  9.990262e+000
      vertex  8.000000e+000  1.179946e+000  9.912504e+000
    endloop
  endfacet
  facet normal  -0.000000e+000  9.852856e-002  9.951341e-001
    outer loop
      vertex  8.000000e+000  1.179946e+000  9.912504e+000
      vertex  2.800000e+001  3.945954e-001  9.990262e+000
      vertex  2.800000e+001  1.179946e+000  9.912504e+000
    endloop
  endfacet
  facet normal  0.000000e+000  1.960988e-001  9.805841e-001
    outer loop
      vertex  8.000000e+000  1.179946e+000  9.912504e+000
      vertex  2.800000e+001  1.179946e+000  9.912504e+000
      vertex  8.000000e+000  1.953814e+000  9.757745e+000
    endloop
  endfacet
  facet normal  -0.000000e+000  1.960988e-001  9.805841e-001
    outer loop
      vertex  8.000000e+000  1.953814e+000  9.757745e+000
      vertex  2.800000e+001  1.179946e+000  9.912504e+000
      vertex  2.800000e+001  1.953814e+000  9.757745e+000
    endloop
  endfacet
  facet normal  0.000000e+000  2.917599e-001  9.564916e-001
    outer loop
      vertex  8.000000e+000  1.953814e+000  9.757745e+000
      vertex  2.800000e+001  1.953814e+000  9.757745e+000
      vertex  8.000000e+000  2.708668e+000  9.527491e+000
    endloop
  endfacet
  facet normal  -0.000000e+000  2.917599e-001  9.564916e-001
    outer loop
      vertex  8.000000e+000  2.708668e+000  9.527491e+000
      vertex  2.800000e+001  1.953814e+000  9.757745e+000
      vertex  2.800000e+001  2.708668e+000  9.527491e+000
    endloop
  endfacet
  facet normal  0.000000e+000  3.845822e-001  9.230906e-001
    outer loop
      vertex  8.000000e+000  2.708668e+000  9.527491e+000
      vertex  2.800000e+001  2.708668e+000  9.527491e+000
      vertex  8.000000e+000  3.437163e+000  9.223982e+000
    endloop
  endfacet
  facet normal  -0.000000e+000  3.845822e-001  9.230906e-001
    outer loop
      vertex  8.000000e+000  3.437163e+000  9.223982e+000
      vertex  2.800000e+001  2.708668e+000  9.527491e+000
      vertex  2.800000e+001  3.437163e+000  9.223982e+000
    endloop
  endfacet
  facet normal  0.000000e+000  4.736622e-001  8.807066e-001
    outer loop
      vertex  8.000000e+000  3.437163e+000  9.223982e+000
      vertex  2.800000e+001  3.437163e+000  9.223982e+000
      vertex  8.000000e+000  4.132208e+000  8.850172e+000
    endloop
  endfacet
  facet normal  -0.000000e+000  4.736622e-001  8.807066e-001
    outer loop
      vertex  8.000000e+000  4.132208e+000  8.850172e+000
      vertex  2.800000e+001  3.437163e+000  9.223982e+000
      vertex  2.800000e+001  4.132208e+000  8.850172e+000
    endloop
  endfacet
  facet normal  0.000000e+000  5.581330e-001  8.297514e-001
    outer loop
      vertex  8.000000e+000  4.132208e+000  8.850172e+000
      vertex  2.800000e+001  4.132208e+000  8.850172e+000
      vertex  8.000000e+000  4.787041e+000  8.409698e+000
    endloop
  endfacet
  facet normal  -0.000000e+000  5.581330e-001  8.297514e-001
    outer loop
      vertex  8.000000e+000  4.787041e+000  8.409698e+000
      vertex  2.800000e+001  4.132208e+000  8.850172e+000
      vertex  2.800000e+001  4.787041e+000  8.409698e+000
    endloop
  endfacet
  facet normal  0.000000e+000  6.371709e-001  7.707226e-001
    outer loop
      vertex  8.000000e+000  4.787041e+000  8.409698e+000
      vertex  2.800000e+001  4.787041e+000  8.409698e+000
      vertex  8.000000e+000  5.395288e+000  7.906849e+000
    endloop
  endfacet
  facet normal  -0.000000e+000  6.371709e-001  7.707226e-001
    outer loop
      vertex  8.000000e+000  5.395288e+000  7.906849e+000
      vertex  2.800000e+001  4.787041e+000  8.409698e+000
      vertex  2.800000e+001  5.395288e+000  7.906849e+000
    endloop
  endfacet
endsolid CATIA STL
