solid CATIA STL
  facet normal  0.000000e+000  0.000000e+000  1.000000e+000
    outer loop
      vertex  1.016225e+002  3.250020e+000  5.650000e+000
      vertex  1.005000e+002  3.215000e+001  5.650000e+000
      vertex  1.014546e+002  3.454594e+000  5.650000e+000
    endloop
  endfacet
  facet normal  0.000000e+000  0.000000e+000  1.000000e+000
    outer loop
      vertex  1.014546e+002  3.454594e+000  5.650000e+000
      vertex  1.005000e+002  3.215000e+001  5.650000e+000
      vertex  1.012500e+002  3.622484e+000  5.650000e+000
    endloop
  endfacet
  facet normal  0.000000e+000  0.000000e+000  1.000000e+000
    outer loop
      vertex  1.012500e+002  3.622484e+000  5.650000e+000
      vertex  1.005000e+002  3.215000e+001  5.650000e+000
      vertex  1.010166e+002  3.747237e+000  5.650000e+000
    endloop
  endfacet
  facet normal  0.000000e+000  0.000000e+000  9.999999e-001
    outer loop
      vertex  1.010166e+002  3.747237e+000  5.650000e+000
      vertex  1.005000e+002  3.215000e+001  5.650000e+000
      vertex  1.007634e+002  3.824060e+000  5.650000e+000
    endloop
  endfacet
  facet normal  0.000000e+000  0.000000e+000  1.000000e+000
    outer loop
      vertex  1.007634e+002  3.824060e+000  5.650000e+000
      vertex  1.005000e+002  3.215000e+001  5.650000e+000
      vertex  1.005000e+002  3.850000e+000  5.650000e+000
    endloop
  endfacet
  facet normal  0.000000e+000  0.000000e+000  1.000000e+000
    outer loop
      vertex  9.924000e+001  4.010000e+000  5.650000e+000
      vertex  9.915000e+001  2.500000e+000  5.650000e+000
      vertex  9.917594e+001  2.763372e+000  5.650000e+000
    endloop
  endfacet
  facet normal  0.000000e+000  0.000000e+000  1.000000e+000
    outer loop
      vertex  9.924000e+001  4.010000e+000  5.650000e+000
      vertex  9.917594e+001  2.763372e+000  5.650000e+000
      vertex  9.925276e+001  3.016623e+000  5.650000e+000
    endloop
  endfacet
  facet normal  0.000000e+000  -0.000000e+000  1.000000e+000
    outer loop
      vertex  9.924000e+001  4.010000e+000  5.650000e+000
      vertex  9.925276e+001  3.016623e+000  5.650000e+000
      vertex  9.937752e+001  3.250020e+000  5.650000e+000
    endloop
  endfacet
  facet normal  0.000000e+000  -0.000000e+000  1.000000e+000
    outer loop
      vertex  9.924000e+001  4.010000e+000  5.650000e+000
      vertex  9.937752e+001  3.250020e+000  5.650000e+000
      vertex  9.954540e+001  3.454594e+000  5.650000e+000
    endloop
  endfacet
  facet normal  0.000000e+000  -0.000000e+000  9.999999e-001
    outer loop
      vertex  9.924000e+001  4.010000e+000  5.650000e+000
      vertex  9.954540e+001  3.454594e+000  5.650000e+000
      vertex  9.974998e+001  3.622484e+000  5.650000e+000
    endloop
  endfacet
  facet normal  0.000000e+000  -0.000000e+000  1.000000e+000
    outer loop
      vertex  9.924000e+001  4.010000e+000  5.650000e+000
      vertex  9.974998e+001  3.622484e+000  5.650000e+000
      vertex  9.998338e+001  3.747237e+000  5.650000e+000
    endloop
  endfacet
  facet normal  0.000000e+000  -0.000000e+000  1.000000e+000
    outer loop
      vertex  9.924000e+001  4.010000e+000  5.650000e+000
      vertex  9.998338e+001  3.747237e+000  5.650000e+000
      vertex  1.002366e+002  3.824060e+000  5.650000e+000
    endloop
  endfacet
  facet normal  0.000000e+000  -0.000000e+000  1.000000e+000
    outer loop
      vertex  9.924000e+001  4.010000e+000  5.650000e+000
      vertex  1.002366e+002  3.824060e+000  5.650000e+000
      vertex  1.005000e+002  3.850000e+000  5.650000e+000
    endloop
  endfacet
  facet normal  0.000000e+000  -0.000000e+000  1.000000e+000
    outer loop
      vertex  9.924000e+001  4.010000e+000  5.650000e+000
      vertex  1.005000e+002  3.850000e+000  5.650000e+000
      vertex  1.005000e+002  3.215000e+001  5.650000e+000
    endloop
  endfacet
  facet normal  0.000000e+000  0.000000e+000  1.000000e+000
    outer loop
      vertex  9.924000e+001  4.010000e+000  5.650000e+000
      vertex  1.005000e+002  3.215000e+001  5.650000e+000
      vertex  9.924000e+001  3.154000e+001  5.650000e+000
    endloop
  endfacet
  facet normal  0.000000e+000  -0.000000e+000  1.000000e+000
    outer loop
      vertex  5.150000e+001  3.154000e+001  5.650000e+000
      vertex  9.924000e+001  3.154000e+001  5.650000e+000
      vertex  1.005000e+002  3.215000e+001  5.650000e+000
    endloop
  endfacet
  facet normal  0.000000e+000  0.000000e+000  1.000000e+000
    outer loop
      vertex  5.150000e+001  3.154000e+001  5.650000e+000
      vertex  1.005000e+002  3.215000e+001  5.650000e+000
      vertex  1.002366e+002  3.217594e+001  5.650000e+000
    endloop
  endfacet
  facet normal  0.000000e+000  0.000000e+000  1.000000e+000
    outer loop
      vertex  5.150000e+001  3.154000e+001  5.650000e+000
      vertex  1.002366e+002  3.217594e+001  5.650000e+000
      vertex  9.998338e+001  3.225276e+001  5.650000e+000
    endloop
  endfacet
  facet normal  0.000000e+000  0.000000e+000  1.000000e+000
    outer loop
      vertex  5.150000e+001  3.154000e+001  5.650000e+000
      vertex  9.998338e+001  3.225276e+001  5.650000e+000
      vertex  9.974998e+001  3.237752e+001  5.650000e+000
    endloop
  endfacet
  facet normal  0.000000e+000  0.000000e+000  1.000000e+000
    outer loop
      vertex  5.150000e+001  3.154000e+001  5.650000e+000
      vertex  9.974998e+001  3.237752e+001  5.650000e+000
      vertex  9.954540e+001  3.254541e+001  5.650000e+000
    endloop
  endfacet
  facet normal  0.000000e+000  0.000000e+000  1.000000e+000
    outer loop
      vertex  5.150000e+001  3.154000e+001  5.650000e+000
      vertex  9.954540e+001  3.254541e+001  5.650000e+000
      vertex  9.937752e+001  3.274998e+001  5.650000e+000
    endloop
  endfacet
  facet normal  0.000000e+000  0.000000e+000  1.000000e+000
    outer loop
      vertex  5.150000e+001  3.154000e+001  5.650000e+000
      vertex  9.937752e+001  3.274998e+001  5.650000e+000
      vertex  9.925276e+001  3.298338e+001  5.650000e+000
    endloop
  endfacet
  facet normal  0.000000e+000  0.000000e+000  1.000000e+000
    outer loop
      vertex  5.150000e+001  3.154000e+001  5.650000e+000
      vertex  9.925276e+001  3.298338e+001  5.650000e+000
      vertex  9.917594e+001  3.323663e+001  5.650000e+000
    endloop
  endfacet
  facet normal  0.000000e+000  0.000000e+000  1.000000e+000
    outer loop
      vertex  5.150000e+001  3.154000e+001  5.650000e+000
      vertex  9.917594e+001  3.323663e+001  5.650000e+000
      vertex  9.915000e+001  3.350000e+001  5.650000e+000
    endloop
  endfacet
  facet normal  0.000000e+000  -0.000000e+000  1.000000e+000
    outer loop
      vertex  5.150000e+001  3.154000e+001  5.650000e+000
      vertex  9.915000e+001  3.350000e+001  5.650000e+000
      vertex  9.917594e+001  3.376337e+001  5.650000e+000
    endloop
  endfacet
  facet normal  0.000000e+000  -0.000000e+000  9.999999e-001
    outer loop
      vertex  5.150000e+001  3.154000e+001  5.650000e+000
      vertex  9.917594e+001  3.376337e+001  5.650000e+000
      vertex  9.925276e+001  3.401662e+001  5.650000e+000
    endloop
  endfacet
  facet normal  0.000000e+000  -0.000000e+000  1.000000e+000
    outer loop
      vertex  5.150000e+001  3.154000e+001  5.650000e+000
      vertex  9.925276e+001  3.401662e+001  5.650000e+000
      vertex  9.937752e+001  3.425002e+001  5.650000e+000
    endloop
  endfacet
  facet normal  0.000000e+000  -0.000000e+000  1.000000e+000
    outer loop
      vertex  5.150000e+001  3.154000e+001  5.650000e+000
      vertex  9.937752e+001  3.425002e+001  5.650000e+000
      vertex  9.954540e+001  3.445459e+001  5.650000e+000
    endloop
  endfacet
  facet normal  0.000000e+000  -0.000000e+000  9.999999e-001
    outer loop
      vertex  5.150000e+001  3.154000e+001  5.650000e+000
      vertex  9.954540e+001  3.445459e+001  5.650000e+000
      vertex  9.974998e+001  3.462248e+001  5.650000e+000
    endloop
  endfacet
  facet normal  0.000000e+000  -0.000000e+000  1.000000e+000
    outer loop
      vertex  5.150000e+001  3.154000e+001  5.650000e+000
      vertex  9.974998e+001  3.462248e+001  5.650000e+000
      vertex  9.998338e+001  3.474724e+001  5.650000e+000
    endloop
  endfacet
  facet normal  0.000000e+000  -0.000000e+000  9.999999e-001
    outer loop
      vertex  5.150000e+001  3.154000e+001  5.650000e+000
      vertex  9.998338e+001  3.474724e+001  5.650000e+000
      vertex  1.002366e+002  3.482406e+001  5.650000e+000
    endloop
  endfacet
  facet normal  0.000000e+000  -0.000000e+000  1.000000e+000
    outer loop
      vertex  5.150000e+001  3.154000e+001  5.650000e+000
      vertex  1.002366e+002  3.482406e+001  5.650000e+000
      vertex  1.005000e+002  3.485000e+001  5.650000e+000
    endloop
  endfacet
  facet normal  0.000000e+000  -0.000000e+000  9.999999e-001
    outer loop
      vertex  5.150000e+001  3.154000e+001  5.650000e+000
      vertex  1.005000e+002  3.485000e+001  5.650000e+000
      vertex  1.080000e+002  4.100000e+001  5.650000e+000
    endloop
  endfacet
  facet normal  0.000000e+000  0.000000e+000  1.000000e+000
    outer loop
      vertex  5.150000e+001  3.154000e+001  5.650000e+000
      vertex  1.080000e+002  4.100000e+001  5.650000e+000
      vertex  5.150000e+001  4.100000e+001  5.650000e+000
    endloop
  endfacet
  facet normal  0.000000e+000  0.000000e+000  1.000000e+000
    outer loop
      vertex  5.150000e+001  4.010000e+000  5.650000e+000
      vertex  5.150000e+001 -5.000000e+000  5.650000e+000
      vertex  1.080000e+002 -5.000000e+000  5.650000e+000
    endloop
  endfacet
  facet normal  0.000000e+000  0.000000e+000  9.999999e-001
    outer loop
      vertex  5.150000e+001  4.010000e+000  5.650000e+000
      vertex  1.080000e+002 -5.000000e+000  5.650000e+000
      vertex  1.005000e+002  1.150000e+000  5.650000e+000
    endloop
  endfacet
  facet normal  0.000000e+000  0.000000e+000  1.000000e+000
    outer loop
      vertex  5.150000e+001  4.010000e+000  5.650000e+000
      vertex  1.005000e+002  1.150000e+000  5.650000e+000
      vertex  1.002366e+002  1.175940e+000  5.650000e+000
    endloop
  endfacet
  facet normal  0.000000e+000  0.000000e+000  1.000000e+000
    outer loop
      vertex  5.150000e+001  4.010000e+000  5.650000e+000
      vertex  1.002366e+002  1.175940e+000  5.650000e+000
      vertex  9.998338e+001  1.252763e+000  5.650000e+000
    endloop
  endfacet
  facet normal  0.000000e+000  0.000000e+000  1.000000e+000
    outer loop
      vertex  5.150000e+001  4.010000e+000  5.650000e+000
      vertex  9.998338e+001  1.252763e+000  5.650000e+000
      vertex  9.974998e+001  1.377516e+000  5.650000e+000
    endloop
  endfacet
  facet normal  0.000000e+000  0.000000e+000  1.000000e+000
    outer loop
      vertex  5.150000e+001  4.010000e+000  5.650000e+000
      vertex  9.974998e+001  1.377516e+000  5.650000e+000
      vertex  9.954540e+001  1.545406e+000  5.650000e+000
    endloop
  endfacet
  facet normal  0.000000e+000  0.000000e+000  1.000000e+000
    outer loop
      vertex  5.150000e+001  4.010000e+000  5.650000e+000
      vertex  9.954540e+001  1.545406e+000  5.650000e+000
      vertex  9.937752e+001  1.749980e+000  5.650000e+000
    endloop
  endfacet
  facet normal  0.000000e+000  0.000000e+000  1.000000e+000
    outer loop
      vertex  5.150000e+001  4.010000e+000  5.650000e+000
      vertex  9.937752e+001  1.749980e+000  5.650000e+000
      vertex  9.925276e+001  1.983377e+000  5.650000e+000
    endloop
  endfacet
  facet normal  0.000000e+000  0.000000e+000  1.000000e+000
    outer loop
      vertex  5.150000e+001  4.010000e+000  5.650000e+000
      vertex  9.925276e+001  1.983377e+000  5.650000e+000
      vertex  9.917594e+001  2.236628e+000  5.650000e+000
    endloop
  endfacet
  facet normal  0.000000e+000  0.000000e+000  1.000000e+000
    outer loop
      vertex  5.150000e+001  4.010000e+000  5.650000e+000
      vertex  9.917594e+001  2.236628e+000  5.650000e+000
      vertex  9.915000e+001  2.500000e+000  5.650000e+000
    endloop
  endfacet
  facet normal  0.000000e+000  -0.000000e+000  1.000000e+000
    outer loop
      vertex  5.150000e+001  4.010000e+000  5.650000e+000
      vertex  9.915000e+001  2.500000e+000  5.650000e+000
      vertex  9.924000e+001  4.010000e+000  5.650000e+000
    endloop
  endfacet
  facet normal  0.000000e+000  0.000000e+000  1.000000e+000
    outer loop
      vertex  1.080000e+002 -5.000000e+000  5.650000e+000
      vertex  1.018241e+002  3.376337e+001  5.650000e+000
      vertex  1.018500e+002  3.350000e+001  5.650000e+000
    endloop
  endfacet
  facet normal  0.000000e+000  0.000000e+000  1.000000e+000
    outer loop
      vertex  1.080000e+002 -5.000000e+000  5.650000e+000
      vertex  1.018500e+002  3.350000e+001  5.650000e+000
      vertex  1.018241e+002  3.323663e+001  5.650000e+000
    endloop
  endfacet
  facet normal  0.000000e+000  0.000000e+000  1.000000e+000
    outer loop
      vertex  1.080000e+002 -5.000000e+000  5.650000e+000
      vertex  1.018241e+002  3.323663e+001  5.650000e+000
      vertex  1.017472e+002  3.298338e+001  5.650000e+000
    endloop
  endfacet
  facet normal  0.000000e+000  0.000000e+000  1.000000e+000
    outer loop
      vertex  1.080000e+002 -5.000000e+000  5.650000e+000
      vertex  1.017472e+002  3.298338e+001  5.650000e+000
      vertex  1.016225e+002  3.274998e+001  5.650000e+000
    endloop
  endfacet
  facet normal  0.000000e+000  0.000000e+000  9.999999e-001
    outer loop
      vertex  1.080000e+002 -5.000000e+000  5.650000e+000
      vertex  1.016225e+002  3.274998e+001  5.650000e+000
      vertex  1.014546e+002  3.254541e+001  5.650000e+000
    endloop
  endfacet
  facet normal  0.000000e+000  0.000000e+000  1.000000e+000
    outer loop
      vertex  1.080000e+002 -5.000000e+000  5.650000e+000
      vertex  1.014546e+002  3.254541e+001  5.650000e+000
      vertex  1.012500e+002  3.237752e+001  5.650000e+000
    endloop
  endfacet
  facet normal  0.000000e+000  0.000000e+000  1.000000e+000
    outer loop
      vertex  1.080000e+002 -5.000000e+000  5.650000e+000
      vertex  1.012500e+002  3.237752e+001  5.650000e+000
      vertex  1.010166e+002  3.225276e+001  5.650000e+000
    endloop
  endfacet
  facet normal  0.000000e+000  0.000000e+000  1.000000e+000
    outer loop
      vertex  1.080000e+002 -5.000000e+000  5.650000e+000
      vertex  1.010166e+002  3.225276e+001  5.650000e+000
      vertex  1.007634e+002  3.217594e+001  5.650000e+000
    endloop
  endfacet
  facet normal  0.000000e+000  0.000000e+000  1.000000e+000
    outer loop
      vertex  1.080000e+002 -5.000000e+000  5.650000e+000
      vertex  1.007634e+002  3.217594e+001  5.650000e+000
      vertex  1.005000e+002  3.215000e+001  5.650000e+000
    endloop
  endfacet
  facet normal  0.000000e+000  0.000000e+000  9.999999e-001
    outer loop
      vertex  1.080000e+002 -5.000000e+000  5.650000e+000
      vertex  1.005000e+002  3.215000e+001  5.650000e+000
      vertex  1.016225e+002  3.250020e+000  5.650000e+000
    endloop
  endfacet
  facet normal  0.000000e+000  0.000000e+000  1.000000e+000
    outer loop
      vertex  1.080000e+002 -5.000000e+000  5.650000e+000
      vertex  1.016225e+002  3.250020e+000  5.650000e+000
      vertex  1.017472e+002  3.016623e+000  5.650000e+000
    endloop
  endfacet
  facet normal  0.000000e+000  0.000000e+000  1.000000e+000
    outer loop
      vertex  1.080000e+002 -5.000000e+000  5.650000e+000
      vertex  1.017472e+002  3.016623e+000  5.650000e+000
      vertex  1.018241e+002  2.763372e+000  5.650000e+000
    endloop
  endfacet
  facet normal  0.000000e+000  0.000000e+000  1.000000e+000
    outer loop
      vertex  1.080000e+002 -5.000000e+000  5.650000e+000
      vertex  1.018241e+002  2.763372e+000  5.650000e+000
      vertex  1.018500e+002  2.500000e+000  5.650000e+000
    endloop
  endfacet
  facet normal  0.000000e+000  0.000000e+000  1.000000e+000
    outer loop
      vertex  1.080000e+002 -5.000000e+000  5.650000e+000
      vertex  1.018500e+002  2.500000e+000  5.650000e+000
      vertex  1.018241e+002  2.236628e+000  5.650000e+000
    endloop
  endfacet
  facet normal  0.000000e+000  0.000000e+000  1.000000e+000
    outer loop
      vertex  1.080000e+002 -5.000000e+000  5.650000e+000
      vertex  1.018241e+002  2.236628e+000  5.650000e+000
      vertex  1.017472e+002  1.983377e+000  5.650000e+000
    endloop
  endfacet
  facet normal  0.000000e+000  0.000000e+000  1.000000e+000
    outer loop
      vertex  1.080000e+002 -5.000000e+000  5.650000e+000
      vertex  1.017472e+002  1.983377e+000  5.650000e+000
      vertex  1.016225e+002  1.749980e+000  5.650000e+000
    endloop
  endfacet
  facet normal  0.000000e+000  0.000000e+000  1.000000e+000
    outer loop
      vertex  1.080000e+002 -5.000000e+000  5.650000e+000
      vertex  1.016225e+002  1.749980e+000  5.650000e+000
      vertex  1.014546e+002  1.545406e+000  5.650000e+000
    endloop
  endfacet
  facet normal  0.000000e+000  0.000000e+000  1.000000e+000
    outer loop
      vertex  1.080000e+002 -5.000000e+000  5.650000e+000
      vertex  1.014546e+002  1.545406e+000  5.650000e+000
      vertex  1.012500e+002  1.377516e+000  5.650000e+000
    endloop
  endfacet
  facet normal  0.000000e+000  0.000000e+000  1.000000e+000
    outer loop
      vertex  1.080000e+002 -5.000000e+000  5.650000e+000
      vertex  1.012500e+002  1.377516e+000  5.650000e+000
      vertex  1.010166e+002  1.252763e+000  5.650000e+000
    endloop
  endfacet
  facet normal  0.000000e+000  0.000000e+000  1.000000e+000
    outer loop
      vertex  1.080000e+002 -5.000000e+000  5.650000e+000
      vertex  1.010166e+002  1.252763e+000  5.650000e+000
      vertex  1.007634e+002  1.175940e+000  5.650000e+000
    endloop
  endfacet
  facet normal  0.000000e+000  0.000000e+000  1.000000e+000
    outer loop
      vertex  1.080000e+002 -5.000000e+000  5.650000e+000
      vertex  1.007634e+002  1.175940e+000  5.650000e+000
      vertex  1.005000e+002  1.150000e+000  5.650000e+000
    endloop
  endfacet
  facet normal  -0.000000e+000  0.000000e+000  1.000000e+000
    outer loop
      vertex  1.080000e+002  4.100000e+001  5.650000e+000
      vertex  1.005000e+002  3.485000e+001  5.650000e+000
      vertex  1.007634e+002  3.482406e+001  5.650000e+000
    endloop
  endfacet
  facet normal  -0.000000e+000  0.000000e+000  1.000000e+000
    outer loop
      vertex  1.080000e+002  4.100000e+001  5.650000e+000
      vertex  1.007634e+002  3.482406e+001  5.650000e+000
      vertex  1.010166e+002  3.474724e+001  5.650000e+000
    endloop
  endfacet
  facet normal  -0.000000e+000  0.000000e+000  1.000000e+000
    outer loop
      vertex  1.080000e+002  4.100000e+001  5.650000e+000
      vertex  1.010166e+002  3.474724e+001  5.650000e+000
      vertex  1.012500e+002  3.462248e+001  5.650000e+000
    endloop
  endfacet
  facet normal  -0.000000e+000  0.000000e+000  1.000000e+000
    outer loop
      vertex  1.080000e+002  4.100000e+001  5.650000e+000
      vertex  1.012500e+002  3.462248e+001  5.650000e+000
      vertex  1.014546e+002  3.445459e+001  5.650000e+000
    endloop
  endfacet
  facet normal  -0.000000e+000  0.000000e+000  1.000000e+000
    outer loop
      vertex  1.080000e+002  4.100000e+001  5.650000e+000
      vertex  1.014546e+002  3.445459e+001  5.650000e+000
      vertex  1.016225e+002  3.425002e+001  5.650000e+000
    endloop
  endfacet
  facet normal  -0.000000e+000  0.000000e+000  1.000000e+000
    outer loop
      vertex  1.080000e+002  4.100000e+001  5.650000e+000
      vertex  1.016225e+002  3.425002e+001  5.650000e+000
      vertex  1.017472e+002  3.401662e+001  5.650000e+000
    endloop
  endfacet
  facet normal  -0.000000e+000  0.000000e+000  1.000000e+000
    outer loop
      vertex  1.080000e+002  4.100000e+001  5.650000e+000
      vertex  1.017472e+002  3.401662e+001  5.650000e+000
      vertex  1.018241e+002  3.376337e+001  5.650000e+000
    endloop
  endfacet
  facet normal  -0.000000e+000  0.000000e+000  1.000000e+000
    outer loop
      vertex  1.080000e+002  4.100000e+001  5.650000e+000
      vertex  1.018241e+002  3.376337e+001  5.650000e+000
      vertex  1.080000e+002 -5.000000e+000  5.650000e+000
    endloop
  endfacet
  facet normal  0.000000e+000  1.000000e+000  0.000000e+000
    outer loop
      vertex  5.150000e+001  4.100000e+001  5.650000e+000
      vertex  1.080000e+002  4.100000e+001  5.650000e+000
      vertex  5.150000e+001  4.100000e+001 -4.435000e+001
    endloop
  endfacet
  facet normal  0.000000e+000  1.000000e+000  0.000000e+000
    outer loop
      vertex  5.150000e+001  4.100000e+001 -4.435000e+001
      vertex  1.080000e+002  4.100000e+001  5.650000e+000
      vertex  1.080000e+002  4.100000e+001 -4.435000e+001
    endloop
  endfacet
  facet normal  0.000000e+000 -1.000000e+000  -0.000000e+000
    outer loop
      vertex  1.080000e+002 -5.000000e+000  1.650000e+000
      vertex  1.080000e+002 -5.000000e+000  5.650000e+000
      vertex  1.060000e+002 -5.000000e+000  1.650000e+000
    endloop
  endfacet
  facet normal  0.000000e+000 -1.000000e+000  0.000000e+000
    outer loop
      vertex  1.060000e+002 -5.000000e+000  1.650000e+000
      vertex  1.080000e+002 -5.000000e+000  5.650000e+000
      vertex  5.150000e+001 -5.000000e+000  5.650000e+000
    endloop
  endfacet
  facet normal  0.000000e+000 -9.999999e-001  0.000000e+000
    outer loop
      vertex  1.060000e+002 -5.000000e+000  1.650000e+000
      vertex  5.150000e+001 -5.000000e+000  5.650000e+000
      vertex  5.150000e+001 -5.000000e+000  1.650000e+000
    endloop
  endfacet
  facet normal  0.000000e+000  1.000000e+000  -0.000000e+000
    outer loop
      vertex  9.924000e+001  4.010000e+000  5.650000e+000
      vertex  9.924000e+001  4.010000e+000  1.650000e+000
      vertex  5.150000e+001  4.010000e+000  5.650000e+000
    endloop
  endfacet
  facet normal  0.000000e+000  1.000000e+000  0.000000e+000
    outer loop
      vertex  5.150000e+001  4.010000e+000  5.650000e+000
      vertex  9.924000e+001  4.010000e+000  1.650000e+000
      vertex  5.150000e+001  4.010000e+000  1.650000e+000
    endloop
  endfacet
  facet normal  0.000000e+000 -1.000000e+000  0.000000e+000
    outer loop
      vertex  5.150000e+001  3.154000e+001  5.650000e+000
      vertex  5.150000e+001  3.154000e+001  1.650000e+000
      vertex  9.924000e+001  3.154000e+001  5.650000e+000
    endloop
  endfacet
  facet normal  0.000000e+000 -1.000000e+000  -0.000000e+000
    outer loop
      vertex  9.924000e+001  3.154000e+001  5.650000e+000
      vertex  5.150000e+001  3.154000e+001  1.650000e+000
      vertex  9.924000e+001  3.154000e+001  1.650000e+000
    endloop
  endfacet
  facet normal  0.000000e+000 -1.000000e+000  0.000000e+000
    outer loop
      vertex  5.150000e+001  3.900000e+001 -4.235000e+001
      vertex  1.060000e+002  3.900000e+001 -4.235000e+001
      vertex  5.150000e+001  3.900000e+001  1.650000e+000
    endloop
  endfacet
  facet normal  0.000000e+000 -1.000000e+000  0.000000e+000
    outer loop
      vertex  5.150000e+001  3.900000e+001  1.650000e+000
      vertex  1.060000e+002  3.900000e+001 -4.235000e+001
      vertex  1.060000e+002  3.900000e+001  1.650000e+000
    endloop
  endfacet
  facet normal  -0.000000e+000 -7.071068e-001 -7.071068e-001
    outer loop
      vertex  5.150000e+001  4.100000e+001 -4.435000e+001
      vertex  1.080000e+002  4.100000e+001 -4.435000e+001
      vertex  5.150000e+001  3.900000e+001 -4.235000e+001
    endloop
  endfacet
  facet normal  0.000000e+000 -7.071068e-001 -7.071068e-001
    outer loop
      vertex  5.150000e+001  3.900000e+001 -4.235000e+001
      vertex  1.080000e+002  4.100000e+001 -4.435000e+001
      vertex  1.060000e+002  3.900000e+001 -4.235000e+001
    endloop
  endfacet
  facet normal  0.000000e+000 -7.071068e-001 -7.071068e-001
    outer loop
      vertex  1.080000e+002  4.100000e+001 -4.435000e+001
      vertex  1.080000e+002 -5.000000e+000  1.650000e+000
      vertex  1.060000e+002  3.900000e+001 -4.235000e+001
    endloop
  endfacet
  facet normal  0.000000e+000 -7.071068e-001 -7.071068e-001
    outer loop
      vertex  1.060000e+002  3.900000e+001 -4.235000e+001
      vertex  1.080000e+002 -5.000000e+000  1.650000e+000
      vertex  1.060000e+002 -5.000000e+000  1.650000e+000
    endloop
  endfacet
  facet normal  0.000000e+000  0.000000e+000 -1.000000e+000
    outer loop
      vertex  1.032500e+002  1.541006e+001  1.650000e+000
      vertex  1.032500e+002  2.059612e+001  1.650000e+000
      vertex  1.060000e+002 -5.000000e+000  1.650000e+000
    endloop
  endfacet
  facet normal  0.000000e+000  0.000000e+000 -1.000000e+000
    outer loop
      vertex  9.924000e+001  4.010000e+000  1.650000e+000
      vertex  9.924000e+001  1.019006e+001  1.650000e+000
      vertex  1.005000e+002  3.850000e+000  1.650000e+000
    endloop
  endfacet
  facet normal  -0.000000e+000  0.000000e+000 -1.000000e+000
    outer loop
      vertex  9.924000e+001  4.010000e+000  1.650000e+000
      vertex  1.005000e+002  3.850000e+000  1.650000e+000
      vertex  1.002366e+002  3.824060e+000  1.650000e+000
    endloop
  endfacet
  facet normal  -0.000000e+000  0.000000e+000 -1.000000e+000
    outer loop
      vertex  9.924000e+001  4.010000e+000  1.650000e+000
      vertex  1.002366e+002  3.824060e+000  1.650000e+000
      vertex  9.998338e+001  3.747237e+000  1.650000e+000
    endloop
  endfacet
  facet normal  -0.000000e+000  0.000000e+000 -1.000000e+000
    outer loop
      vertex  9.924000e+001  4.010000e+000  1.650000e+000
      vertex  9.998338e+001  3.747237e+000  1.650000e+000
      vertex  9.974998e+001  3.622484e+000  1.650000e+000
    endloop
  endfacet
  facet normal  -0.000000e+000  0.000000e+000 -9.999999e-001
    outer loop
      vertex  9.924000e+001  4.010000e+000  1.650000e+000
      vertex  9.974998e+001  3.622484e+000  1.650000e+000
      vertex  9.954540e+001  3.454594e+000  1.650000e+000
    endloop
  endfacet
  facet normal  -0.000000e+000  0.000000e+000 -1.000000e+000
    outer loop
      vertex  9.924000e+001  4.010000e+000  1.650000e+000
      vertex  9.954540e+001  3.454594e+000  1.650000e+000
      vertex  9.937752e+001  3.250020e+000  1.650000e+000
    endloop
  endfacet
  facet normal  -0.000000e+000  0.000000e+000 -1.000000e+000
    outer loop
      vertex  9.924000e+001  4.010000e+000  1.650000e+000
      vertex  9.937752e+001  3.250020e+000  1.650000e+000
      vertex  9.925276e+001  3.016623e+000  1.650000e+000
    endloop
  endfacet
  facet normal  -0.000000e+000  0.000000e+000 -1.000000e+000
    outer loop
      vertex  9.924000e+001  4.010000e+000  1.650000e+000
      vertex  9.925276e+001  3.016623e+000  1.650000e+000
      vertex  9.917594e+001  2.763372e+000  1.650000e+000
    endloop
  endfacet
  facet normal  -0.000000e+000  0.000000e+000 -1.000000e+000
    outer loop
      vertex  9.924000e+001  4.010000e+000  1.650000e+000
      vertex  9.917594e+001  2.763372e+000  1.650000e+000
      vertex  9.915000e+001  2.500000e+000  1.650000e+000
    endloop
  endfacet
  facet normal  0.000000e+000  -0.000000e+000 -1.000000e+000
    outer loop
      vertex  9.924000e+001  1.019006e+001  1.650000e+000
      vertex  1.032500e+002  1.541006e+001  1.650000e+000
      vertex  1.060000e+002 -5.000000e+000  1.650000e+000
    endloop
  endfacet
  facet normal  0.000000e+000  0.000000e+000 -1.000000e+000
    outer loop
      vertex  9.924000e+001  1.019006e+001  1.650000e+000
      vertex  1.060000e+002 -5.000000e+000  1.650000e+000
      vertex  1.017472e+002  3.016623e+000  1.650000e+000
    endloop
  endfacet
  facet normal  0.000000e+000  0.000000e+000 -1.000000e+000
    outer loop
      vertex  9.924000e+001  1.019006e+001  1.650000e+000
      vertex  1.017472e+002  3.016623e+000  1.650000e+000
      vertex  1.016225e+002  3.250020e+000  1.650000e+000
    endloop
  endfacet
  facet normal  0.000000e+000  0.000000e+000 -1.000000e+000
    outer loop
      vertex  9.924000e+001  1.019006e+001  1.650000e+000
      vertex  1.016225e+002  3.250020e+000  1.650000e+000
      vertex  1.014546e+002  3.454594e+000  1.650000e+000
    endloop
  endfacet
  facet normal  0.000000e+000  0.000000e+000 -1.000000e+000
    outer loop
      vertex  9.924000e+001  1.019006e+001  1.650000e+000
      vertex  1.014546e+002  3.454594e+000  1.650000e+000
      vertex  1.012500e+002  3.622484e+000  1.650000e+000
    endloop
  endfacet
  facet normal  0.000000e+000  0.000000e+000 -1.000000e+000
    outer loop
      vertex  9.924000e+001  1.019006e+001  1.650000e+000
      vertex  1.012500e+002  3.622484e+000  1.650000e+000
      vertex  1.010166e+002  3.747237e+000  1.650000e+000
    endloop
  endfacet
  facet normal  0.000000e+000  0.000000e+000 -9.999999e-001
    outer loop
      vertex  9.924000e+001  1.019006e+001  1.650000e+000
      vertex  1.010166e+002  3.747237e+000  1.650000e+000
      vertex  1.007634e+002  3.824060e+000  1.650000e+000
    endloop
  endfacet
  facet normal  0.000000e+000  0.000000e+000 -9.999999e-001
    outer loop
      vertex  9.924000e+001  1.019006e+001  1.650000e+000
      vertex  1.007634e+002  3.824060e+000  1.650000e+000
      vertex  1.005000e+002  3.850000e+000  1.650000e+000
    endloop
  endfacet
  facet normal  0.000000e+000  0.000000e+000 -9.999999e-001
    outer loop
      vertex  5.150000e+001  3.154000e+001  1.650000e+000
      vertex  5.150000e+001  3.900000e+001  1.650000e+000
      vertex  1.060000e+002  3.900000e+001  1.650000e+000
    endloop
  endfacet
  facet normal  0.000000e+000  0.000000e+000 -1.000000e+000
    outer loop
      vertex  5.150000e+001  3.154000e+001  1.650000e+000
      vertex  1.060000e+002  3.900000e+001  1.650000e+000
      vertex  1.005000e+002  3.485000e+001  1.650000e+000
    endloop
  endfacet
  facet normal  0.000000e+000  0.000000e+000 -1.000000e+000
    outer loop
      vertex  5.150000e+001  3.154000e+001  1.650000e+000
      vertex  1.005000e+002  3.485000e+001  1.650000e+000
      vertex  1.002366e+002  3.482406e+001  1.650000e+000
    endloop
  endfacet
  facet normal  0.000000e+000  0.000000e+000 -9.999999e-001
    outer loop
      vertex  5.150000e+001  3.154000e+001  1.650000e+000
      vertex  1.002366e+002  3.482406e+001  1.650000e+000
      vertex  9.998338e+001  3.474724e+001  1.650000e+000
    endloop
  endfacet
  facet normal  0.000000e+000  0.000000e+000 -1.000000e+000
    outer loop
      vertex  5.150000e+001  3.154000e+001  1.650000e+000
      vertex  9.998338e+001  3.474724e+001  1.650000e+000
      vertex  9.974998e+001  3.462248e+001  1.650000e+000
    endloop
  endfacet
  facet normal  0.000000e+000  0.000000e+000 -9.999999e-001
    outer loop
      vertex  5.150000e+001  3.154000e+001  1.650000e+000
      vertex  9.974998e+001  3.462248e+001  1.650000e+000
      vertex  9.954540e+001  3.445459e+001  1.650000e+000
    endloop
  endfacet
  facet normal  0.000000e+000  0.000000e+000 -1.000000e+000
    outer loop
      vertex  5.150000e+001  3.154000e+001  1.650000e+000
      vertex  9.954540e+001  3.445459e+001  1.650000e+000
      vertex  9.937752e+001  3.425002e+001  1.650000e+000
    endloop
  endfacet
  facet normal  0.000000e+000  0.000000e+000 -1.000000e+000
    outer loop
      vertex  5.150000e+001  3.154000e+001  1.650000e+000
      vertex  9.937752e+001  3.425002e+001  1.650000e+000
      vertex  9.925276e+001  3.401662e+001  1.650000e+000
    endloop
  endfacet
  facet normal  0.000000e+000  0.000000e+000 -9.999999e-001
    outer loop
      vertex  5.150000e+001  3.154000e+001  1.650000e+000
      vertex  9.925276e+001  3.401662e+001  1.650000e+000
      vertex  9.917594e+001  3.376337e+001  1.650000e+000
    endloop
  endfacet
  facet normal  0.000000e+000  0.000000e+000 -1.000000e+000
    outer loop
      vertex  5.150000e+001  3.154000e+001  1.650000e+000
      vertex  9.917594e+001  3.376337e+001  1.650000e+000
      vertex  9.915000e+001  3.350000e+001  1.650000e+000
    endloop
  endfacet
  facet normal  0.000000e+000  -0.000000e+000 -1.000000e+000
    outer loop
      vertex  5.150000e+001  3.154000e+001  1.650000e+000
      vertex  9.915000e+001  3.350000e+001  1.650000e+000
      vertex  9.917594e+001  3.323663e+001  1.650000e+000
    endloop
  endfacet
  facet normal  0.000000e+000  -0.000000e+000 -1.000000e+000
    outer loop
      vertex  5.150000e+001  3.154000e+001  1.650000e+000
      vertex  9.917594e+001  3.323663e+001  1.650000e+000
      vertex  9.925276e+001  3.298338e+001  1.650000e+000
    endloop
  endfacet
  facet normal  0.000000e+000  -0.000000e+000 -1.000000e+000
    outer loop
      vertex  5.150000e+001  3.154000e+001  1.650000e+000
      vertex  9.925276e+001  3.298338e+001  1.650000e+000
      vertex  9.937752e+001  3.274998e+001  1.650000e+000
    endloop
  endfacet
  facet normal  0.000000e+000  -0.000000e+000 -1.000000e+000
    outer loop
      vertex  5.150000e+001  3.154000e+001  1.650000e+000
      vertex  9.937752e+001  3.274998e+001  1.650000e+000
      vertex  9.954540e+001  3.254541e+001  1.650000e+000
    endloop
  endfacet
  facet normal  0.000000e+000  -0.000000e+000 -1.000000e+000
    outer loop
      vertex  5.150000e+001  3.154000e+001  1.650000e+000
      vertex  9.954540e+001  3.254541e+001  1.650000e+000
      vertex  9.974998e+001  3.237752e+001  1.650000e+000
    endloop
  endfacet
  facet normal  0.000000e+000  -0.000000e+000 -9.999999e-001
    outer loop
      vertex  5.150000e+001  3.154000e+001  1.650000e+000
      vertex  9.974998e+001  3.237752e+001  1.650000e+000
      vertex  9.998338e+001  3.225276e+001  1.650000e+000
    endloop
  endfacet
  facet normal  0.000000e+000  -0.000000e+000 -9.999999e-001
    outer loop
      vertex  5.150000e+001  3.154000e+001  1.650000e+000
      vertex  9.998338e+001  3.225276e+001  1.650000e+000
      vertex  1.002366e+002  3.217594e+001  1.650000e+000
    endloop
  endfacet
  facet normal  0.000000e+000  -0.000000e+000 -1.000000e+000
    outer loop
      vertex  5.150000e+001  3.154000e+001  1.650000e+000
      vertex  1.002366e+002  3.217594e+001  1.650000e+000
      vertex  1.005000e+002  3.215000e+001  1.650000e+000
    endloop
  endfacet
  facet normal  0.000000e+000  0.000000e+000 -1.000000e+000
    outer loop
      vertex  5.150000e+001  3.154000e+001  1.650000e+000
      vertex  1.005000e+002  3.215000e+001  1.650000e+000
      vertex  9.924000e+001  3.154000e+001  1.650000e+000
    endloop
  endfacet
  facet normal  -0.000000e+000  0.000000e+000 -1.000000e+000
    outer loop
      vertex  5.150000e+001  4.010000e+000  1.650000e+000
      vertex  9.924000e+001  4.010000e+000  1.650000e+000
      vertex  9.915000e+001  2.500000e+000  1.650000e+000
    endloop
  endfacet
  facet normal  -0.000000e+000  -0.000000e+000 -1.000000e+000
    outer loop
      vertex  5.150000e+001  4.010000e+000  1.650000e+000
      vertex  9.915000e+001  2.500000e+000  1.650000e+000
      vertex  9.917594e+001  2.236628e+000  1.650000e+000
    endloop
  endfacet
  facet normal  -0.000000e+000  -0.000000e+000 -1.000000e+000
    outer loop
      vertex  5.150000e+001  4.010000e+000  1.650000e+000
      vertex  9.917594e+001  2.236628e+000  1.650000e+000
      vertex  9.925276e+001  1.983377e+000  1.650000e+000
    endloop
  endfacet
  facet normal  -0.000000e+000  -0.000000e+000 -1.000000e+000
    outer loop
      vertex  5.150000e+001  4.010000e+000  1.650000e+000
      vertex  9.925276e+001  1.983377e+000  1.650000e+000
      vertex  9.937752e+001  1.749980e+000  1.650000e+000
    endloop
  endfacet
  facet normal  -0.000000e+000  -0.000000e+000 -1.000000e+000
    outer loop
      vertex  5.150000e+001  4.010000e+000  1.650000e+000
      vertex  9.937752e+001  1.749980e+000  1.650000e+000
      vertex  9.954540e+001  1.545406e+000  1.650000e+000
    endloop
  endfacet
  facet normal  -0.000000e+000  -0.000000e+000 -1.000000e+000
    outer loop
      vertex  5.150000e+001  4.010000e+000  1.650000e+000
      vertex  9.954540e+001  1.545406e+000  1.650000e+000
      vertex  9.974998e+001  1.377516e+000  1.650000e+000
    endloop
  endfacet
  facet normal  -0.000000e+000  -0.000000e+000 -1.000000e+000
    outer loop
      vertex  5.150000e+001  4.010000e+000  1.650000e+000
      vertex  9.974998e+001  1.377516e+000  1.650000e+000
      vertex  9.998338e+001  1.252763e+000  1.650000e+000
    endloop
  endfacet
  facet normal  -0.000000e+000  -0.000000e+000 -1.000000e+000
    outer loop
      vertex  5.150000e+001  4.010000e+000  1.650000e+000
      vertex  9.998338e+001  1.252763e+000  1.650000e+000
      vertex  1.002366e+002  1.175940e+000  1.650000e+000
    endloop
  endfacet
  facet normal  -0.000000e+000  -0.000000e+000 -1.000000e+000
    outer loop
      vertex  5.150000e+001  4.010000e+000  1.650000e+000
      vertex  1.002366e+002  1.175940e+000  1.650000e+000
      vertex  1.005000e+002  1.150000e+000  1.650000e+000
    endloop
  endfacet
  facet normal  -0.000000e+000  -0.000000e+000 -1.000000e+000
    outer loop
      vertex  5.150000e+001  4.010000e+000  1.650000e+000
      vertex  1.005000e+002  1.150000e+000  1.650000e+000
      vertex  1.060000e+002 -5.000000e+000  1.650000e+000
    endloop
  endfacet
  facet normal  0.000000e+000  0.000000e+000 -1.000000e+000
    outer loop
      vertex  5.150000e+001  4.010000e+000  1.650000e+000
      vertex  1.060000e+002 -5.000000e+000  1.650000e+000
      vertex  5.150000e+001 -5.000000e+000  1.650000e+000
    endloop
  endfacet
  facet normal  0.000000e+000  0.000000e+000 -1.000000e+000
    outer loop
      vertex  1.060000e+002 -5.000000e+000  1.650000e+000
      vertex  1.005000e+002  1.150000e+000  1.650000e+000
      vertex  1.007634e+002  1.175940e+000  1.650000e+000
    endloop
  endfacet
  facet normal  0.000000e+000  0.000000e+000 -9.999999e-001
    outer loop
      vertex  1.060000e+002 -5.000000e+000  1.650000e+000
      vertex  1.007634e+002  1.175940e+000  1.650000e+000
      vertex  1.010166e+002  1.252763e+000  1.650000e+000
    endloop
  endfacet
  facet normal  0.000000e+000  0.000000e+000 -1.000000e+000
    outer loop
      vertex  1.060000e+002 -5.000000e+000  1.650000e+000
      vertex  1.010166e+002  1.252763e+000  1.650000e+000
      vertex  1.012500e+002  1.377516e+000  1.650000e+000
    endloop
  endfacet
  facet normal  0.000000e+000  0.000000e+000 -1.000000e+000
    outer loop
      vertex  1.060000e+002 -5.000000e+000  1.650000e+000
      vertex  1.012500e+002  1.377516e+000  1.650000e+000
      vertex  1.014546e+002  1.545406e+000  1.650000e+000
    endloop
  endfacet
  facet normal  0.000000e+000  0.000000e+000 -1.000000e+000
    outer loop
      vertex  1.060000e+002 -5.000000e+000  1.650000e+000
      vertex  1.014546e+002  1.545406e+000  1.650000e+000
      vertex  1.016225e+002  1.749980e+000  1.650000e+000
    endloop
  endfacet
  facet normal  0.000000e+000  0.000000e+000 -1.000000e+000
    outer loop
      vertex  1.060000e+002 -5.000000e+000  1.650000e+000
      vertex  1.016225e+002  1.749980e+000  1.650000e+000
      vertex  1.017472e+002  1.983377e+000  1.650000e+000
    endloop
  endfacet
  facet normal  0.000000e+000  0.000000e+000 -1.000000e+000
    outer loop
      vertex  1.060000e+002 -5.000000e+000  1.650000e+000
      vertex  1.017472e+002  1.983377e+000  1.650000e+000
      vertex  1.018241e+002  2.236628e+000  1.650000e+000
    endloop
  endfacet
  facet normal  0.000000e+000  0.000000e+000 -1.000000e+000
    outer loop
      vertex  1.060000e+002 -5.000000e+000  1.650000e+000
      vertex  1.018241e+002  2.236628e+000  1.650000e+000
      vertex  1.018500e+002  2.500000e+000  1.650000e+000
    endloop
  endfacet
  facet normal  0.000000e+000  0.000000e+000 -1.000000e+000
    outer loop
      vertex  1.060000e+002 -5.000000e+000  1.650000e+000
      vertex  1.018500e+002  2.500000e+000  1.650000e+000
      vertex  1.018241e+002  2.763372e+000  1.650000e+000
    endloop
  endfacet
  facet normal  0.000000e+000  0.000000e+000 -1.000000e+000
    outer loop
      vertex  1.060000e+002 -5.000000e+000  1.650000e+000
      vertex  1.018241e+002  2.763372e+000  1.650000e+000
      vertex  1.017472e+002  3.016623e+000  1.650000e+000
    endloop
  endfacet
  facet normal  0.000000e+000  0.000000e+000 -1.000000e+000
    outer loop
      vertex  1.032500e+002  2.059612e+001  1.650000e+000
      vertex  9.924000e+001  2.536612e+001  1.650000e+000
      vertex  9.924000e+001  3.154000e+001  1.650000e+000
    endloop
  endfacet
  facet normal  0.000000e+000  0.000000e+000 -1.000000e+000
    outer loop
      vertex  1.032500e+002  2.059612e+001  1.650000e+000
      vertex  9.924000e+001  3.154000e+001  1.650000e+000
      vertex  1.005000e+002  3.215000e+001  1.650000e+000
    endloop
  endfacet
  facet normal  0.000000e+000  0.000000e+000 -9.999999e-001
    outer loop
      vertex  1.032500e+002  2.059612e+001  1.650000e+000
      vertex  1.005000e+002  3.215000e+001  1.650000e+000
      vertex  1.007634e+002  3.217594e+001  1.650000e+000
    endloop
  endfacet
  facet normal  0.000000e+000  0.000000e+000 -9.999999e-001
    outer loop
      vertex  1.032500e+002  2.059612e+001  1.650000e+000
      vertex  1.007634e+002  3.217594e+001  1.650000e+000
      vertex  1.010166e+002  3.225276e+001  1.650000e+000
    endloop
  endfacet
  facet normal  0.000000e+000  0.000000e+000 -1.000000e+000
    outer loop
      vertex  1.032500e+002  2.059612e+001  1.650000e+000
      vertex  1.010166e+002  3.225276e+001  1.650000e+000
      vertex  1.012500e+002  3.237752e+001  1.650000e+000
    endloop
  endfacet
  facet normal  0.000000e+000  0.000000e+000 -1.000000e+000
    outer loop
      vertex  1.032500e+002  2.059612e+001  1.650000e+000
      vertex  1.012500e+002  3.237752e+001  1.650000e+000
      vertex  1.014546e+002  3.254541e+001  1.650000e+000
    endloop
  endfacet
  facet normal  0.000000e+000  0.000000e+000 -1.000000e+000
    outer loop
      vertex  1.032500e+002  2.059612e+001  1.650000e+000
      vertex  1.014546e+002  3.254541e+001  1.650000e+000
      vertex  1.016225e+002  3.274998e+001  1.650000e+000
    endloop
  endfacet
  facet normal  0.000000e+000  0.000000e+000 -1.000000e+000
    outer loop
      vertex  1.032500e+002  2.059612e+001  1.650000e+000
      vertex  1.016225e+002  3.274998e+001  1.650000e+000
      vertex  1.017472e+002  3.298338e+001  1.650000e+000
    endloop
  endfacet
  facet normal  0.000000e+000  0.000000e+000 -1.000000e+000
    outer loop
      vertex  1.032500e+002  2.059612e+001  1.650000e+000
      vertex  1.017472e+002  3.298338e+001  1.650000e+000
      vertex  1.018241e+002  3.323663e+001  1.650000e+000
    endloop
  endfacet
  facet normal  0.000000e+000  0.000000e+000 -1.000000e+000
    outer loop
      vertex  1.032500e+002  2.059612e+001  1.650000e+000
      vertex  1.018241e+002  3.323663e+001  1.650000e+000
      vertex  1.018500e+002  3.350000e+001  1.650000e+000
    endloop
  endfacet
  facet normal  0.000000e+000  0.000000e+000 -9.999999e-001
    outer loop
      vertex  1.060000e+002  3.900000e+001  1.650000e+000
      vertex  1.060000e+002 -5.000000e+000  1.650000e+000
      vertex  1.032500e+002  2.059612e+001  1.650000e+000
    endloop
  endfacet
  facet normal  0.000000e+000  0.000000e+000 -1.000000e+000
    outer loop
      vertex  1.060000e+002  3.900000e+001  1.650000e+000
      vertex  1.032500e+002  2.059612e+001  1.650000e+000
      vertex  1.018500e+002  3.350000e+001  1.650000e+000
    endloop
  endfacet
  facet normal  0.000000e+000  0.000000e+000 -1.000000e+000
    outer loop
      vertex  1.060000e+002  3.900000e+001  1.650000e+000
      vertex  1.018500e+002  3.350000e+001  1.650000e+000
      vertex  1.018241e+002  3.376337e+001  1.650000e+000
    endloop
  endfacet
  facet normal  0.000000e+000  0.000000e+000 -1.000000e+000
    outer loop
      vertex  1.060000e+002  3.900000e+001  1.650000e+000
      vertex  1.018241e+002  3.376337e+001  1.650000e+000
      vertex  1.017472e+002  3.401662e+001  1.650000e+000
    endloop
  endfacet
  facet normal  0.000000e+000  0.000000e+000 -1.000000e+000
    outer loop
      vertex  1.060000e+002  3.900000e+001  1.650000e+000
      vertex  1.017472e+002  3.401662e+001  1.650000e+000
      vertex  1.016225e+002  3.425002e+001  1.650000e+000
    endloop
  endfacet
  facet normal  0.000000e+000  0.000000e+000 -1.000000e+000
    outer loop
      vertex  1.060000e+002  3.900000e+001  1.650000e+000
      vertex  1.016225e+002  3.425002e+001  1.650000e+000
      vertex  1.014546e+002  3.445459e+001  1.650000e+000
    endloop
  endfacet
  facet normal  0.000000e+000  0.000000e+000 -1.000000e+000
    outer loop
      vertex  1.060000e+002  3.900000e+001  1.650000e+000
      vertex  1.014546e+002  3.445459e+001  1.650000e+000
      vertex  1.012500e+002  3.462248e+001  1.650000e+000
    endloop
  endfacet
  facet normal  0.000000e+000  0.000000e+000 -9.999999e-001
    outer loop
      vertex  1.060000e+002  3.900000e+001  1.650000e+000
      vertex  1.012500e+002  3.462248e+001  1.650000e+000
      vertex  1.010166e+002  3.474724e+001  1.650000e+000
    endloop
  endfacet
  facet normal  0.000000e+000  0.000000e+000 -9.999999e-001
    outer loop
      vertex  1.060000e+002  3.900000e+001  1.650000e+000
      vertex  1.010166e+002  3.474724e+001  1.650000e+000
      vertex  1.007634e+002  3.482406e+001  1.650000e+000
    endloop
  endfacet
  facet normal  0.000000e+000  0.000000e+000 -9.999999e-001
    outer loop
      vertex  1.060000e+002  3.900000e+001  1.650000e+000
      vertex  1.007634e+002  3.482406e+001  1.650000e+000
      vertex  1.005000e+002  3.485000e+001  1.650000e+000
    endloop
  endfacet
  facet normal -1.000000e+000  0.000000e+000  0.000000e+000
    outer loop
      vertex  5.150000e+001  4.100000e+001 -4.435000e+001
      vertex  5.150000e+001  3.900000e+001 -4.235000e+001
      vertex  5.150000e+001  4.100000e+001  5.650000e+000
    endloop
  endfacet
  facet normal -1.000000e+000  0.000000e+000  0.000000e+000
    outer loop
      vertex  5.150000e+001  4.100000e+001  5.650000e+000
      vertex  5.150000e+001  3.900000e+001 -4.235000e+001
      vertex  5.150000e+001  3.900000e+001  1.650000e+000
    endloop
  endfacet
  facet normal -1.000000e+000  0.000000e+000  0.000000e+000
    outer loop
      vertex  5.150000e+001  4.100000e+001  5.650000e+000
      vertex  5.150000e+001  3.900000e+001  1.650000e+000
      vertex  5.150000e+001  3.154000e+001  5.650000e+000
    endloop
  endfacet
  facet normal -9.999999e-001  0.000000e+000  0.000000e+000
    outer loop
      vertex  5.150000e+001  3.154000e+001  5.650000e+000
      vertex  5.150000e+001  3.900000e+001  1.650000e+000
      vertex  5.150000e+001  3.154000e+001  1.650000e+000
    endloop
  endfacet
  facet normal -1.000000e+000  -0.000000e+000  0.000000e+000
    outer loop
      vertex  5.150000e+001 -5.000000e+000  5.650000e+000
      vertex  5.150000e+001  4.010000e+000  5.650000e+000
      vertex  5.150000e+001 -5.000000e+000  1.650000e+000
    endloop
  endfacet
  facet normal -1.000000e+000  0.000000e+000  0.000000e+000
    outer loop
      vertex  5.150000e+001 -5.000000e+000  1.650000e+000
      vertex  5.150000e+001  4.010000e+000  5.650000e+000
      vertex  5.150000e+001  4.010000e+000  1.650000e+000
    endloop
  endfacet
  facet normal -1.000000e+000  0.000000e+000  0.000000e+000
    outer loop
      vertex  9.924000e+001  4.010000e+000  5.650000e+000
      vertex  9.924000e+001  1.019006e+001  1.650000e+000
      vertex  9.924000e+001  4.010000e+000  1.650000e+000
    endloop
  endfacet
  facet normal -1.000000e+000  0.000000e+000  0.000000e+000
    outer loop
      vertex  9.924000e+001  1.019006e+001  1.650000e+000
      vertex  9.924000e+001  4.010000e+000  5.650000e+000
      vertex  9.924000e+001  1.019006e+001  4.400000e+000
    endloop
  endfacet
  facet normal -1.000000e+000  0.000000e+000  0.000000e+000
    outer loop
      vertex  9.924000e+001  1.019006e+001  4.400000e+000
      vertex  9.924000e+001  4.010000e+000  5.650000e+000
      vertex  9.924000e+001  3.154000e+001  5.650000e+000
    endloop
  endfacet
  facet normal -1.000000e+000  0.000000e+000  0.000000e+000
    outer loop
      vertex  9.924000e+001  1.019006e+001  4.400000e+000
      vertex  9.924000e+001  3.154000e+001  5.650000e+000
      vertex  9.924000e+001  2.536612e+001  4.400000e+000
    endloop
  endfacet
  facet normal -1.000000e+000  0.000000e+000  0.000000e+000
    outer loop
      vertex  9.924000e+001  2.536612e+001  4.400000e+000
      vertex  9.924000e+001  3.154000e+001  5.650000e+000
      vertex  9.924000e+001  3.154000e+001  1.650000e+000
    endloop
  endfacet
  facet normal -1.000000e+000  0.000000e+000  0.000000e+000
    outer loop
      vertex  9.924000e+001  2.536612e+001  4.400000e+000
      vertex  9.924000e+001  3.154000e+001  1.650000e+000
      vertex  9.924000e+001  2.536612e+001  1.650000e+000
    endloop
  endfacet
  facet normal -9.801652e-002  9.951848e-001  0.000000e+000
    outer loop
      vertex  1.005000e+002  1.150000e+000  1.650000e+000
      vertex  1.007634e+002  1.175940e+000  5.650000e+000
      vertex  1.007634e+002  1.175940e+000  1.650000e+000
    endloop
  endfacet
  facet normal -2.902853e-001  9.569401e-001  0.000000e+000
    outer loop
      vertex  1.007634e+002  1.175940e+000  1.650000e+000
      vertex  1.007634e+002  1.175940e+000  5.650000e+000
      vertex  1.010166e+002  1.252763e+000  5.650000e+000
    endloop
  endfacet
  facet normal -2.902853e-001  9.569401e-001  0.000000e+000
    outer loop
      vertex  1.007634e+002  1.175940e+000  1.650000e+000
      vertex  1.010166e+002  1.252763e+000  5.650000e+000
      vertex  1.010166e+002  1.252763e+000  1.650000e+000
    endloop
  endfacet
  facet normal -4.713947e-001  8.819224e-001  0.000000e+000
    outer loop
      vertex  1.010166e+002  1.252763e+000  1.650000e+000
      vertex  1.010166e+002  1.252763e+000  5.650000e+000
      vertex  1.012500e+002  1.377516e+000  5.650000e+000
    endloop
  endfacet
  facet normal -4.713947e-001  8.819224e-001  0.000000e+000
    outer loop
      vertex  1.010166e+002  1.252763e+000  1.650000e+000
      vertex  1.012500e+002  1.377516e+000  5.650000e+000
      vertex  1.012500e+002  1.377516e+000  1.650000e+000
    endloop
  endfacet
  facet normal -6.343929e-001  7.730108e-001  0.000000e+000
    outer loop
      vertex  1.012500e+002  1.377516e+000  1.650000e+000
      vertex  1.012500e+002  1.377516e+000  5.650000e+000
      vertex  1.014546e+002  1.545406e+000  5.650000e+000
    endloop
  endfacet
  facet normal -6.343929e-001  7.730108e-001  0.000000e+000
    outer loop
      vertex  1.012500e+002  1.377516e+000  1.650000e+000
      vertex  1.014546e+002  1.545406e+000  5.650000e+000
      vertex  1.014546e+002  1.545406e+000  1.650000e+000
    endloop
  endfacet
  facet normal -7.730197e-001  6.343820e-001  0.000000e+000
    outer loop
      vertex  1.014546e+002  1.545406e+000  1.650000e+000
      vertex  1.014546e+002  1.545406e+000  5.650000e+000
      vertex  1.016225e+002  1.749980e+000  5.650000e+000
    endloop
  endfacet
  facet normal -7.730197e-001  6.343820e-001  0.000000e+000
    outer loop
      vertex  1.014546e+002  1.545406e+000  1.650000e+000
      vertex  1.016225e+002  1.749980e+000  5.650000e+000
      vertex  1.016225e+002  1.749980e+000  1.650000e+000
    endloop
  endfacet
  facet normal -8.819173e-001  4.714041e-001  0.000000e+000
    outer loop
      vertex  1.016225e+002  1.749980e+000  1.650000e+000
      vertex  1.016225e+002  1.749980e+000  5.650000e+000
      vertex  1.017472e+002  1.983377e+000  5.650000e+000
    endloop
  endfacet
  facet normal -8.819173e-001  4.714041e-001  0.000000e+000
    outer loop
      vertex  1.016225e+002  1.749980e+000  1.650000e+000
      vertex  1.017472e+002  1.983377e+000  5.650000e+000
      vertex  1.017472e+002  1.983377e+000  1.650000e+000
    endloop
  endfacet
  facet normal -9.569428e-001  2.902764e-001  0.000000e+000
    outer loop
      vertex  1.017472e+002  1.983377e+000  1.650000e+000
      vertex  1.017472e+002  1.983377e+000  5.650000e+000
      vertex  1.018241e+002  2.236628e+000  5.650000e+000
    endloop
  endfacet
  facet normal -9.569428e-001  2.902764e-001  0.000000e+000
    outer loop
      vertex  1.017472e+002  1.983377e+000  1.650000e+000
      vertex  1.018241e+002  2.236628e+000  5.650000e+000
      vertex  1.018241e+002  2.236628e+000  1.650000e+000
    endloop
  endfacet
  facet normal -9.951847e-001  9.801739e-002  0.000000e+000
    outer loop
      vertex  1.018241e+002  2.236628e+000  1.650000e+000
      vertex  1.018241e+002  2.236628e+000  5.650000e+000
      vertex  1.018500e+002  2.500000e+000  5.650000e+000
    endloop
  endfacet
  facet normal -9.951847e-001  9.801739e-002  0.000000e+000
    outer loop
      vertex  1.018241e+002  2.236628e+000  1.650000e+000
      vertex  1.018500e+002  2.500000e+000  5.650000e+000
      vertex  1.018500e+002  2.500000e+000  1.650000e+000
    endloop
  endfacet
  facet normal -9.801652e-002  9.951848e-001  0.000000e+000
    outer loop
      vertex  1.007634e+002  1.175940e+000  5.650000e+000
      vertex  1.005000e+002  1.150000e+000  1.650000e+000
      vertex  1.005000e+002  1.150000e+000  5.650000e+000
    endloop
  endfacet
  facet normal  9.801652e-002  9.951848e-001  0.000000e+000
    outer loop
      vertex  1.005000e+002  1.150000e+000  5.650000e+000
      vertex  1.005000e+002  1.150000e+000  1.650000e+000
      vertex  1.002366e+002  1.175940e+000  1.650000e+000
    endloop
  endfacet
  facet normal  9.801652e-002  9.951848e-001  -0.000000e+000
    outer loop
      vertex  1.005000e+002  1.150000e+000  5.650000e+000
      vertex  1.002366e+002  1.175940e+000  1.650000e+000
      vertex  1.002366e+002  1.175940e+000  5.650000e+000
    endloop
  endfacet
  facet normal  2.902853e-001  9.569401e-001  0.000000e+000
    outer loop
      vertex  1.002366e+002  1.175940e+000  5.650000e+000
      vertex  1.002366e+002  1.175940e+000  1.650000e+000
      vertex  9.998338e+001  1.252763e+000  1.650000e+000
    endloop
  endfacet
  facet normal  2.902853e-001  9.569401e-001  -0.000000e+000
    outer loop
      vertex  1.002366e+002  1.175940e+000  5.650000e+000
      vertex  9.998338e+001  1.252763e+000  1.650000e+000
      vertex  9.998338e+001  1.252763e+000  5.650000e+000
    endloop
  endfacet
  facet normal  4.713947e-001  8.819224e-001  0.000000e+000
    outer loop
      vertex  9.998338e+001  1.252763e+000  5.650000e+000
      vertex  9.998338e+001  1.252763e+000  1.650000e+000
      vertex  9.974998e+001  1.377516e+000  1.650000e+000
    endloop
  endfacet
  facet normal  4.713947e-001  8.819224e-001  -0.000000e+000
    outer loop
      vertex  9.998338e+001  1.252763e+000  5.650000e+000
      vertex  9.974998e+001  1.377516e+000  1.650000e+000
      vertex  9.974998e+001  1.377516e+000  5.650000e+000
    endloop
  endfacet
  facet normal  6.343929e-001  7.730108e-001  0.000000e+000
    outer loop
      vertex  9.974998e+001  1.377516e+000  5.650000e+000
      vertex  9.974998e+001  1.377516e+000  1.650000e+000
      vertex  9.954540e+001  1.545406e+000  1.650000e+000
    endloop
  endfacet
  facet normal  6.343929e-001  7.730108e-001  -0.000000e+000
    outer loop
      vertex  9.974998e+001  1.377516e+000  5.650000e+000
      vertex  9.954540e+001  1.545406e+000  1.650000e+000
      vertex  9.954540e+001  1.545406e+000  5.650000e+000
    endloop
  endfacet
  facet normal  7.730197e-001  6.343820e-001  0.000000e+000
    outer loop
      vertex  9.954540e+001  1.545406e+000  5.650000e+000
      vertex  9.954540e+001  1.545406e+000  1.650000e+000
      vertex  9.937752e+001  1.749980e+000  1.650000e+000
    endloop
  endfacet
  facet normal  7.730197e-001  6.343820e-001  -0.000000e+000
    outer loop
      vertex  9.954540e+001  1.545406e+000  5.650000e+000
      vertex  9.937752e+001  1.749980e+000  1.650000e+000
      vertex  9.937752e+001  1.749980e+000  5.650000e+000
    endloop
  endfacet
  facet normal  8.819173e-001  4.714041e-001  0.000000e+000
    outer loop
      vertex  9.937752e+001  1.749980e+000  5.650000e+000
      vertex  9.937752e+001  1.749980e+000  1.650000e+000
      vertex  9.925276e+001  1.983377e+000  1.650000e+000
    endloop
  endfacet
  facet normal  8.819173e-001  4.714041e-001  -0.000000e+000
    outer loop
      vertex  9.937752e+001  1.749980e+000  5.650000e+000
      vertex  9.925276e+001  1.983377e+000  1.650000e+000
      vertex  9.925276e+001  1.983377e+000  5.650000e+000
    endloop
  endfacet
  facet normal  9.569428e-001  2.902764e-001  0.000000e+000
    outer loop
      vertex  9.925276e+001  1.983377e+000  5.650000e+000
      vertex  9.925276e+001  1.983377e+000  1.650000e+000
      vertex  9.917594e+001  2.236628e+000  1.650000e+000
    endloop
  endfacet
  facet normal  9.569428e-001  2.902764e-001  -0.000000e+000
    outer loop
      vertex  9.925276e+001  1.983377e+000  5.650000e+000
      vertex  9.917594e+001  2.236628e+000  1.650000e+000
      vertex  9.917594e+001  2.236628e+000  5.650000e+000
    endloop
  endfacet
  facet normal  9.951847e-001  9.801739e-002  0.000000e+000
    outer loop
      vertex  9.917594e+001  2.236628e+000  5.650000e+000
      vertex  9.917594e+001  2.236628e+000  1.650000e+000
      vertex  9.915000e+001  2.500000e+000  1.650000e+000
    endloop
  endfacet
  facet normal  9.951847e-001  9.801739e-002  -0.000000e+000
    outer loop
      vertex  9.917594e+001  2.236628e+000  5.650000e+000
      vertex  9.915000e+001  2.500000e+000  1.650000e+000
      vertex  9.915000e+001  2.500000e+000  5.650000e+000
    endloop
  endfacet
  facet normal  9.801563e-002 -9.951848e-001  0.000000e+000
    outer loop
      vertex  1.005000e+002  3.850000e+000  1.650000e+000
      vertex  1.002366e+002  3.824060e+000  5.650000e+000
      vertex  1.002366e+002  3.824060e+000  1.650000e+000
    endloop
  endfacet
  facet normal  2.902853e-001 -9.569401e-001  0.000000e+000
    outer loop
      vertex  1.002366e+002  3.824060e+000  1.650000e+000
      vertex  1.002366e+002  3.824060e+000  5.650000e+000
      vertex  9.998338e+001  3.747237e+000  5.650000e+000
    endloop
  endfacet
  facet normal  2.902853e-001 -9.569401e-001  0.000000e+000
    outer loop
      vertex  1.002366e+002  3.824060e+000  1.650000e+000
      vertex  9.998338e+001  3.747237e+000  5.650000e+000
      vertex  9.998338e+001  3.747237e+000  1.650000e+000
    endloop
  endfacet
  facet normal  4.713950e-001 -8.819222e-001  0.000000e+000
    outer loop
      vertex  9.998338e+001  3.747237e+000  1.650000e+000
      vertex  9.998338e+001  3.747237e+000  5.650000e+000
      vertex  9.974998e+001  3.622484e+000  5.650000e+000
    endloop
  endfacet
  facet normal  4.713950e-001 -8.819222e-001  0.000000e+000
    outer loop
      vertex  9.998338e+001  3.747237e+000  1.650000e+000
      vertex  9.974998e+001  3.622484e+000  5.650000e+000
      vertex  9.974998e+001  3.622484e+000  1.650000e+000
    endloop
  endfacet
  facet normal  6.343929e-001 -7.730108e-001  0.000000e+000
    outer loop
      vertex  9.974998e+001  3.622484e+000  1.650000e+000
      vertex  9.974998e+001  3.622484e+000  5.650000e+000
      vertex  9.954540e+001  3.454594e+000  5.650000e+000
    endloop
  endfacet
  facet normal  6.343929e-001 -7.730108e-001  0.000000e+000
    outer loop
      vertex  9.974998e+001  3.622484e+000  1.650000e+000
      vertex  9.954540e+001  3.454594e+000  5.650000e+000
      vertex  9.954540e+001  3.454594e+000  1.650000e+000
    endloop
  endfacet
  facet normal  7.730197e-001 -6.343820e-001  0.000000e+000
    outer loop
      vertex  9.954540e+001  3.454594e+000  1.650000e+000
      vertex  9.954540e+001  3.454594e+000  5.650000e+000
      vertex  9.937752e+001  3.250020e+000  5.650000e+000
    endloop
  endfacet
  facet normal  7.730197e-001 -6.343820e-001  0.000000e+000
    outer loop
      vertex  9.954540e+001  3.454594e+000  1.650000e+000
      vertex  9.937752e+001  3.250020e+000  5.650000e+000
      vertex  9.937752e+001  3.250020e+000  1.650000e+000
    endloop
  endfacet
  facet normal  8.819174e-001 -4.714039e-001  0.000000e+000
    outer loop
      vertex  9.937752e+001  3.250020e+000  1.650000e+000
      vertex  9.937752e+001  3.250020e+000  5.650000e+000
      vertex  9.925276e+001  3.016623e+000  5.650000e+000
    endloop
  endfacet
  facet normal  8.819174e-001 -4.714039e-001  0.000000e+000
    outer loop
      vertex  9.937752e+001  3.250020e+000  1.650000e+000
      vertex  9.925276e+001  3.016623e+000  5.650000e+000
      vertex  9.925276e+001  3.016623e+000  1.650000e+000
    endloop
  endfacet
  facet normal  9.569428e-001 -2.902765e-001  0.000000e+000
    outer loop
      vertex  9.925276e+001  3.016623e+000  1.650000e+000
      vertex  9.925276e+001  3.016623e+000  5.650000e+000
      vertex  9.917594e+001  2.763372e+000  5.650000e+000
    endloop
  endfacet
  facet normal  9.569428e-001 -2.902765e-001  0.000000e+000
    outer loop
      vertex  9.925276e+001  3.016623e+000  1.650000e+000
      vertex  9.917594e+001  2.763372e+000  5.650000e+000
      vertex  9.917594e+001  2.763372e+000  1.650000e+000
    endloop
  endfacet
  facet normal  9.951847e-001 -9.801739e-002  0.000000e+000
    outer loop
      vertex  9.917594e+001  2.763372e+000  1.650000e+000
      vertex  9.917594e+001  2.763372e+000  5.650000e+000
      vertex  9.915000e+001  2.500000e+000  5.650000e+000
    endloop
  endfacet
  facet normal  9.951847e-001 -9.801739e-002  0.000000e+000
    outer loop
      vertex  9.917594e+001  2.763372e+000  1.650000e+000
      vertex  9.915000e+001  2.500000e+000  5.650000e+000
      vertex  9.915000e+001  2.500000e+000  1.650000e+000
    endloop
  endfacet
  facet normal  9.801563e-002 -9.951848e-001  0.000000e+000
    outer loop
      vertex  1.002366e+002  3.824060e+000  5.650000e+000
      vertex  1.005000e+002  3.850000e+000  1.650000e+000
      vertex  1.005000e+002  3.850000e+000  5.650000e+000
    endloop
  endfacet
  facet normal -9.801563e-002 -9.951848e-001  -0.000000e+000
    outer loop
      vertex  1.005000e+002  3.850000e+000  5.650000e+000
      vertex  1.005000e+002  3.850000e+000  1.650000e+000
      vertex  1.007634e+002  3.824060e+000  1.650000e+000
    endloop
  endfacet
  facet normal -9.801563e-002 -9.951848e-001  0.000000e+000
    outer loop
      vertex  1.005000e+002  3.850000e+000  5.650000e+000
      vertex  1.007634e+002  3.824060e+000  1.650000e+000
      vertex  1.007634e+002  3.824060e+000  5.650000e+000
    endloop
  endfacet
  facet normal -2.902853e-001 -9.569401e-001  -0.000000e+000
    outer loop
      vertex  1.007634e+002  3.824060e+000  5.650000e+000
      vertex  1.007634e+002  3.824060e+000  1.650000e+000
      vertex  1.010166e+002  3.747237e+000  1.650000e+000
    endloop
  endfacet
  facet normal -2.902853e-001 -9.569401e-001  0.000000e+000
    outer loop
      vertex  1.007634e+002  3.824060e+000  5.650000e+000
      vertex  1.010166e+002  3.747237e+000  1.650000e+000
      vertex  1.010166e+002  3.747237e+000  5.650000e+000
    endloop
  endfacet
  facet normal -4.713950e-001 -8.819222e-001  -0.000000e+000
    outer loop
      vertex  1.010166e+002  3.747237e+000  5.650000e+000
      vertex  1.010166e+002  3.747237e+000  1.650000e+000
      vertex  1.012500e+002  3.622484e+000  1.650000e+000
    endloop
  endfacet
  facet normal -4.713950e-001 -8.819222e-001  0.000000e+000
    outer loop
      vertex  1.010166e+002  3.747237e+000  5.650000e+000
      vertex  1.012500e+002  3.622484e+000  1.650000e+000
      vertex  1.012500e+002  3.622484e+000  5.650000e+000
    endloop
  endfacet
  facet normal -6.343929e-001 -7.730108e-001  -0.000000e+000
    outer loop
      vertex  1.012500e+002  3.622484e+000  5.650000e+000
      vertex  1.012500e+002  3.622484e+000  1.650000e+000
      vertex  1.014546e+002  3.454594e+000  1.650000e+000
    endloop
  endfacet
  facet normal -6.343929e-001 -7.730108e-001  0.000000e+000
    outer loop
      vertex  1.012500e+002  3.622484e+000  5.650000e+000
      vertex  1.014546e+002  3.454594e+000  1.650000e+000
      vertex  1.014546e+002  3.454594e+000  5.650000e+000
    endloop
  endfacet
  facet normal -7.730197e-001 -6.343820e-001  -0.000000e+000
    outer loop
      vertex  1.014546e+002  3.454594e+000  5.650000e+000
      vertex  1.014546e+002  3.454594e+000  1.650000e+000
      vertex  1.016225e+002  3.250020e+000  1.650000e+000
    endloop
  endfacet
  facet normal -7.730197e-001 -6.343820e-001  0.000000e+000
    outer loop
      vertex  1.014546e+002  3.454594e+000  5.650000e+000
      vertex  1.016225e+002  3.250020e+000  1.650000e+000
      vertex  1.016225e+002  3.250020e+000  5.650000e+000
    endloop
  endfacet
  facet normal -8.819174e-001 -4.714039e-001  -0.000000e+000
    outer loop
      vertex  1.016225e+002  3.250020e+000  5.650000e+000
      vertex  1.016225e+002  3.250020e+000  1.650000e+000
      vertex  1.017472e+002  3.016623e+000  1.650000e+000
    endloop
  endfacet
  facet normal -8.819174e-001 -4.714039e-001  0.000000e+000
    outer loop
      vertex  1.016225e+002  3.250020e+000  5.650000e+000
      vertex  1.017472e+002  3.016623e+000  1.650000e+000
      vertex  1.017472e+002  3.016623e+000  5.650000e+000
    endloop
  endfacet
  facet normal -9.569428e-001 -2.902765e-001  -0.000000e+000
    outer loop
      vertex  1.017472e+002  3.016623e+000  5.650000e+000
      vertex  1.017472e+002  3.016623e+000  1.650000e+000
      vertex  1.018241e+002  2.763372e+000  1.650000e+000
    endloop
  endfacet
  facet normal -9.569428e-001 -2.902765e-001  0.000000e+000
    outer loop
      vertex  1.017472e+002  3.016623e+000  5.650000e+000
      vertex  1.018241e+002  2.763372e+000  1.650000e+000
      vertex  1.018241e+002  2.763372e+000  5.650000e+000
    endloop
  endfacet
  facet normal -9.951847e-001 -9.801739e-002  -0.000000e+000
    outer loop
      vertex  1.018241e+002  2.763372e+000  5.650000e+000
      vertex  1.018241e+002  2.763372e+000  1.650000e+000
      vertex  1.018500e+002  2.500000e+000  1.650000e+000
    endloop
  endfacet
  facet normal -9.951847e-001 -9.801739e-002  0.000000e+000
    outer loop
      vertex  1.018241e+002  2.763372e+000  5.650000e+000
      vertex  1.018500e+002  2.500000e+000  1.650000e+000
      vertex  1.018500e+002  2.500000e+000  5.650000e+000
    endloop
  endfacet
  facet normal -9.801652e-002  9.951848e-001  0.000000e+000
    outer loop
      vertex  1.005000e+002  3.215000e+001  1.650000e+000
      vertex  1.007634e+002  3.217594e+001  5.650000e+000
      vertex  1.007634e+002  3.217594e+001  1.650000e+000
    endloop
  endfacet
  facet normal -2.902770e-001  9.569426e-001  0.000000e+000
    outer loop
      vertex  1.007634e+002  3.217594e+001  1.650000e+000
      vertex  1.007634e+002  3.217594e+001  5.650000e+000
      vertex  1.010166e+002  3.225276e+001  5.650000e+000
    endloop
  endfacet
  facet normal -2.902770e-001  9.569426e-001  0.000000e+000
    outer loop
      vertex  1.007634e+002  3.217594e+001  1.650000e+000
      vertex  1.010166e+002  3.225276e+001  5.650000e+000
      vertex  1.010166e+002  3.225276e+001  1.650000e+000
    endloop
  endfacet
  facet normal -4.714020e-001  8.819184e-001  0.000000e+000
    outer loop
      vertex  1.010166e+002  3.225276e+001  1.650000e+000
      vertex  1.010166e+002  3.225276e+001  5.650000e+000
      vertex  1.012500e+002  3.237752e+001  5.650000e+000
    endloop
  endfacet
  facet normal -4.714020e-001  8.819184e-001  0.000000e+000
    outer loop
      vertex  1.010166e+002  3.225276e+001  1.650000e+000
      vertex  1.012500e+002  3.237752e+001  5.650000e+000
      vertex  1.012500e+002  3.237752e+001  1.650000e+000
    endloop
  endfacet
  facet normal -6.343901e-001  7.730130e-001  0.000000e+000
    outer loop
      vertex  1.012500e+002  3.237752e+001  1.650000e+000
      vertex  1.012500e+002  3.237752e+001  5.650000e+000
      vertex  1.014546e+002  3.254541e+001  5.650000e+000
    endloop
  endfacet
  facet normal -6.343901e-001  7.730130e-001  0.000000e+000
    outer loop
      vertex  1.012500e+002  3.237752e+001  1.650000e+000
      vertex  1.014546e+002  3.254541e+001  5.650000e+000
      vertex  1.014546e+002  3.254541e+001  1.650000e+000
    endloop
  endfacet
  facet normal -7.730200e-001  6.343815e-001  0.000000e+000
    outer loop
      vertex  1.014546e+002  3.254541e+001  1.650000e+000
      vertex  1.014546e+002  3.254541e+001  5.650000e+000
      vertex  1.016225e+002  3.274998e+001  5.650000e+000
    endloop
  endfacet
  facet normal -7.730200e-001  6.343815e-001  0.000000e+000
    outer loop
      vertex  1.014546e+002  3.254541e+001  1.650000e+000
      vertex  1.016225e+002  3.274998e+001  5.650000e+000
      vertex  1.016225e+002  3.274998e+001  1.650000e+000
    endloop
  endfacet
  facet normal -8.819152e-001  4.714080e-001  0.000000e+000
    outer loop
      vertex  1.016225e+002  3.274998e+001  1.650000e+000
      vertex  1.016225e+002  3.274998e+001  5.650000e+000
      vertex  1.017472e+002  3.298338e+001  5.650000e+000
    endloop
  endfacet
  facet normal -8.819152e-001  4.714080e-001  0.000000e+000
    outer loop
      vertex  1.016225e+002  3.274998e+001  1.650000e+000
      vertex  1.017472e+002  3.298338e+001  5.650000e+000
      vertex  1.017472e+002  3.298338e+001  1.650000e+000
    endloop
  endfacet
  facet normal -9.569439e-001  2.902730e-001  0.000000e+000
    outer loop
      vertex  1.017472e+002  3.298338e+001  1.650000e+000
      vertex  1.017472e+002  3.298338e+001  5.650000e+000
      vertex  1.018241e+002  3.323663e+001  5.650000e+000
    endloop
  endfacet
  facet normal -9.569439e-001  2.902730e-001  0.000000e+000
    outer loop
      vertex  1.017472e+002  3.298338e+001  1.650000e+000
      vertex  1.018241e+002  3.323663e+001  5.650000e+000
      vertex  1.018241e+002  3.323663e+001  1.650000e+000
    endloop
  endfacet
  facet normal -9.951847e-001  9.801793e-002  0.000000e+000
    outer loop
      vertex  1.018241e+002  3.323663e+001  1.650000e+000
      vertex  1.018241e+002  3.323663e+001  5.650000e+000
      vertex  1.018500e+002  3.350000e+001  5.650000e+000
    endloop
  endfacet
  facet normal -9.951847e-001  9.801793e-002  0.000000e+000
    outer loop
      vertex  1.018241e+002  3.323663e+001  1.650000e+000
      vertex  1.018500e+002  3.350000e+001  5.650000e+000
      vertex  1.018500e+002  3.350000e+001  1.650000e+000
    endloop
  endfacet
  facet normal -9.801652e-002  9.951848e-001  0.000000e+000
    outer loop
      vertex  1.007634e+002  3.217594e+001  5.650000e+000
      vertex  1.005000e+002  3.215000e+001  1.650000e+000
      vertex  1.005000e+002  3.215000e+001  5.650000e+000
    endloop
  endfacet
  facet normal  9.801652e-002  9.951848e-001  0.000000e+000
    outer loop
      vertex  1.005000e+002  3.215000e+001  5.650000e+000
      vertex  1.005000e+002  3.215000e+001  1.650000e+000
      vertex  1.002366e+002  3.217594e+001  1.650000e+000
    endloop
  endfacet
  facet normal  9.801652e-002  9.951848e-001  -0.000000e+000
    outer loop
      vertex  1.005000e+002  3.215000e+001  5.650000e+000
      vertex  1.002366e+002  3.217594e+001  1.650000e+000
      vertex  1.002366e+002  3.217594e+001  5.650000e+000
    endloop
  endfacet
  facet normal  2.902770e-001  9.569426e-001  0.000000e+000
    outer loop
      vertex  1.002366e+002  3.217594e+001  5.650000e+000
      vertex  1.002366e+002  3.217594e+001  1.650000e+000
      vertex  9.998338e+001  3.225276e+001  1.650000e+000
    endloop
  endfacet
  facet normal  2.902770e-001  9.569426e-001  -0.000000e+000
    outer loop
      vertex  1.002366e+002  3.217594e+001  5.650000e+000
      vertex  9.998338e+001  3.225276e+001  1.650000e+000
      vertex  9.998338e+001  3.225276e+001  5.650000e+000
    endloop
  endfacet
  facet normal  4.714020e-001  8.819184e-001  0.000000e+000
    outer loop
      vertex  9.998338e+001  3.225276e+001  5.650000e+000
      vertex  9.998338e+001  3.225276e+001  1.650000e+000
      vertex  9.974998e+001  3.237752e+001  1.650000e+000
    endloop
  endfacet
  facet normal  4.714020e-001  8.819184e-001  -0.000000e+000
    outer loop
      vertex  9.998338e+001  3.225276e+001  5.650000e+000
      vertex  9.974998e+001  3.237752e+001  1.650000e+000
      vertex  9.974998e+001  3.237752e+001  5.650000e+000
    endloop
  endfacet
  facet normal  6.343901e-001  7.730130e-001  0.000000e+000
    outer loop
      vertex  9.974998e+001  3.237752e+001  5.650000e+000
      vertex  9.974998e+001  3.237752e+001  1.650000e+000
      vertex  9.954540e+001  3.254541e+001  1.650000e+000
    endloop
  endfacet
  facet normal  6.343901e-001  7.730130e-001  -0.000000e+000
    outer loop
      vertex  9.974998e+001  3.237752e+001  5.650000e+000
      vertex  9.954540e+001  3.254541e+001  1.650000e+000
      vertex  9.954540e+001  3.254541e+001  5.650000e+000
    endloop
  endfacet
  facet normal  7.730200e-001  6.343815e-001  0.000000e+000
    outer loop
      vertex  9.954540e+001  3.254541e+001  5.650000e+000
      vertex  9.954540e+001  3.254541e+001  1.650000e+000
      vertex  9.937752e+001  3.274998e+001  1.650000e+000
    endloop
  endfacet
  facet normal  7.730200e-001  6.343815e-001  -0.000000e+000
    outer loop
      vertex  9.954540e+001  3.254541e+001  5.650000e+000
      vertex  9.937752e+001  3.274998e+001  1.650000e+000
      vertex  9.937752e+001  3.274998e+001  5.650000e+000
    endloop
  endfacet
  facet normal  8.819152e-001  4.714080e-001  0.000000e+000
    outer loop
      vertex  9.937752e+001  3.274998e+001  5.650000e+000
      vertex  9.937752e+001  3.274998e+001  1.650000e+000
      vertex  9.925276e+001  3.298338e+001  1.650000e+000
    endloop
  endfacet
  facet normal  8.819152e-001  4.714080e-001  -0.000000e+000
    outer loop
      vertex  9.937752e+001  3.274998e+001  5.650000e+000
      vertex  9.925276e+001  3.298338e+001  1.650000e+000
      vertex  9.925276e+001  3.298338e+001  5.650000e+000
    endloop
  endfacet
  facet normal  9.569439e-001  2.902730e-001  0.000000e+000
    outer loop
      vertex  9.925276e+001  3.298338e+001  5.650000e+000
      vertex  9.925276e+001  3.298338e+001  1.650000e+000
      vertex  9.917594e+001  3.323663e+001  1.650000e+000
    endloop
  endfacet
  facet normal  9.569439e-001  2.902730e-001  -0.000000e+000
    outer loop
      vertex  9.925276e+001  3.298338e+001  5.650000e+000
      vertex  9.917594e+001  3.323663e+001  1.650000e+000
      vertex  9.917594e+001  3.323663e+001  5.650000e+000
    endloop
  endfacet
  facet normal  9.951847e-001  9.801793e-002  0.000000e+000
    outer loop
      vertex  9.917594e+001  3.323663e+001  5.650000e+000
      vertex  9.917594e+001  3.323663e+001  1.650000e+000
      vertex  9.915000e+001  3.350000e+001  1.650000e+000
    endloop
  endfacet
  facet normal  9.951847e-001  9.801793e-002  -0.000000e+000
    outer loop
      vertex  9.917594e+001  3.323663e+001  5.650000e+000
      vertex  9.915000e+001  3.350000e+001  1.650000e+000
      vertex  9.915000e+001  3.350000e+001  5.650000e+000
    endloop
  endfacet
  facet normal  9.801652e-002 -9.951848e-001  0.000000e+000
    outer loop
      vertex  1.005000e+002  3.485000e+001  1.650000e+000
      vertex  1.002366e+002  3.482406e+001  5.650000e+000
      vertex  1.002366e+002  3.482406e+001  1.650000e+000
    endloop
  endfacet
  facet normal  2.902770e-001 -9.569426e-001  0.000000e+000
    outer loop
      vertex  1.002366e+002  3.482406e+001  1.650000e+000
      vertex  1.002366e+002  3.482406e+001  5.650000e+000
      vertex  9.998338e+001  3.474724e+001  5.650000e+000
    endloop
  endfacet
  facet normal  2.902770e-001 -9.569426e-001  0.000000e+000
    outer loop
      vertex  1.002366e+002  3.482406e+001  1.650000e+000
      vertex  9.998338e+001  3.474724e+001  5.650000e+000
      vertex  9.998338e+001  3.474724e+001  1.650000e+000
    endloop
  endfacet
  facet normal  4.714020e-001 -8.819184e-001  0.000000e+000
    outer loop
      vertex  9.998338e+001  3.474724e+001  1.650000e+000
      vertex  9.998338e+001  3.474724e+001  5.650000e+000
      vertex  9.974998e+001  3.462248e+001  5.650000e+000
    endloop
  endfacet
  facet normal  4.714020e-001 -8.819184e-001  0.000000e+000
    outer loop
      vertex  9.998338e+001  3.474724e+001  1.650000e+000
      vertex  9.974998e+001  3.462248e+001  5.650000e+000
      vertex  9.974998e+001  3.462248e+001  1.650000e+000
    endloop
  endfacet
  facet normal  6.343901e-001 -7.730130e-001  0.000000e+000
    outer loop
      vertex  9.974998e+001  3.462248e+001  1.650000e+000
      vertex  9.974998e+001  3.462248e+001  5.650000e+000
      vertex  9.954540e+001  3.445459e+001  5.650000e+000
    endloop
  endfacet
  facet normal  6.343901e-001 -7.730130e-001  0.000000e+000
    outer loop
      vertex  9.974998e+001  3.462248e+001  1.650000e+000
      vertex  9.954540e+001  3.445459e+001  5.650000e+000
      vertex  9.954540e+001  3.445459e+001  1.650000e+000
    endloop
  endfacet
  facet normal  7.730200e-001 -6.343815e-001  0.000000e+000
    outer loop
      vertex  9.954540e+001  3.445459e+001  1.650000e+000
      vertex  9.954540e+001  3.445459e+001  5.650000e+000
      vertex  9.937752e+001  3.425002e+001  5.650000e+000
    endloop
  endfacet
  facet normal  7.730200e-001 -6.343815e-001  0.000000e+000
    outer loop
      vertex  9.954540e+001  3.445459e+001  1.650000e+000
      vertex  9.937752e+001  3.425002e+001  5.650000e+000
      vertex  9.937752e+001  3.425002e+001  1.650000e+000
    endloop
  endfacet
  facet normal  8.819152e-001 -4.714080e-001  0.000000e+000
    outer loop
      vertex  9.937752e+001  3.425002e+001  1.650000e+000
      vertex  9.937752e+001  3.425002e+001  5.650000e+000
      vertex  9.925276e+001  3.401662e+001  5.650000e+000
    endloop
  endfacet
  facet normal  8.819152e-001 -4.714080e-001  0.000000e+000
    outer loop
      vertex  9.937752e+001  3.425002e+001  1.650000e+000
      vertex  9.925276e+001  3.401662e+001  5.650000e+000
      vertex  9.925276e+001  3.401662e+001  1.650000e+000
    endloop
  endfacet
  facet normal  9.569439e-001 -2.902730e-001  0.000000e+000
    outer loop
      vertex  9.925276e+001  3.401662e+001  1.650000e+000
      vertex  9.925276e+001  3.401662e+001  5.650000e+000
      vertex  9.917594e+001  3.376337e+001  5.650000e+000
    endloop
  endfacet
  facet normal  9.569439e-001 -2.902730e-001  0.000000e+000
    outer loop
      vertex  9.925276e+001  3.401662e+001  1.650000e+000
      vertex  9.917594e+001  3.376337e+001  5.650000e+000
      vertex  9.917594e+001  3.376337e+001  1.650000e+000
    endloop
  endfacet
  facet normal  9.951847e-001 -9.801793e-002  0.000000e+000
    outer loop
      vertex  9.917594e+001  3.376337e+001  1.650000e+000
      vertex  9.917594e+001  3.376337e+001  5.650000e+000
      vertex  9.915000e+001  3.350000e+001  5.650000e+000
    endloop
  endfacet
  facet normal  9.951847e-001 -9.801793e-002  0.000000e+000
    outer loop
      vertex  9.917594e+001  3.376337e+001  1.650000e+000
      vertex  9.915000e+001  3.350000e+001  5.650000e+000
      vertex  9.915000e+001  3.350000e+001  1.650000e+000
    endloop
  endfacet
  facet normal  9.801652e-002 -9.951848e-001  0.000000e+000
    outer loop
      vertex  1.002366e+002  3.482406e+001  5.650000e+000
      vertex  1.005000e+002  3.485000e+001  1.650000e+000
      vertex  1.005000e+002  3.485000e+001  5.650000e+000
    endloop
  endfacet
  facet normal -9.801652e-002 -9.951848e-001  -0.000000e+000
    outer loop
      vertex  1.005000e+002  3.485000e+001  5.650000e+000
      vertex  1.005000e+002  3.485000e+001  1.650000e+000
      vertex  1.007634e+002  3.482406e+001  1.650000e+000
    endloop
  endfacet
  facet normal -9.801652e-002 -9.951848e-001  0.000000e+000
    outer loop
      vertex  1.005000e+002  3.485000e+001  5.650000e+000
      vertex  1.007634e+002  3.482406e+001  1.650000e+000
      vertex  1.007634e+002  3.482406e+001  5.650000e+000
    endloop
  endfacet
  facet normal -2.902770e-001 -9.569426e-001  -0.000000e+000
    outer loop
      vertex  1.007634e+002  3.482406e+001  5.650000e+000
      vertex  1.007634e+002  3.482406e+001  1.650000e+000
      vertex  1.010166e+002  3.474724e+001  1.650000e+000
    endloop
  endfacet
  facet normal -2.902770e-001 -9.569426e-001  0.000000e+000
    outer loop
      vertex  1.007634e+002  3.482406e+001  5.650000e+000
      vertex  1.010166e+002  3.474724e+001  1.650000e+000
      vertex  1.010166e+002  3.474724e+001  5.650000e+000
    endloop
  endfacet
  facet normal -4.714020e-001 -8.819184e-001  -0.000000e+000
    outer loop
      vertex  1.010166e+002  3.474724e+001  5.650000e+000
      vertex  1.010166e+002  3.474724e+001  1.650000e+000
      vertex  1.012500e+002  3.462248e+001  1.650000e+000
    endloop
  endfacet
  facet normal -4.714020e-001 -8.819184e-001  0.000000e+000
    outer loop
      vertex  1.010166e+002  3.474724e+001  5.650000e+000
      vertex  1.012500e+002  3.462248e+001  1.650000e+000
      vertex  1.012500e+002  3.462248e+001  5.650000e+000
    endloop
  endfacet
  facet normal -6.343901e-001 -7.730130e-001  -0.000000e+000
    outer loop
      vertex  1.012500e+002  3.462248e+001  5.650000e+000
      vertex  1.012500e+002  3.462248e+001  1.650000e+000
      vertex  1.014546e+002  3.445459e+001  1.650000e+000
    endloop
  endfacet
  facet normal -6.343901e-001 -7.730130e-001  0.000000e+000
    outer loop
      vertex  1.012500e+002  3.462248e+001  5.650000e+000
      vertex  1.014546e+002  3.445459e+001  1.650000e+000
      vertex  1.014546e+002  3.445459e+001  5.650000e+000
    endloop
  endfacet
  facet normal -7.730200e-001 -6.343815e-001  -0.000000e+000
    outer loop
      vertex  1.014546e+002  3.445459e+001  5.650000e+000
      vertex  1.014546e+002  3.445459e+001  1.650000e+000
      vertex  1.016225e+002  3.425002e+001  1.650000e+000
    endloop
  endfacet
  facet normal -7.730200e-001 -6.343815e-001  0.000000e+000
    outer loop
      vertex  1.014546e+002  3.445459e+001  5.650000e+000
      vertex  1.016225e+002  3.425002e+001  1.650000e+000
      vertex  1.016225e+002  3.425002e+001  5.650000e+000
    endloop
  endfacet
  facet normal -8.819152e-001 -4.714080e-001  -0.000000e+000
    outer loop
      vertex  1.016225e+002  3.425002e+001  5.650000e+000
      vertex  1.016225e+002  3.425002e+001  1.650000e+000
      vertex  1.017472e+002  3.401662e+001  1.650000e+000
    endloop
  endfacet
  facet normal -8.819152e-001 -4.714080e-001  0.000000e+000
    outer loop
      vertex  1.016225e+002  3.425002e+001  5.650000e+000
      vertex  1.017472e+002  3.401662e+001  1.650000e+000
      vertex  1.017472e+002  3.401662e+001  5.650000e+000
    endloop
  endfacet
  facet normal -9.569439e-001 -2.902730e-001  -0.000000e+000
    outer loop
      vertex  1.017472e+002  3.401662e+001  5.650000e+000
      vertex  1.017472e+002  3.401662e+001  1.650000e+000
      vertex  1.018241e+002  3.376337e+001  1.650000e+000
    endloop
  endfacet
  facet normal -9.569439e-001 -2.902730e-001  0.000000e+000
    outer loop
      vertex  1.017472e+002  3.401662e+001  5.650000e+000
      vertex  1.018241e+002  3.376337e+001  1.650000e+000
      vertex  1.018241e+002  3.376337e+001  5.650000e+000
    endloop
  endfacet
  facet normal -9.951847e-001 -9.801793e-002  -0.000000e+000
    outer loop
      vertex  1.018241e+002  3.376337e+001  5.650000e+000
      vertex  1.018241e+002  3.376337e+001  1.650000e+000
      vertex  1.018500e+002  3.350000e+001  1.650000e+000
    endloop
  endfacet
  facet normal -9.951847e-001 -9.801793e-002  0.000000e+000
    outer loop
      vertex  1.018241e+002  3.376337e+001  5.650000e+000
      vertex  1.018500e+002  3.350000e+001  1.650000e+000
      vertex  1.018500e+002  3.350000e+001  5.650000e+000
    endloop
  endfacet
  facet normal -7.654518e-001 -6.434933e-001  0.000000e+000
    outer loop
      vertex  9.924000e+001  2.536612e+001  4.400000e+000
      vertex  9.924000e+001  2.536612e+001  1.650000e+000
      vertex  1.032500e+002  2.059612e+001  4.400000e+000
    endloop
  endfacet
  facet normal -7.654518e-001 -6.434933e-001  -0.000000e+000
    outer loop
      vertex  1.032500e+002  2.059612e+001  4.400000e+000
      vertex  9.924000e+001  2.536612e+001  1.650000e+000
      vertex  1.032500e+002  2.059612e+001  1.650000e+000
    endloop
  endfacet
  facet normal -7.930189e-001  6.091968e-001  0.000000e+000
    outer loop
      vertex  1.032500e+002  1.541006e+001  4.400000e+000
      vertex  1.032500e+002  1.541006e+001  1.650000e+000
      vertex  9.924000e+001  1.019006e+001  4.400000e+000
    endloop
  endfacet
  facet normal -7.930189e-001  6.091968e-001  0.000000e+000
    outer loop
      vertex  9.924000e+001  1.019006e+001  4.400000e+000
      vertex  1.032500e+002  1.541006e+001  1.650000e+000
      vertex  9.924000e+001  1.019006e+001  1.650000e+000
    endloop
  endfacet
  facet normal  0.000000e+000  0.000000e+000 -1.000000e+000
    outer loop
      vertex  9.924000e+001  1.019006e+001  4.400000e+000
      vertex  9.924000e+001  2.536612e+001  4.400000e+000
      vertex  1.032500e+002  1.541006e+001  4.400000e+000
    endloop
  endfacet
  facet normal  0.000000e+000  0.000000e+000 -9.999999e-001
    outer loop
      vertex  1.032500e+002  1.541006e+001  4.400000e+000
      vertex  9.924000e+001  2.536612e+001  4.400000e+000
      vertex  1.032500e+002  2.059612e+001  4.400000e+000
    endloop
  endfacet
  facet normal -1.000000e+000  -0.000000e+000  0.000000e+000
    outer loop
      vertex  1.032500e+002  1.541006e+001  4.400000e+000
      vertex  1.032500e+002  2.059612e+001  4.400000e+000
      vertex  1.032500e+002  1.541006e+001  1.650000e+000
    endloop
  endfacet
  facet normal -1.000000e+000  0.000000e+000  0.000000e+000
    outer loop
      vertex  1.032500e+002  1.541006e+001  1.650000e+000
      vertex  1.032500e+002  2.059612e+001  4.400000e+000
      vertex  1.032500e+002  2.059612e+001  1.650000e+000
    endloop
  endfacet
  facet normal -9.999999e-001  0.000000e+000  0.000000e+000
    outer loop
      vertex  1.060000e+002  3.900000e+001 -4.235000e+001
      vertex  1.060000e+002 -5.000000e+000  1.650000e+000
      vertex  1.060000e+002  3.900000e+001  1.650000e+000
    endloop
  endfacet
  facet normal  1.000000e+000  0.000000e+000  0.000000e+000
    outer loop
      vertex  1.080000e+002 -5.000000e+000  5.650000e+000
      vertex  1.080000e+002 -5.000000e+000  1.650000e+000
      vertex  1.080000e+002  4.100000e+001  5.650000e+000
    endloop
  endfacet
  facet normal  1.000000e+000  0.000000e+000  0.000000e+000
    outer loop
      vertex  1.080000e+002  4.100000e+001  5.650000e+000
      vertex  1.080000e+002 -5.000000e+000  1.650000e+000
      vertex  1.080000e+002  4.100000e+001 -4.435000e+001
    endloop
  endfacet
endsolid CATIA STL
